<svg xmlns="http://www.w3.org/2000/svg" width="144.802" height="71.342" viewBox="35 -20 115.375 94.136">
    <g>
        <path d="M13.042 43.823c-.587 1.237-2.066 1.764-3.304 1.177l-6.32-3c-1.238-.587-1.765-2.066-1.178-3.304l15.754-33.19c.587-1.237 2.066-1.764 3.304-1.177l6.32 3c1.238.586 1.765 2.065 1.178 3.303l-15.754 33.19z" fill="none" stroke="#4D662E" stroke-width="4" stroke-linecap="round" stroke-miterlimit="10"/>
        <circle cx="21.183" cy="12.728" r="1.968" fill="#DFB126"/>
        <path d="M61.163 14.1H34.615l-14.35 30.23s-4.504 6.942 3.894 10.927c4.204 1.996 21.647 10.086 32.257 13.434 4.608 1.455 11.572.387 15.547-2.36l24.804-19.617c3.975-2.747 4.008-7.246.073-10.05L73.62 20.12" fill="none" stroke="#4D662E" stroke-width="4" stroke-linecap="round" stroke-linejoin="round" stroke-miterlimit="10"/>
        <path fill="none" stroke="#4D662E" stroke-width="2" stroke-linecap="round" stroke-linejoin="round" stroke-miterlimit="10" d="M71.843 35.253L93.19 47.997M58.682 54.895l15.672 7.687M65.53 45.49l18.006 9.42"/>
        <path d="M132.023 40.788c.573 1.208 2.017 1.722 3.225 1.15l6.17-2.93c1.208-.573 1.722-2.017 1.15-3.225l-15.38-32.4c-.572-1.208-2.016-1.722-3.224-1.15l-6.17 2.93c-1.208.573-1.722 2.017-1.15 3.225l15.38 32.4z" fill="none" stroke="#4D662E" stroke-width="4" stroke-linecap="round" stroke-miterlimit="10"/>
        <circle cx="124.076" cy="10.433" r="1.922" fill="#DFB126"/>
        <path d="M76.036 63.526c3.88 2.68 9.148 2.958 13.646 1.538 10.357-3.268 27.384-11.166 31.49-13.114 8.197-3.89 3.8-10.666 3.8-10.666l-14.008-30.36-45.7-4.673-6.65 14.017c-2.073 4.365-1.085 9.17 2.206 10.73 3.29 1.563 7.474-.28 9.345-4.116 1.87-3.835 3.64-6.777 3.64-6.777l18.715 1.984" fill="none" stroke="#4D662E" stroke-width="4" stroke-linecap="round" stroke-linejoin="round" stroke-miterlimit="10"/>
    </g>
</svg>
