<svg xmlns="http://www.w3.org/2000/svg" width="86.781" height="96.771" viewBox="0 0 86.781 96.771">
    <g>
        <path d="M68.892 94.77V76.673l-15.306-8.708.017 8.708-11.995-8.316.017 8.316-12.206-8.708v8.708l-16.593-8.708V41.44H2v53.33h66.892zM6.205 88.408" fill="none" stroke="#4D662E" stroke-width="4" stroke-linecap="round" stroke-linejoin="round" stroke-miterlimit="10"/>
        <path d="M7.375 28.475c0-6.997 8.596-20.373 32.64-4.242" fill="none" stroke="#DFB126" stroke-width="2" stroke-linecap="round" stroke-linejoin="round" stroke-miterlimit="10"/>
        <path d="M21.29 16.55s.035-5.82.11-6.166c.778-3.555 2.703-7.027 6.24-8.42 14.81-5.83 27.84 16.524 40.183 20.638C79.978 26.654 85.773 25.5 85.78 25.5c-.46.09-2.337 2.766-2.728 3.148-2.67 2.606-5.62 5.02-8.68 7.15-14.12 9.838-46.78 14.942-55.21-5.085-4.63-10.992 2.13-14.164 2.13-14.164z" fill="none" stroke="#DFB126" stroke-width="2" stroke-linecap="round" stroke-linejoin="round" stroke-miterlimit="10"/>
    </g>
</svg>
