<svg xmlns="http://www.w3.org/2000/svg" version="1.1" clip-rule="evenodd"
     xmlns:xlink="http://www.w3.org/1999/xlink" viewBox="8000 0 33200.551 15090">
    <polygon points="0,-90 22222,0 22222,11111 0,11111 " class="fil0" transform="matrix(1.8730087,0,0,1.9270093,-300,100)" class="fil0" />
    <g transform="matrix(0.738,0,0,0.738,17950,0)">
        <g ng-include="floor.url" />
    </g>

    <g transform="translate(19100,100)" class="fil3">
        <path d="m -2075.5479,9678.6344 c 0,-130.654 41.2088,-166.2487 92.0804,-79.4681 24.5746,41.8792 165.8867,47.3175 1048.62926,39.945 l 1020.223729,-8.4606 0,-463.6335 0,-463.6341 -1031.076869,-8.4606 c -895.47632,-7.3125 -1033.64132,-1.8133 -1050.54782,40.0058 -36.6688,91.1918 -79.3087,48.4664 -79.3087,-79.468 0,-133.131 24.5239,-155.733 95.4364,-87.9887 31.6222,30.2164 288.8484,40.0059 1053.66321,40.0059 l 1011.833779,0 9.270106,-471.6111 9.270105,-471.6711 -1040.5369,0 c -894.0136,0 -1043.247,6.7681 -1059.818,47.9828 -36.4978,90.7691 -79.1187,47.7419 -79.1187,-79.9508 0,-121.3481 38.6191,-165.5842 83.7538,-95.9056 13.082,20.1843 402.3818,31.968 1057.31677,31.968 l 1036.61106,0 0,-463.6333 0,-463.6341 -1036.61106,0 c -654.93497,0 -1044.23477,11.7838 -1057.31677,31.968 -45.1347,69.7386 -83.7538,25.5025 -83.7538,-95.9047 0,-118.8095 45.103,-174.6484 74.0911,-91.6154 9.0421,25.8652 309.3579,37.2871 1049.75002,39.9458 l 1037.092269,3.6259 0,-463.6341 0,-463.6333 -1019.438579,0 c -770.88091,0 -1029.65211,9.7895 -1061.32491,40.0059 -67.8984,64.783 -80.1699,48.1037 -80.1699,-108.8982 0,-142.136 2.7227,-146.4872 61.2688,-95.9057 54.2085,46.8348 179.7537,52.9385 1089.76203,52.9385 l 1028.49338,0 -9.295412,-455.6571 -9.295409,-455.6571 -1018.647059,-8.4606 c -912.34493,-7.6143 -1025.09943,-3.0214 -1080.46673,44.9014 -59.1602,51.1251 -61.8196,47.6202 -61.8196,-80.5561 0,-122.5561 5.5088,-131.1375 64.802,-100.8603 40.8037,20.7878 462.6248,33.056 1139.09499,33.056 l 1074.293,0 0,2616.8839 0,2616.8851 -1096.56277,19.1563 c -724.41002,12.6908 -1100.57722,30.639 -1108.38462,52.9993 -28.2599,80.9179 -73.2426,23.1456 -73.2426,-94.0323 z" />
        <path d="m 142.54394,19497.549 c 0,-130.654 41.2088,-166.249 92.0804,-79.468 24.5746,41.879 165.8867,47.317 1048.62926,39.945 l 1020.2236,-8.461 0,-463.633 0,-463.634 -1031.0768,-8.461 c -895.47626,-7.312 -1033.64126,-1.813 -1050.54776,40.006 -36.6688,91.192 -79.3087,48.466 -79.3087,-79.468 0,-133.131 24.5239,-155.733 95.4364,-87.989 31.6222,30.217 288.8484,40.006 1053.66316,40.006 l 1011.8337,0 9.2701,-471.611 9.2701,-471.671 -1040.5368,0 c -894.01356,0 -1043.24696,6.768 -1059.81796,47.983 -36.4978,90.769 -79.1187,47.742 -79.1187,-79.951 0,-121.348 38.6191,-165.584 83.7538,-95.906 13.082,20.185 402.3818,31.968 1057.31676,31.968 l 1036.6109,0 0,-463.633 0,-463.634 -1036.6109,0 c -654.93496,0 -1044.23476,11.784 -1057.31676,31.968 -45.1347,69.739 -83.7538,25.502 -83.7538,-95.905 0,-118.809 45.103,-174.648 74.0911,-91.615 9.0421,25.865 309.3579,37.287 1049.74996,39.946 l 1037.0922,3.626 0,-463.635 0,-463.633 -1019.4385,0 c -770.88086,0 -1029.65206,9.79 -1061.32486,40.006 -67.8984,64.783 -80.1699,48.104 -80.1699,-108.898 0,-142.136 2.7227,-146.487 61.2688,-95.906 54.2085,46.835 1075.62586,38.803 1075.62586,38.803 l 971.9487,28.272 c 877.3605,41.91 -3136.69736,-5.432 183.4826,-5.432 l -14.1361,1584.946 0,2616.885 -1096.5627,19.156 c -724.40996,12.691 -1100.57716,30.639 -1108.38456,52.999 -28.2599,80.918 -73.2426,23.146 -73.2426,-94.032 z" />
        <path d="m -16707.785,11426.377 0,1074.293 c 0,676.47 -12.268,1098.289 -33.057,1139.093 -30.276,59.293 -21.694,64.803 100.862,64.803 128.176,0 131.68,-2.66 80.555,-61.82 -47.923,-55.367 -52.515,-168.122 -44.901,-1080.467 l 8.459,-1018.646 455.658,-9.295 455.659,-9.297 0,1028.494 c 0,910.008 -6.105,1035.553 -52.94,1089.762 -50.582,58.546 -46.231,61.269 95.906,61.269 157.002,0 173.682,-12.272 108.899,-80.17 -30.216,-31.673 -40.006,-290.445 -40.006,-1061.326 l 0,-1019.437 463.633,0 463.634,0 -3.625,1037.091 c -2.659,740.393 -14.082,1040.708 -39.947,1049.75 -83.033,28.989 -27.194,74.092 91.615,74.092 121.407,0 165.646,-38.62 95.907,-83.754 -20.184,-13.082 -31.969,-402.381 -31.969,-1057.316 l 0,-1036.611 463.635,0 463.633,0 0,1036.611 c 0,654.935 -11.783,1044.234 -31.967,1057.316 -69.679,45.134 -25.444,83.754 95.904,83.754 127.693,0 170.72,-42.621 79.951,-79.119 -41.215,-16.571 -47.982,-165.805 -47.982,-1059.818 l 0,-1040.537 471.67,9.269 471.609,9.272 0,1011.834 c 0,764.815 -9.789,1022.04 -40.006,1053.662 -67.744,70.913 -45.141,95.437 87.99,95.437 127.935,0 170.659,-42.639 79.467,-79.308 -41.819,-16.907 -47.318,-155.073 -40.006,-1050.549 l 8.461,-1031.076 463.635,0 463.635,0 8.459,1020.222 c 7.373,882.742 1.934,1024.055 -39.945,1048.629 -73.46,43.063 -59.219,79.199 26.13,89.279 7.622,14.465 40.097,16.461 113.762,16.461 128.176,0 131.682,-2.66 80.557,-61.82 -47.923,-55.367 -52.517,-168.122 -44.903,-1080.467 l 8.461,-1018.646 455.659,-9.295 455.656,-9.297 0,1028.494 c 0,910.008 -6.105,1035.553 -52.94,1089.762 -50.581,58.546 -46.229,61.269 95.907,61.269 157.002,0 173.681,-12.272 108.898,-80.17 -30.216,-31.673 -40.006,-290.445 -40.006,-1061.326 l 0,-1019.437 463.6326,0 463.6347,0 -3.625,1037.092 c -2.659,740.393 -14.0822,1040.708 -39.9472,1049.75 -83.033,28.989 -27.1938,74.091 91.6152,74.091 121.407,0 165.6453,-38.62 95.9063,-83.754 -20.184,-13.082 -31.9688,-402.383 -31.9688,-1057.318 l 0,-1036.609 463.6348,0 463.6328,0 0,1036.609 c 0,654.935 -11.7828,1044.236 -31.9668,1057.318 -69.679,45.134 -25.4437,83.754 95.9043,83.754 127.693,0 170.7202,-42.621 79.9512,-79.119 -41.215,-16.571 -47.9825,-165.805 -47.9825,-1059.818 l 0,-1040.537 471.67,9.269 471.6093,9.272 0,1011.834 c 0,764.815 -9.7888,1022.04 -40.0058,1053.662 -67.744,70.913 -45.1408,95.437 87.9902,95.437 127.935,0 170.6588,-42.639 79.4668,-79.308 -41.819,-16.907 -47.3179,-155.073 -40.0059,-1050.549 l 8.461,-1031.076 463.6347,0 463.6329,0 8.4609,1020.222 c 7.373,882.742 1.9337,1024.055 -39.9453,1048.629 -86.78,50.872 -51.1853,92.082 79.4687,92.082 117.137,-0.01 174.8747,-44.989 93.9707,-73.244 -22.361,-7.807 -40.309,-383.975 -53,-1108.385 l -19.1543,-1096.56 -2616.8847,0 -2587.4488,0 -0.238,-13.658 -2616.885,0 -2616.885,0 z" />
        <path d="m -16749.954,10802.453 0,-1074.293 c 0,-676.4701 -12.268,-1098.2891 -33.057,-1139.0931 -30.276,-59.293 -21.694,-64.803 100.862,-64.803 128.176,0 131.68,2.66 80.555,61.82 -47.923,55.367 -52.515,168.122 -44.901,1080.4671 l 8.459,1018.646 455.658,9.295 455.659,9.297 0,-1028.494 c 0,-910.0081 -6.105,-1035.5531 -52.94,-1089.7621 -50.582,-58.546 -46.231,-61.269 95.906,-61.269 157.002,0 173.682,12.272 108.899,80.17 -30.216,31.673 -40.006,290.445 -40.006,1061.3261 l 0,1019.437 463.633,0 463.634,0 -3.625,-1037.091 c -2.659,-740.3931 -14.082,-1040.7081 -39.947,-1049.7501 -83.033,-28.989 -27.194,-74.092 91.615,-74.092 121.407,0 165.646,38.62 95.907,83.754 -20.184,13.082 -31.969,402.381 -31.969,1057.3161 l 0,1036.611 463.635,0 463.633,0 0,-1036.611 c 0,-654.9351 -11.783,-1044.2341 -31.967,-1057.3161 -69.679,-45.134 -25.444,-83.754 95.904,-83.754 127.693,0 170.72,42.621 79.951,79.119 -41.215,16.571 -47.982,165.805 -47.982,1059.8181 l 0,1040.537 471.67,-9.269 471.609,-9.272 0,-1011.834 c 0,-764.8151 -9.789,-1022.0401 -40.006,-1053.6621 -67.744,-70.913 -45.141,-95.437 87.99,-95.437 127.935,0 170.659,42.639 79.467,79.308 -41.819,16.907 -47.318,155.073 -40.006,1050.5491 l 8.461,1031.076 463.635,0 463.635,0 8.459,-1020.222 c 7.373,-882.7421 1.934,-1024.0551 -39.945,-1048.6291 -73.46,-43.063 -59.219,-79.199 26.13,-89.279 7.622,-14.465 40.097,-16.461 113.762,-16.461 128.176,0 131.682,2.66 80.557,61.82 -47.923,55.367 -52.517,168.122 -44.903,1080.4671 l 8.461,1018.646 455.659,9.295 455.656,9.297 0,-1028.494 c 0,-910.0081 -6.105,-1035.5531 -52.94,-1089.7621 -50.581,-58.546 -46.229,-61.269 95.907,-61.269 157.002,0 173.681,12.272 108.898,80.17 -30.216,31.673 -40.006,290.445 -40.006,1061.3261 l 0,1019.437 463.633,0 463.6345,0 -3.625,-1037.092 c -2.659,-740.3931 -14.0822,-1040.7081 -39.9472,-1049.7501 -83.033,-28.989 -27.1938,-74.091 91.6152,-74.091 121.407,0 165.6453,38.62 95.9063,83.754 -20.184,13.082 -31.9688,402.383 -31.9688,1057.3181 l 0,1036.609 463.6348,0 463.6328,0 0,-1036.609 c 0,-654.9351 -11.7828,-1044.2361 -31.9668,-1057.3181 -69.679,-45.134 -25.4437,-83.754 95.9043,-83.754 127.693,0 170.7202,42.621 79.9512,79.119 -41.215,16.571 -47.9825,165.805 -47.9825,1059.8181 l 0,1040.537 471.67,-9.269 471.6093,-9.272 0,-1011.834 c 0,-764.8151 -9.7888,-1022.0401 -40.0058,-1053.6621 -67.744,-70.913 -45.1408,-95.437 87.9902,-95.437 127.935,0 170.6588,42.639 79.4668,79.308 -41.819,16.907 -47.3179,155.073 -40.0059,1050.5491 l 8.461,1031.076 463.6347,0 463.633,0 8.461,-1020.222 c 7.373,-882.7421 1.934,-1024.0551 -39.945,-1048.6291 -86.78,-50.872 -51.186,-92.082 79.468,-92.082 117.137,0.01 174.875,44.989 93.971,73.244 -22.361,7.807 -40.309,383.975 -53,1108.3851 l -19.154,1096.56 -2616.8851,0 -2587.449,0 -0.238,13.658 -2616.885,0 -2616.885,0 z" />
        <path d="m -16643.542,17408.172 0,-1074.293 c 0,-676.47 -12.268,-1098.289 -33.057,-1139.093 -30.276,-59.293 -21.694,-64.803 100.862,-64.803 128.176,0 131.68,2.66 80.555,61.82 -47.923,55.367 -52.515,168.122 -44.901,1080.467 l 8.459,1018.646 455.658,9.295 455.659,9.297 0,-1028.494 c 0,-910.008 -6.105,-1035.553 -52.94,-1089.762 -50.582,-58.546 -46.231,-61.269 95.906,-61.269 157.002,0 173.682,12.272 108.899,80.17 -30.216,31.673 -40.006,290.445 -40.006,1061.326 l 0,1019.437 463.633,0 463.634,0 -3.625,-1037.091 c -2.659,-740.393 -14.082,-1040.708 -39.947,-1049.75 -83.033,-28.989 -27.194,-74.092 91.615,-74.092 121.407,0 165.646,38.62 95.907,83.754 -20.184,13.082 -31.969,402.381 -31.969,1057.316 l 0,1036.611 463.635,0 463.633,0 0,-1036.611 c 0,-654.935 -11.783,-1044.234 -31.967,-1057.316 -69.679,-45.134 -25.444,-83.754 95.904,-83.754 127.693,0 170.72,42.621 79.951,79.119 -41.215,16.571 -47.982,165.805 -47.982,1059.818 l 0,1040.537 471.67,-9.269 471.609,-9.272 0,-1011.834 c 0,-764.815 -9.789,-1022.04 -40.006,-1053.662 -67.744,-70.913 -45.141,-95.437 87.99,-95.437 127.935,0 170.659,42.639 79.467,79.308 -41.819,16.907 -47.318,155.073 -40.006,1050.549 l 8.461,1031.076 463.635,0 463.635,0 8.459,-1020.222 c 7.373,-882.742 1.934,-1024.055 -39.945,-1048.629 -73.46,-43.063 -59.219,-79.199 26.13,-89.279 7.622,-14.465 40.097,-16.461 113.762,-16.461 128.176,0 131.682,2.66 80.557,61.82 -47.923,55.367 -52.517,168.122 -44.903,1080.467 l 8.461,1018.646 455.659,9.295 455.656,9.297 0,-1028.494 c 0,-910.008 -6.105,-1035.553 -52.94,-1089.762 -50.581,-58.546 -46.229,-61.269 95.907,-61.269 157.002,0 173.681,12.272 108.898,80.17 -30.216,31.673 -40.006,290.445 -40.006,1061.326 l 0,1019.437 463.6329,0 463.6345,0 -3.625,-1037.092 c -2.659,-740.393 -14.0822,-1040.708 -39.9472,-1049.75 -83.033,-28.989 -27.1938,-74.091 91.6152,-74.091 121.407,0 165.6453,38.62 95.9063,83.754 -20.184,13.082 -31.9688,402.383 -31.9688,1057.318 l 0,1036.609 463.6348,0 463.6328,0 0,-1036.609 c 0,-654.935 -11.7828,-1044.236 -31.9668,-1057.318 -69.679,-45.134 -25.4437,-83.754 95.9043,-83.754 127.693,0 170.7202,42.621 79.9512,79.119 -41.215,16.571 -47.9825,165.805 -47.9825,1059.818 l 0,1040.537 471.67,-9.269 471.6093,-9.272 0,-1011.834 c 0,-764.815 -9.7888,-1022.04 -40.0058,-1053.662 -67.744,-70.913 -45.1408,-95.437 87.9902,-95.437 127.935,0 170.6588,42.639 79.4668,79.308 -41.819,16.907 -47.3179,155.073 -40.0059,1050.549 l 8.461,1031.076 463.6347,0 463.6328,0 8.461,-1020.222 c 7.373,-882.742 1.934,-1024.055 -39.945,-1048.629 -86.78,-50.872 -51.186,-92.082 79.468,-92.082 117.137,0.01 174.875,44.989 93.971,73.244 -22.361,7.807 -40.309,383.975 -53,1108.385 l -19.154,1096.56 -2616.8849,0 -2587.4489,0 -0.238,13.658 -2616.885,0 -2616.885,0 z" />
        <path d="m 6532.0589,12078.286 c -132.1226,0 -168.1177,-28.602 -80.3612,-63.912 42.3497,-17.056 47.8488,-115.139 40.394,-727.837 l -8.5561,-708.121 -468.8446,0 -468.8466,0 -8.5551,715.654 c -7.3952,621.537 -1.8333,717.435 40.4557,729.169 92.2161,25.452 49.0108,55.047 -80.3612,55.047 -134.6275,0 -157.4836,-17.021 -88.9781,-66.241 30.5556,-21.948 40.4557,-200.485 40.4557,-731.331 l 0,-702.298 -476.9122,-6.435 -476.973,-6.434 0,722.221 c 0,620.521 6.8441,724.101 48.5214,735.603 91.7903,25.333 48.2786,54.915 -80.8487,54.915 -122.712,0 -167.4463,-26.804 -96.9841,-58.132 20.4109,-9.08 32.3274,-279.287 32.3274,-733.867 l 0,-719.496 -468.8446,0 -468.8455,0 0,719.496 c 0,454.58 11.9154,724.787 32.3273,733.867 70.5219,31.328 25.7887,58.132 -96.983,58.132 -120.1455,0 -176.6112,-31.305 -92.6448,-51.425 26.1557,-6.276 37.7061,-214.721 40.394,-728.615 l 3.6667,-719.83 -468.8456,0 -468.8445,0 0,707.576 c 0,535.057 9.899,714.666 40.4557,736.65 65.5112,47.127 48.6437,55.644 -110.1221,55.644 -143.7337,0 -148.1346,-1.89 -96.9841,-42.526 47.3615,-37.624 53.5331,-124.764 53.5331,-756.386 l 0,-713.861 -460.7789,6.451 -460.7787,6.452 -8.5557,707.027 c -7.6999,633.244 -3.0554,711.506 45.4061,749.935 51.6998,41.062 48.1555,42.908 -81.4616,42.908 -123.9337,0 -132.6116,-3.823 -101.994,-44.978 21.0214,-28.321 33.4275,-321.101 33.4275,-790.628 l 0,-745.65 2646.299,0 2646.3017,0 19.3713,761.107 c 12.8337,502.802 30.9834,763.894 53.5947,769.313 81.8276,19.614 23.4062,50.836 -95.0889,50.836 z" />
        <path d="m 14168.028,11628.915 c -132.123,0 -168.118,-28.602 -80.362,-63.912 42.35,-17.056 47.849,-115.139 40.394,-727.837 l -8.556,-708.121 -468.844,0 -468.847,0 -8.555,715.654 c -7.395,621.537 -1.833,717.435 40.456,729.169 92.216,25.452 49.01,55.047 -80.362,55.047 -134.627,0 -157.483,-17.021 -88.978,-66.241 30.556,-21.948 40.456,-200.485 40.456,-731.331 l 0,-702.298 -476.912,-6.435 -476.973,-6.434 0,722.221 c 0,620.521 6.844,724.101 48.521,735.603 91.791,25.333 48.279,54.915 -80.848,54.915 -122.712,0 -167.447,-26.804 -96.985,-58.132 20.411,-9.08 32.328,-279.287 32.328,-733.867 l 0,-719.496 -468.845,0 -468.845,0 0,719.496 c 0,454.58 11.915,724.787 32.327,733.867 70.522,31.328 25.789,58.132 -96.983,58.132 -120.145,0 -176.611,-31.305 -92.645,-51.425 26.156,-6.276 37.706,-214.721 40.394,-728.615 l 3.667,-719.83 -468.846,0 -468.844,0 0,707.576 c 0,535.057 9.899,714.666 40.456,736.65 65.511,47.127 48.643,55.644 -110.1225,55.644 -143.7336,0 -148.1345,-1.89 -96.9841,-42.526 47.3615,-37.624 53.5331,-124.764 53.5331,-756.386 l 0,-713.861 -460.7788,6.451 -460.7787,6.452 -8.5557,707.027 c -7.6999,633.244 -3.0554,711.506 45.4061,749.935 51.6998,41.062 48.1555,42.908 -81.4616,42.908 -123.9337,0 -132.6116,-3.823 -101.994,-44.978 21.0214,-28.321 33.4275,-321.101 33.4275,-790.628 l 0,-745.65 2646.2987,0 2646.302,0 19.371,761.107 c 12.834,502.802 30.984,763.894 53.595,769.313 81.828,19.614 23.406,50.836 -95.089,50.836 z" />
        <path d="m 20910.726,11590.532 c -130.654,0 -166.249,-28.136 -79.468,-62.868 41.879,-16.779 47.317,-113.26 39.945,-715.955 l -8.461,-696.559 -463.633,0 -463.634,0 -8.461,703.969 c -7.312,611.389 -1.813,705.722 40.006,717.264 91.192,25.036 48.466,54.149 -79.468,54.149 -133.131,0 -155.733,-16.744 -87.989,-65.159 30.217,-21.591 40.006,-197.213 40.006,-719.392 l 0,-690.831 -471.611,-6.329 -471.671,-6.33 0,710.429 c 0,610.39 6.768,712.279 47.983,723.593 90.769,24.919 47.742,54.019 -79.951,54.019 -121.348,0 -165.584,-26.367 -95.906,-57.183 20.185,-8.932 31.968,-274.728 31.968,-721.886 l 0,-707.749 -463.633,0 -463.634,0 0,707.749 c 0,447.158 11.784,712.954 31.968,721.886 69.739,30.816 25.502,57.183 -95.905,57.183 -118.809,0 -174.648,-30.794 -91.615,-50.586 25.865,-6.173 37.287,-211.215 39.946,-716.719 l 3.626,-708.077 -463.635,0 -463.633,0 0,696.024 c 0,526.32 9.79,702.997 40.006,724.622 64.783,46.357 48.104,54.736 -108.898,54.736 -142.136,0 -146.487,-1.859 -95.906,-41.832 46.835,-37.01 38.803,-734.386 38.803,-734.386 l 28.272,-663.6 c 41.91,-599.0205 -5.432,2141.588 -5.432,-125.273 l 1584.946,9.651 2616.885,0 19.156,748.681 c 12.691,494.593 30.639,751.422 52.999,756.752 80.918,19.295 23.146,50.007 -94.032,50.007 z" />
        <path d="m 3386.9548,17256.665 0,-875.441 c 0,-551.256 -12.5838,-894.996 -33.9078,-928.247 -31.0552,-48.318 -22.2524,-52.809 103.4579,-52.809 131.4749,0 135.0691,2.169 82.6283,50.378 -49.1564,45.118 -53.8666,137.002 -46.0566,880.472 l 8.6767,830.096 467.3855,7.573 467.3865,7.576 0,-838.12 c 0,-741.565 -6.2621,-843.871 -54.3026,-888.047 -51.8838,-47.709 -47.4208,-49.928 98.3744,-49.928 161.0429,0 178.1522,10 111.7018,65.331 -30.9937,25.81 -41.0357,236.684 -41.0357,864.875 l 0,830.74 475.5658,0 475.5668,0 -3.7183,-845.126 c -2.7275,-603.347 -14.4445,-848.074 -40.9752,-855.442 -85.17,-23.623 -27.8939,-60.378 93.973,-60.378 124.5317,0 169.9093,31.472 98.3754,68.252 -20.7035,10.66 -32.7918,327.9 -32.7918,861.606 l 0,844.735 475.5678,0 475.5657,0 0,-844.735 c 0,-533.706 -12.0863,-850.946 -32.7897,-861.606 -71.4724,-36.78 -26.0989,-68.252 98.3723,-68.252 130.9795,0 175.1139,34.733 82.0087,64.474 -42.2757,13.504 -49.2169,135.115 -49.2169,863.647 l 0,847.933 483.8096,-7.553 483.747,-7.555 0,-824.545 c 0,-623.247 -10.0409,-832.86 -41.0356,-858.629 -69.4876,-57.787 -46.3029,-77.772 90.2546,-77.772 131.2277,0 175.0513,34.747 81.5123,64.628 -42.8953,13.777 -48.5359,126.37 -41.0357,856.093 l 8.6788,840.225 475.5678,0 475.5678,0 8.6767,-831.38 c 7.5627,-719.347 1.9838,-834.502 -40.9731,-854.528 -75.3507,-35.092 -60.7431,-64.54 26.8025,-72.754 7.8182,-11.787 41.129,-13.414 116.69,-13.414 131.4749,0 135.0711,2.169 82.6303,50.378 -49.1564,45.118 -53.8687,137.002 -46.0587,880.472 l 8.6788,830.096 467.3865,7.573 467.3833,7.576 0,-838.12 c 0,-741.564 -6.262,-843.871 -54.302,-888.047 -51.883,-47.709 -47.419,-49.928 98.375,-49.928 161.043,0 178.151,10 111.701,65.331 -30.994,25.81 -41.036,236.684 -41.036,864.875 l 0,830.74 475.5663,0 475.567,0 -3.718,-845.127 c -2.728,-603.347 -14.445,-848.073 -40.976,-855.441 -85.17,-23.624 -27.893,-60.378 93.974,-60.378 124.531,0 169.908,31.472 98.374,68.252 -20.703,10.66 -32.791,327.901 -32.791,861.609 l 0,844.732 475.567,0 475.566,0 0,-844.732 c 0,-533.708 -12.086,-850.949 -32.79,-861.609 -71.472,-36.78 -26.098,-68.252 98.373,-68.252 130.979,0 175.114,34.733 82.009,64.474 -42.276,13.504 -49.218,135.115 -49.218,863.647 l 0,847.933 483.81,-7.553 483.747,-7.555 0,-824.545 c 0,-623.247 -10.041,-832.86 -41.036,-858.629 -69.487,-57.787 -46.302,-77.772 90.255,-77.772 131.228,0 175.051,34.748 81.512,64.628 -42.895,13.778 -48.536,126.37 -41.035,856.093 l 8.678,840.225 475.568,0 475.566,0 8.679,-831.38 c 7.562,-719.347 1.984,-834.502 -40.973,-854.528 -89.014,-41.455 -52.504,-75.038 81.513,-75.038 120.152,0 179.376,36.662 96.39,59.687 -22.937,6.362 -41.347,312.901 -54.365,903.223 l -19.647,893.587 -2684.236,0 -2654.0441,0 -0.2441,11.13 -2684.237,0 -2684.237,0 z" />
        <path d="m 3371.8039,19529.275 0,-875.441 c 0,-551.256 -12.5838,-894.996 -33.9078,-928.247 -31.0552,-48.318 -22.2524,-52.809 103.4579,-52.809 131.4749,0 135.0691,2.169 82.6283,50.378 -49.1564,45.118 -53.8666,137.002 -46.0566,880.472 l 8.6767,830.096 467.3855,7.573 467.3865,7.576 0,-838.12 c 0,-741.565 -6.2621,-843.871 -54.3026,-888.047 -51.8838,-47.709 -47.4208,-49.928 98.3744,-49.928 161.0429,0 178.1522,10 111.7018,65.331 -30.9937,25.81 -41.0357,236.684 -41.0357,864.875 l 0,830.74 475.5658,0 475.5668,0 -3.7183,-845.126 c -2.7275,-603.347 -14.4445,-848.074 -40.9752,-855.442 -85.17,-23.623 -27.8939,-60.378 93.973,-60.378 124.5319,0 169.9089,31.472 98.3754,68.252 -20.7035,10.66 -32.7918,327.9 -32.7918,861.606 l 0,844.735 475.5683,0 475.565,0 0,-844.735 c 0,-533.706 -12.086,-850.946 -32.789,-861.606 -71.473,-36.78 -26.099,-68.252 98.372,-68.252 130.979,0 175.114,34.733 82.009,64.474 -42.276,13.504 -49.217,135.115 -49.217,863.647 l 0,847.933 483.809,-7.553 483.747,-7.555 0,-824.545 c 0,-623.247 -10.041,-832.86 -41.035,-858.629 -69.488,-57.787 -46.303,-77.772 90.254,-77.772 131.228,0 175.052,34.747 81.513,64.628 -42.896,13.777 -48.536,126.37 -41.036,856.093 l 8.679,840.225 475.567,0 475.568,0 8.677,-831.38 c 7.563,-719.347 1.984,-834.502 -40.973,-854.528 -75.351,-35.092 -60.743,-64.54 26.802,-72.754 7.819,-11.787 41.129,-13.414 116.69,-13.414 131.475,0 135.071,2.169 82.631,50.378 -49.157,45.118 -53.869,137.002 -46.059,880.472 l 8.679,830.096 467.386,7.573 467.384,7.576 0,-838.12 c 0,-741.564 -6.262,-843.871 -54.302,-888.047 -51.883,-47.709 -47.419,-49.928 98.375,-49.928 161.043,0 178.151,10 111.701,65.331 -30.994,25.81 -41.036,236.684 -41.036,864.875 l 0,830.74 475.5657,0 475.567,0 -3.718,-845.127 c -2.728,-603.347 -14.445,-848.073 -40.976,-855.441 -85.17,-23.624 -27.893,-60.378 93.974,-60.378 124.531,0 169.908,31.472 98.374,68.252 -20.703,10.66 -32.791,327.901 -32.791,861.609 l 0,844.732 475.567,0 475.566,0 0,-844.732 c 0,-533.708 -12.086,-850.949 -32.79,-861.609 -71.472,-36.78 -26.098,-68.252 98.373,-68.252 130.979,0 175.114,34.733 82.009,64.474 -42.276,13.504 -49.218,135.115 -49.218,863.647 l 0,847.933 483.81,-7.553 483.747,-7.555 0,-824.545 c 0,-623.247 -10.041,-832.86 -41.036,-858.629 -69.487,-57.787 -46.302,-77.772 90.255,-77.772 131.228,0 175.051,34.748 81.512,64.628 -42.895,13.778 -48.536,126.37 -41.035,856.093 l 8.678,840.225 475.568,0 475.566,0 8.679,-831.38 c 7.562,-719.347 1.984,-834.502 -40.973,-854.528 -89.014,-41.455 -52.504,-75.038 81.513,-75.038 120.152,0 179.376,36.662 96.39,59.687 -22.937,6.362 -41.347,312.901 -54.365,903.223 l -19.647,893.587 -2684.236,0 -2654.0437,0 -0.244,11.13 -2684.237,0 -2684.2374,0 z" />
        <path d="m 1800,3130  -19747.9617,3295.0487 -44.6,14040.8646 18007.42214,-24.588 0,-5458.967"
              style="fill:none;stroke:#ffffff;stroke-width:202.55223083" />
        <path d="m -795.85624,20203.458 15835.58824,54.698 -43.239,-3172.89 3547.832,0 21.619,3364.362 2725.794,-27.35 -129.778,-10667.505"
              style="fill:none;stroke:#ffffff;stroke-width:202.55223083" />
    </g>
    <g transform="matrix(4.2987698,0,0,3.7709666,9038.6292,7323.2689)" ng-include="'./img/evacuation/meeting.svg'" />
    <g class="fil6">
        <g transform="translate(26500,11000)">
            <use transform="matrix(1,0,0,1,0,0)" xlink:href="#arrow" />
            <use transform="matrix(1,0,0,1,0,1000)" xlink:href="#arrow" />
        </g>
        <g transform="translate(15000,13000)">
            <use transform="matrix(0,1,-1,0,0,0)" xlink:href="#arrow" />
            <use transform="matrix(0,1,-1,0,1500,0)" xlink:href="#arrow" />
            <use transform="matrix(0,1,-1,0,3000,0)" xlink:href="#arrow" />
            <use transform="matrix(0,1,-1,0,4500,0)" xlink:href="#arrow" />
            <use transform="matrix(0,1,-1,0,6000,0)" xlink:href="#arrow" />
            <use transform="matrix(0,1,-1,0,7500,0)" xlink:href="#arrow" />
            <use transform="matrix(0,1,-1,0,9000,0)" xlink:href="#arrow" />
            <use transform="matrix(0,1,-1,0,10500,0)" xlink:href="#arrow" />
            <use transform="matrix(0,1,-1,0,12000,0)" xlink:href="#arrow" />
            <use transform="matrix(0,1,-1,0,13500,0)" xlink:href="#arrow" />
            <use transform="matrix(0,1,-1,0,15000,0)" xlink:href="#arrow" />
            <use transform="matrix(0,1,-1,0,16500,0)" xlink:href="#arrow" />
            <use transform="matrix(0,1,-1,0,18000,0)" xlink:href="#arrow" />
            <use transform="matrix(0,1,-1,0,19500,0)" xlink:href="#arrow" />
        </g>
        <g transform="translate(14000,9500)">
            <use transform="matrix(1,0,0,-1,0,0)" xlink:href="#arrow" />
            <use transform="matrix(1,0,0,-1,0,1500)" xlink:href="#arrow" />
            <use transform="matrix(1,0,0,-1,0,3000)" xlink:href="#arrow" />
        </g>
        <g transform="translate(34500,10500)">
            <use transform="matrix(1,0,0,1,0,0)" xlink:href="#arrow" />
            <use transform="matrix(1,0,0,1,0,1500)" xlink:href="#arrow" />
        </g>
        <use transform="matrix(0,1,-1,0,14000,8000)" xlink:href="#arrow" />

    </g>
</svg>