<svg xmlns="http://www.w3.org/2000/svg" height="0in" width="0in" version="1.1" clip-rule="evenodd"
     xmlns:xlink="http://www.w3.org/1999/xlink" viewBox="0 0 22222 11111">
    <style type="text/css">
    </style>
    <defs>
        <style type="text/css">
            .fil0 {
                fill: #205CA2;
                fill-rule: nonzero;
            }

            .fil3 {
                fill: white;
                fill-rule: nonzero;
            }

            .fil1 {
                fill: white;
                fill-rule: nonzero;
                fill-opacity: 0.011765;
            }

            .fil2 {
                fill: #0026ff;
                animation-name: blue-black;
                animation-duration: 2s;
                animation-iteration-count: infinite;
            }

            @keyframes blue-black {
                0% {
                    fill: #205CA2;
                }

                50% {
                    fill: #000000;
                }

                100% {
                    fill: #205CA2;
                }
            }

            .fil6 {
                fill: #0026ff;
                animation-name: red-black;
                animation-duration: 2s;
                animation-iteration-count: infinite;
            }

            @keyframes red-black {
                0% {
                    fill: black;
                }

                100% {
                    fill: red;
                }
            }

            .fil4 {
                fill: none;
                fill-rule: nonzero;
            }


            .fnt1, .fnt2, .fnt5, .fnt6 {
                font-family: arial;
                fill: #ffffff;
                fill-opacity: 1;
            }

            .fnt2 {
                font-size: 310px;
            }

            .fnt1 {
                font-size: 360px;
            }

            .fnt5 {
                font-size: 270px;
            }

            .fnt6 {
                font-size: 180px;
            }

            .fnt7 {
                font-size: 250px;
            }

            .fil5 {
                fill: white;
            }

            .str4 {
                stroke: white;
                stroke-width: 27.7795;
                stroke-linejoin: round;
            }

            .str5 {
                stroke: white;
                stroke-width: 13.5157;
            }

            .str6 {
                stroke: white;
                stroke-width: 55.1772;
            }
        </style>
        <marker id="Arrow1Lend" style="overflow:visible;">
            <polygon points="2.6,8.12 5.12,2.6 3.52,2.6 3.52,0 1.60,0 1.60,2.6 0,2.6" />
        </marker>
        <marker id="arrow2">
            <path transform="scale(2)" d="m 3137.0037,7305.745 c 28.585,53.4244 57.2074,106.8204 85.7924,160.2589 -18.2595,0.028 -36.5315,-0.014 -54.791,0.014 -0.037,53.8776 -0.013,107.7552 -0.013,161.6328 -20.6758,0.043 -41.3393,0.028 -62.0151,0.014 -0.025,-53.8776 0,-107.7694 -0.012,-161.6469 -18.272,-0.014 -36.544,0.014 -54.816,-0.014 28.6224,-53.4103 57.195,-106.8771 85.8547,-160.259 z" />
        </marker>
        <symbol id="arrow">
            <polygon points="256,512 512,256 352,256 352,0 160,0 160,256 0,256 " />
        </symbol>
        <symbol id="toilet">
            <path d="m5535 5083c0 35-28 64-64 64-35 0-64-28-64-64 0-35 28-64 64-64 35 0 64 28 64 64" stroke="#fff" stroke-width="20.835" class="fil4 str0" fill="none" />
            <polygon class="fil4 str0" stroke="#fff" points="5417 5560 5433 5576 5509 5576 5525 5560 5525 5382 5563 5343 5571 5201 5535 5165 5494 5165 5481 5186 5493 5281 5471 5302 5450 5281 5461 5186 5449 5165 5407 5165 5371 5201 5379 5343 5417 5382" stroke-width="20.835" fill="none" />
            <path d="m5284 5083c0 35-28 64-64 64-35 0-64-28-64-64 0-35 28-64 64-64 35 0 64 28 64 64" stroke="#fff" stroke-width="20.835" class="fil4 str0" fill="none" />
            <polygon class="fil4 str0" stroke="#fff" points="5250 5576 5269 5475 5327 5475 5283 5339 5314 5291 5273 5165 5243 5165 5220 5205 5198 5165 5167 5165 5126 5291 5157 5339 5113 5475 5172 5475 5191 5576" stroke-width="20.835" fill="none" />
        </symbol>
        <symbol id="elevator">
            <g stroke="#fff" fill="none">
                <g stroke-width="13.89">
                    <path d="m8002 5221c0 20-16 36-36 36s-36-16-36-36 16-36 36-36 36 16 36 36" />
                    <polygon points="7996 5493 7996 5391 8018 5369 8023 5288 8002 5267 7978 5267 7953 5267 7929 5267 7908 5288 7913 5369 7935 5391 7935 5493 7944 5502 7987 5502" />
                    <path d="m8166 5221c0 20-16 36-36 36s-36-16-36-36 16-36 36-36 36 16 36 36" />
                    <polygon points="8160 5493 8160 5391 8182 5369 8186 5288 8166 5267 8142 5267 8116 5267 8093 5267 8072 5288 8077 5369 8099 5391 8099 5493 8108 5502 8151 5502" />
                </g>
                <polygon stroke-linejoin="bevel" points="7818 5114 8276 5114 8276 5572 7818 5572" stroke-width="27.779" />
            </g>
            <polygon points="7916 5030 7895 5010 7965 4940 8035 5010 8015 5030 7983 4998 7983 4987 7980 4984 7977 4987 7977 5002 7980 5005 7980 5018 7980 5074 7951 5074 7951 5018 7951 5005 7954 5002 7954 4987 7951 4984 7948 4987 7948 4998" fill="#fff" class="fil3" />
            <polygon points="8179 4984 8199 5004 8129 5074 8059 5004 8080 4984 8112 5016 8112 5027 8115 5030 8118 5027 8118 5012 8115 5009 8115 4996 8115 4940 8144 4940 8144 4996 8144 5009 8141 5012 8141 5027 8144 5030 8147 5027 8147 5016" fill="#fff" class="fil3" />
        </symbol>
        <symbol id="lab">
            <polygon class="fil4" points="19771 4526 19680 4372 19678 4367 19678 4222 19626 4222 19626 4367 19624 4372 19533 4526 " />
            <polygon class="fil4 str1" points="19771 4526 19680 4372 19678 4367 19678 4222 19626 4222 19626 4367 19624 4372 19533 4526 " />
            <path class="fil3" d="M19699 4364l0-153-10-10-73 0-10 10 0 153-112 188 9 16 300 0 9-16-112-188zm-75 8l0 0 1-5 0-145 52 0 0 145 1 5 91 154-238 0 91-154z" />
            <path class="fil3" d="M19652 4189l-7 0-16-16 0-7 16-16 7 0 16 16 0 7-16 16zm-13-20l0 0 9 9 9-9-9-9-9 9z" />
            <path class="fil3" d="M19683 4159l-7-3-13-31 3-7 31-13 7 3 13 31-3 7-31 13zm-8-33l0 0 9 21 21-9-9-21-21 9z" />
            <path class="fil3" d="M19634 4143l-28-18-1-7 18-28 7-1 28 18 2 7-18 28-7 1zm-18-24l0 0 19 13 13-19-19-13-13 19z" />
        </symbol>
        <symbol id="reception">
            <line class="fil4 str4" x1="5843" y1="5262" x2="6177" y2="5262" />
            <g>
                <path class="fil3" d="M6012 5117c52,0 95,35 108,83l-215 0c12,-48 56,-83 108,-83zm0 -28l0 0c-77,0 -139,62 -139,139l278 0c0,-77 -62,-139 -139,-139z" />
            </g>
            <line class="fil4 str4" x1="6010" y1="5107" x2="6010" y2="5055" />
            <line class="fil4 str4" x1="5968" y1="5051" x2="6052" y2="5051" />
        </symbol>
        <symbol id="storage">
            <line class="fil4 str4" x1="18996" y1="2193" x2="18911" y2="2193" />
            <g>
                <line class="fil4 str4" x1="18838" y1="1885" x2="18838" y2="2124" />
                <g>
                    <polygon class="fil3" points="18924,1964 18882,1964 18882,1925 18924,1925 " />
                </g>
                <g>
                    <polygon class="fil3" points="18924,2094 18882,2094 18882,2056 18924,2056 " />
                </g>
                <path class="fil4 str4" d="M18876 2193c0,21 -17,38 -38,38 -21,0 -38,-17 -38,-38 0,-21 17,-38 38,-38 21,0 38,17 38,38" />
                <polygon class="fil4 str4" points="18968,2066 18838,2066 18838,1936 18968,1936 " />
                <polygon class="fil3" points="18827,2056 18827,2124 18848,2124 18848,2076 18957,2076 18957,2186 18911,2186 18911,2207 18978,2207 18978,2056 " />
            </g>
        </symbol>
        <symbol id="food">
	        <path style="stroke-width:60;" class="fil4 str4" transform="matrix(0.374606,0,0,-0.40266941,5011.1571,4491.9729)" d="m 328.74716,1500.3101 0,-501.15118 q 0,-47.76598 -27.03788,-86.91842 -27.03789,-39.15243 -70.45084,-54.81341 l 0,-609.99499 q 0,-40.71854 -28.94196,-70.47439 -28.94197,-29.75585 -68.54676,-29.75585 l -97.488722,0 q -39.6047896,0 -68.546754,29.75585 -28.941964,29.75585 -28.941964,70.47439 l 0,609.99499 q -43.41295,15.66098 -70.45084,54.81341 -27.03789,39.15244 -27.03789,86.91842 l 0,501.15118 q 0,20.3593 14.47099,35.2372 14.47098,14.8779 34.27338,14.8779 19.802395,0 34.273377,-14.8779 14.470983,-14.8779 14.470983,-35.2372 l 0,-325.7483 q 0,-20.3592 14.470982,-35.2372 14.470982,-14.8779 34.273379,-14.8779 19.8023964,0 34.273379,14.8779 14.470978,14.878 14.470978,35.2372 l 0,325.7483 q 0,20.3593 14.470982,35.2372 14.470982,14.8779 34.273379,14.8779 19.802401,0 34.273381,-14.8779 14.47098,-14.8779 14.47098,-35.2372 l 0,-325.7483 q 0,-20.3592 14.47098,-35.2372 14.47098,-14.8779 34.27338,-14.8779 19.8024,0 34.27338,14.8779 14.47098,14.878 14.47098,35.2372 l 0,325.7483 q 0,20.3593 14.47098,35.2372 14.47099,14.8779 34.27338,14.8779 19.8024,0 34.27338,-14.8779 14.47098,-14.8779 14.47098,-35.2372 z m 584.93234,0 0,-1252.878 q 0,-40.71854 -28.94196,-70.47439 -28.94196,-29.75585 -68.54676,-29.75585 l -97.48872,0 q -39.6048,0 -68.54677,29.75585 -28.94196,29.75585 -28.94196,70.47439 l 0,400.92097 -170.60526,0 q -9.9012,0 -17.13669,7.43896 -7.23549,7.43897 -7.23549,17.6186 l 0,626.43897 q 0,103.3625 71.59328,176.9691 71.59328,73.6065 172.12852,73.6065 l 194.97745,0 q 19.8024,0 34.27338,-14.8779 14.47098,-14.8779 14.47098,-35.2372 z" />/>
        </symbol>
        <symbol id ="shower">
	        <g class="fil3">
		        <path d="M6.8 201.8C7.6 157.9 4.9 113.6 9.1 69.9 20.4 28 64.4-2.5 107.4 5.2c17.1 2 33 9.8 46 21 21.1 8.8 48.8-8.9 65.6 12.3 13.6-3.3 33.1-9.2 35.1 12.3-7.9 19.1-28.7 30-41.1 46.4-22.7 23.2-45.6 46.2-69.3 68.4-16.8-2.7-21.3-22.2-13.7-33.1-10.1-18-16.6-40-7.8-59.9 10.6-26-29.9-28.6-45.5-21-24.4 8.4-29.1 36.4-26.2 59-1 69.7-0.3 139.5-0.5 209.2-14.4 0-28.8 0-43.1 0 0-39.3 0-78.6 0-117.9z"></path><ellipse ry="9.8" rx="9.3" cy="150.1" cx="196.4"></ellipse><ellipse ry="9.8" rx="9.3" cy="125.5" cx="220.3"></ellipse><ellipse ry="9.8" rx="9.3" cy="104.8" cx="247.6"></ellipse><ellipse ry="9.8" rx="9.3" cy="192.4" cx="193"></ellipse><ellipse ry="9.8" rx="9.3" cy="169.8" cx="219.3"></ellipse><ellipse ry="9.8" rx="9.3" cy="145.2" cx="240.8"></ellipse><ellipse ry="9.8" rx="9.3" cy="123.5" cx="266.1"></ellipse><ellipse ry="9.8" rx="9.3" cy="98.9" cx="288.6"></ellipse><ellipse ry="9.8" rx="9.3" cy="99.9" cx="331.5"></ellipse><ellipse ry="9.8" rx="9.3" cy="125.5" cx="304.2"></ellipse><ellipse ry="9.8" rx="9.3" cy="152" cx="284.7"></ellipse><ellipse ry="9.8" rx="9.3" cy="169.8" cx="259.3"></ellipse><ellipse ry="9.8" rx="9.3" cy="195.3" cx="240.8"></ellipse><ellipse ry="9.8" rx="9.3" cy="216" cx="217.4"></ellipse><ellipse ry="9.8" rx="9.3" cy="239.6" cx="193"></ellipse>
	        </g>
	    </symbol>
        <symbol id="stairs15">
            <rect class="fil2" ng-if="selectedRoom.name=='Stairs'" width="2548.8293" height="2483.8081" x="9662.1436" y="3542.5376" ry="52.533298"/>
            <path d="m 10597.186,3540.8007 0,26.5338 0,2229.1698 324.749,0 0,-2255.7036 -324.749,0 z m 52.39,52.9647 219.971,0 0,2149.7742 -219.971,0 0,-2149.7742 z m -1031.5391,130.6059 0,27.2563 0,236.6384 1.0218,0 0,181.1954 -1.0218,0 0,27.1536 0,208.3493 0,27.2565 0,1.1363 0,189.3516 -1.3267,0 0,27.2565 0,236.6382 1.0167,0 0,181.196 -1.0167,0 0,27.2562 0,208.3496 0,27.1529 0,1.1364 0,235.6058 493.6598,0 453.525,0 0,-263.8951 0,-235.6058 0,-222.4942 0,-176.3429 1.429,0 0,-263.998 0,-235.5029 0,-222.5969 0,-222.4932 -453.628,0 -493.6601,0 z m 53.9212,54.5132 385.9209,0 0,154.9717 -385.9209,0 0,-154.9717 z m 453.5249,0 385.92,0 0,154.9717 -385.92,0 0,-154.9717 z m 0,222.4938 385.92,0 0,154.9708 -385.92,0 0,-154.9708 z m -452.5035,0.2038 385.9195,0 0,154.9709 -385.9195,0 0,-154.9709 z m -1.0167,222.2867 385.9202,0 0,154.9715 -385.9202,0 0,-154.9715 z m 453.5252,0 385.92,0 0,154.9715 -385.92,0 0,-154.9715 z m 1719.129,100.0449 0,19.1001 0,1113.1911 324.748,0 0,-1132.2912 -324.748,0 z m 37.887,38.3038 248.973,0 0,1055.684 -248.973,0 0,-1055.684 z m -948.105,57.0949 0,26.4307 0,196.3726 0,26.5344 0,13.4214 0,182.951 0,26.5339 0,13.3185 0,196.1668 0,26.5337 0,0.2038 0,236.0192 467.312,0 427.995,0 0,-262.7594 0,-236.019 0,-222.9069 0,-222.8034 -427.995,0 -467.312,0 z m -1262.4362,40.1626 385.9202,0 0,154.9711 -385.9202,0 0,-154.9711 z m 453.5252,0 385.92,0 0,154.9711 -385.92,0 0,-154.9711 z m 861.3,12.8021 362.534,0 0,156.7268 -362.534,0 0,-156.7268 z m 427.892,0 362.637,0 0,156.7268 -362.637,0 0,-156.7268 z m -1744.0446,204.9423 385.8186,0 0,154.9711 -385.8186,0 0,-154.9711 z m 453.5256,0 385.92,0 0,154.9711 -385.92,0 0,-154.9711 z m 862.627,17.8615 362.534,0 0,156.8289 -362.534,0 0,-156.8289 z m 427.892,0 362.637,0 0,156.8289 -362.637,0 0,-156.8289 z m -1290.519,204.6317 385.92,0 0,154.9714 -385.92,0 0,-154.9714 z m -452.5042,0.2038 385.9202,0 0,154.9715 -385.9202,0 0,-154.9715 z m 1315.1312,18.0677 362.534,0 0,156.83 -362.534,0 0,-156.83 z m 427.892,0 362.637,0 0,156.83 -362.637,0 0,-156.83 z m -1744.0446,204.2194 385.8186,0 0,154.9715 -385.8186,0 0,-154.9715 z m 453.5256,0 385.92,0 0,154.9715 -385.92,0 0,-154.9715 z m 862.627,31.7998 362.534,0 0,156.8294 -362.534,0 0,-156.8294 z m 427.892,0 362.637,0 0,156.8294 -362.637,0 0,-156.8294 z m -1744.0446,203.806 385.8186,0 0,154.9715 -385.8186,0 0,-154.9715 z m 453.5256,0 385.92,0 0,154.9715 -385.92,0 0,-154.9715 z"/>
        </symbol>
    </defs>

</svg>