<svg xmlns="http://www.w3.org/2000/svg" xmlns:xlink="http://www.w3.org/1999/xlink" height="160" width="280" version="1" viewBox="0 0 436 127">
    <defs>
        <clipPath id="a">
            <use xlink:href="#d" height="100" width="100" y="0" x="0" overflow="visible" />
        </clipPath>
    </defs>
    <g transform="translate(1065 201.11)">
        <switch transform="matrix(.30896 0 0 .41362 -1367.5 420.04)">
            <g transform="translate(-6.6123,-474.43)">
                <g fill="none">
                    <g stroke-linejoin="round" stroke-miterlimit="4">
                        <g stroke="#dfb125">
                            <line x2="1380" y1="-898" x1="1380" y2="-843" />
                            <line x2="1392" y1="-898" x1="1384" y2="-843" />
                            <line x2="1404" y1="-898" x1="1389" y2="-843" />
                            <line x2="1368" y1="-898" x1="1376" y2="-843" />
                            <line x2="1357" y1="-898" x1="1372" y2="-843" />
                        </g>
                        <polyline transform="translate(962.86,-1051.4)" stroke="#0e6a44" points="300 233 282 233 282 226 274 226 260 226 260 233 242 233 242 226 234 226 219 226 219 233 201 233 201 226 193 226 179 226 179 233 168 233 168 226 160 226 146 226 146 233 128 233 128 226 120 226 105 226 105 233 87 233 87 226 79 226 65 226 65 233 47 233 47 226 39 226 24 226 24 233" stroke-width="2" />
                        <line stroke-width="2" x1="986" y1="-806" stroke="#0e6a44" x2="1257" y2="-806" />
                        <g stroke="#0e6a44" stroke-width="2">
                            <line x2="1182" y1="-739" x1="1207" y2="-739" />
                            <path d="m1904-806h492m-784 0h293m-586 0h293m784-19M2396-825 2396-825" />
                            <path d="m2396-825h-8v7h-18v-7h-15-8v7h-19v-7h-15-8v7h-18v-7h-15-8v7h-18v-7h-14-8v7h-28m-293 0h27v-7h8 15v7h18v-7h8 15v7h18v-7h8 15v7h19v-7h8 15v7h18v-7h8 15v7h18v-7h8 15v7h18v-7h8 15v7m-577 0h18v-7h8 15v7h18v-7h8 15v7h18v-7h8 15v7h19v-7h8 15v7h18v-7h8 15v7h18v-7h8 15v7h18v-7h8 15v7m-578 0h18v-7h8 15v7h18v-7h8 15v7h18v-7h8 15v7h19v-7h8 15v7h18v-7h8 15v7h18v-7h8 15v7h18v-7h8 15v7" />
                            <path d="m2396-806" stroke-dashoffset="0" />
                        </g>
                        <g transform="translate(962.86,-1051.4)">
                            <g stroke-dashoffset="0">
                                <path d="m328 55c-6 0-12 0-17 1m-28 21M283 77 283 77" stroke="#0e6a44" stroke-dasharray="17" stroke-width="2" />
                                <path d="m283 77c20-2 114-9 114-9 5 0 7-3 7-7s-3-7-7-7c0 0-24 1-49 2" stroke="#0e6a44" stroke-dasharray="186" stroke-width="2" />
                                <path d="m256 330c0-4 3-7 7-7h15c4 0 7 3 7 7" stroke="#dfb125" stroke-dasharray="37" />
                                <path d="m337 330c0-4 3-7 7-7h15c4 0 7 3 7 7" stroke="#dfb125" stroke-dasharray="37" />
                            </g>
                            <g stroke-width="2" stroke="#0e6a44">
                                <path d="m381 330h-139c-3 0-4-2-3-4l10-23c1-2 4-4 7-4h112c3 0 6 2 7 4l10 23c1 2 0 4-3 4z" stroke-dashoffset="1" stroke-dasharray="332" />
                                <polyline points="325 268 348 268 348 289 340 298" />
                                <path d="m325 268 -25 0M300 268 300 268" stroke-dashoffset="0" />
                                <path d="m300 268" stroke-dashoffset="0" />
                                <polyline points="263 298 263 284 286 268 300 268" />
                                <circle cx="354" cy="198" r="10" />
                            </g>
                            <circle stroke="#dfb125" cy="198" cx="354" r="5" />
                            <g stroke-width="2" stroke="#0e6a44">
                                <polyline points="440 38 436 61 430 67" />
                                <polyline points="407 63 420 52 428 34" />
                                <line x2="314" y1="37" x1="428" y2="61" />
                                <line x2="428" y1="58" x1="314" y2="33" />
                                <g stroke-dashoffset="0">
                                    <path d="m328 262c1 0 2 0 3-1l1 0c4-2 9-6 11-10l28-45c5-8 2-17-5-22-2-1-4-2-6-3-5-1-11-2-17-2-4 0-13-1-15 3-1 2-1 5 2 7 1 0 1 1 2 1l5 2-25 41c-2 4-4 10-4 15v1c0 1 0 2 0 3m35 18M343 267 343 267" stroke-dasharray="219" />
                                    <path d="m343 267c12-19 35-57 35-57 7-12 3-26-7-34-3-2-6-4-9-5-1 0-2 0-3-1" stroke-dasharray="118" />
                                    <path d="m322 198-26 42c-3 6-6 16-6 22v1c0 2 0 3 1 5" stroke-dasharray="78" />
                                    <path d="m322 272c-3 6-11 7-16 4s-7-11-4-16l11-18c4-6 11-7 17-4s7 11 4 17l-11 18z" stroke-dasharray="118" />
                                </g>
                            </g>
                            <circle stroke="#dfb125" cy="248" cx="323" r="6" />
                            <g stroke-width="2" stroke="#0e6a44">
                                <g stroke-dashoffset="0">
                                    <path d="m276 84c14 9 33 25 33 25s10 9 13 14l47 65m-41 15-37-23M329 202l-37-23M329 202l-37-23" stroke-dasharray="141" />
                                    <path d="m329 202-37-23c-4-4-9-10-10-15 0 0-27-69-27-70-2-5-1-9 2-12" stroke-dasharray="150" />
                                    <path d="m256 82c1 1 2 2 3 3m13 2c3-2 5-5 7-7 3-3 6-7 10-9 4-3 9-3 14-2 4 0 10 0 11-5 1-3-1-6-4-8 0 0-1 0-1 0l-1 0c-11-2-55-8-61-9-6-1-9 6-7 10 3 4 10 18 16 26m22-15c-2 1-9 5-10 6s-4 0-5-1-3-4-5-7c-2-3 0-5 3-5s12 2 17 3c4 1 2 4 0 5z" stroke-dasharray="234" />
                                </g>
                                <circle cx="265" cy="89" r="7" />
                            </g>
                            <g stroke="#dfb125">
                                <circle cx="265" cy="89" r="3" />
                                <circle cx="307" cy="61" r="3" />
                                <circle cx="397" cy="60" r="3" />
                            </g>
                            <g stroke-width="2" stroke="#0e6a44">
                                <polyline points="393 68 405 82 405 90 430 90 430 60 415 60 415 63 407 63 404 59" />
                                <path d="m428 33c0 1 0 1 0 2m0 0M428 34 428 34" stroke-dashoffset="0" stroke-dasharray="2" />
                                <path d="m428 34c1 3 4 5 7 5 4 0 7-3 7-7s-3-7-7-7-7 3-7 7" stroke-dashoffset="0" stroke-dasharray="44" />
                            </g>
                            <circle stroke="#dfb125" cy="33" cx="436" r="3" />
                            <polygon stroke-width="2" points="404 142 395 97 440 97 431 142" stroke="#0e6a44" />
                            <rect height="8" width="16" stroke="#0e6a44" y="90" x="409" stroke-width="2" />
                            <g stroke="#dfb125">
                                <circle cx="403" cy="104" r="3" />
                                <circle cx="431" cy="104" r="3" />
                            </g>
                            <g stroke-width="2" stroke="#0e6a44">
                                <path d="m124 74c16 0 39 4 39 20 0 11-13 20-29 20m295-38M430 76 430 76" stroke-dashoffset="0" stroke-dasharray="87" display="none" />
                                <path d="m430 76c15 0 38 3 38 18 0 10-11 18-26 18" stroke-dashoffset="0" stroke-dasharray="81" />
                                <polyline points="438 105 440 105 440 121 435 121" />
                            </g>
                        </g>
                        <line x1="1620" y1="-818" stroke="#0e6a44" stroke-linecap="round" x2="1612" y2="-818" stroke-width="2" />
                    </g>
                    <use xlink:href="#b" transform="translate(1115.6 .067522)" height="100" width="100" y="0" x="0" />
                    <g id="b" transform="translate(-7.6129,-238.18)">
                        <line y2="257" transform="translate(971.13,-813.36)" y1="257" stroke="#dfb125" stroke-miterlimit="10" x2="61" x1="37" />
                        <line y2="265" transform="translate(971.13,-813.36)" y1="265" stroke="#dfb125" stroke-miterlimit="10" x2="61" x1="37" />
                        <line y2="273" transform="translate(971.13,-813.36)" y1="273" stroke="#dfb125" stroke-miterlimit="10" x2="61" x1="37" />
                        <line y2="281" transform="translate(971.13,-813.36)" y1="281" stroke="#dfb125" stroke-miterlimit="10" x2="61" x1="37" />
                        <line y2="258" transform="translate(971.13,-813.36)" y1="258" stroke="#dfb125" stroke-miterlimit="10" x2="191" x1="167" />
                        <line y2="266" transform="translate(971.13,-813.36)" y1="266" stroke="#dfb125" stroke-miterlimit="10" x2="191" x1="167" />
                        <line y2="274" transform="translate(971.13,-813.36)" y1="274" stroke="#dfb125" stroke-miterlimit="10" x2="191" x1="167" />
                        <line y2="282" transform="translate(971.13,-813.36)" y1="282" stroke="#dfb125" stroke-miterlimit="10" x2="191" x1="167" />
                        <rect transform="translate(971.13,-813.36)" height="23" width="12" stroke="#dfb125" stroke-miterlimit="10" y="257" x="102" />
                        <polyline stroke-linejoin="round" transform="translate(971.13,-813.36)" stroke="#0e6a44" points="89 246 89 313 24 313 24 246" stroke-miterlimit="4" stroke-width="2" />
                        <polyline stroke-linejoin="round" transform="translate(971.13,-813.36)" stroke="#0e6a44" points="154 246 154 313 89 313" stroke-miterlimit="4" stroke-width="2" />
                        <polyline stroke-linejoin="round" transform="translate(971.13,-813.36)" stroke="#0e6a44" points="219 246 219 313 154 313" stroke-miterlimit="4" stroke-width="2" />
                    </g>
                </g>
                <g transform="translate(962.86,-1051.4)">
                    <clipPath>
                        <use xlink:href="#d" height="100" width="100" y="0" x="0" overflow="visible" />
                    </clipPath>
                    <g stroke-linejoin="round" clip-path="url(#a)" stroke="#0e6a44" stroke-miterlimit="4" stroke-width="2" fill="none">
                        <rect y="172" x="24" width="53" height="53" />
                        <rect y="172" x="24" width="53" height="53" />
                        <rect y="172" x="24" width="53" height="53" />
                        <rect y="172" x="24" width="53" height="53" />
                    </g>
                </g>
                <use xlink:href="#leg" transform="translate(980,-1050)" height="100" width="100" y="0" x="0" />
                <use xlink:href="#leg" transform="translate(1180,-1050)" height="100" width="100" y="0" x="0" />
                <use xlink:href="#leg" transform="translate(1380,-1050)" height="100" width="100" y="0" x="0" />
                <use xlink:href="#leg" transform="translate(1580,-1050)" height="100" width="100" y="0" x="0" />
                <use xlink:href="#leg" transform="translate(1930,-1050)" height="100" width="100" y="0" x="0" />
            </g>
        </switch>
    </g>
</svg>
