<svg xmlns="http://www.w3.org/2000/svg" viewBox="0 -200 1130 320" class="mobile-hide to-animate to-show" style="opacity: 1;">
    <g fill="none" stroke-miterlimit="10">
        <path stroke="#015A6C" stroke-width="2" stroke-linecap="round" stroke-linejoin="bevel" d="M11.57 3.073h6.586v120.244H11.57zM14.862 24.57M14.862 24.57" style="stroke-dasharray: 253.66px, 253.66px; stroke-dashoffset: 0px;"></path>
        <path stroke="#DFB125" d="M62.13 13.073h947.6M33.784 28.097H1041.73" style="stroke-dasharray: 1955.55px, 1955.55px; stroke-dashoffset: 6px;"></path>
        <path stroke="#015A6C" stroke-width="2" stroke-linecap="round" stroke-linejoin="bevel" d="M15.13 28.073h18l15-15h16M47.63 13.073h-32.5" style="stroke-dasharray: 87.7132px, 87.7132px; stroke-dashoffset: 0px;"></path>
        <path stroke="#015A6C" stroke-width="2" stroke-linecap="round" stroke-linejoin="bevel" d="M1055.34 3.073h6.586v120.244h-6.587zM1058.633 24.57M1058.633 24.57M1058.364 28.073h-18l-15-15h-16M1025.864 13.073h32.5" style="stroke-dasharray: 341.374px, 341.374px; stroke-dashoffset: 1px;"></path>
    </g>
    <g id="industry-train" fill="none" stroke-miterlimit="10">
        <path stroke="#015A6C" stroke-width="2" stroke-linecap="round" stroke-linejoin="bevel" d="M272.047 64.8c0 18.624-26.735 33.693-53.82 33.693M806.134 64.597c0 19.02 21.35 34.41 48.433 34.41" style="stroke-dasharray: 134.858px, 134.858px; stroke-dashoffset: 0px;"></path>
        <path stroke="#015A6C" stroke-width="2" stroke-linejoin="bevel" d="M374.2 113.19V63.962M703.018 113.19V63.962M538.61 113.19V63.962M703.018 50.194" style="stroke-dasharray: 147.684px, 147.684px; stroke-dashoffset: 0px;"></path>
        <path stroke="#015A6C" stroke-linejoin="bevel" d="M329.58 79.206h26.667v19.117H329.58z" style="stroke-dasharray: 91.568px, 91.568px; stroke-dashoffset: 0px;"></path>
        <g stroke="#015A6C" stroke-linejoin="bevel">
            <path d="M391.388 79.206h26.667v19.117h-26.667zM493.435 79.206h26.667v19.117h-26.667z" style="stroke-dasharray: 183.136px, 183.136px; stroke-dashoffset: 0px;"></path>
        </g>
        <path stroke="#015A6C" stroke-linejoin="bevel" d="M720.76 79.206h26.668v19.117H720.76z" style="stroke-dasharray: 91.5699px, 91.5699px; stroke-dashoffset: 0px;"></path>
        <g stroke="#DFB125">
            <path d="M430.042 79.206h52.5M430.042 85.58h52.5M430.042 91.95h52.5M430.042 98.323h52.5" style="stroke-dasharray: 210px, 210px; stroke-dashoffset: 0px;"></path>
        </g>
        <g stroke="#015A6C" stroke-linejoin="bevel">
            <path d="M556.345 79.206h26.667v19.117h-26.667zM658.392 79.206h26.667v19.117H658.39z" style="stroke-dasharray: 183.138px, 183.138px; stroke-dashoffset: 0px;"></path>
        </g>
        <g stroke="#DFB125">
            <path d="M594.452 79.206h52.5M594.452 85.58h52.5M594.452 91.95h52.5M594.452 98.323h52.5" style="stroke-dasharray: 210px, 210px; stroke-dashoffset: 0px;"></path>
        </g>
        <g stroke="#DFB125">
            <path d="M285.475 79.206h32.658M279.806 85.58h38.327M272.436 91.95h45.697M265.633 98.323h52.5" style="stroke-dasharray: 169.182px, 169.182px; stroke-dashoffset: 0px;"></path>
        </g>
        <g stroke="#DFB125">
            <path d="M791.52 79.206h-32.66M797.188 85.58H758.86M804.558 91.95H758.86M811.36 98.323h-52.5" style="stroke-dasharray: 169.186px, 169.186px; stroke-dashoffset: 0px;"></path>
        </g>
        <path stroke="#015A6C" stroke-width="2" stroke-linejoin="bevel" d="M252.98 114.565c0 3.83-3.105 6.938-6.937 6.938-3.83 0-6.938-3.106-6.938-6.938M271.052 114.565c0 3.83-3.106 6.938-6.938 6.938s-6.938-3.106-6.938-6.938M332.35 114.565c0 3.83-3.105 6.938-6.937 6.938s-6.938-3.106-6.938-6.938M350.422 114.565c0 3.83-3.106 6.938-6.938 6.938s-6.938-3.106-6.938-6.938M740.54 114.565c0 3.83-3.106 6.938-6.938 6.938s-6.938-3.106-6.938-6.938M758.61 114.565c0 3.83-3.105 6.938-6.937 6.938s-6.938-3.106-6.938-6.938M819.91 114.565c0 3.83-3.106 6.938-6.938 6.938s-6.938-3.106-6.938-6.938M837.98 114.565c0 3.83-3.105 6.938-6.937 6.938s-6.938-3.106-6.938-6.938" style="stroke-dasharray: 174.392px, 174.392px; stroke-dashoffset: 0px;"></path>
        <g stroke="#015A6C" stroke-width="2" stroke-linejoin="bevel">
            <path d="M410.587 114.565c0 3.83-3.106 6.938-6.938 6.938s-6.94-3.106-6.94-6.938M428.658 114.565c0 3.83-3.106 6.938-6.938 6.938-3.83 0-6.938-3.106-6.938-6.938" style="stroke-dasharray: 43.5995px, 43.5995px; stroke-dashoffset: 0px;"></path>
        </g>
        <g stroke="#015A6C" stroke-width="2" stroke-linejoin="bevel">
            <path d="M497.254 114.565c0 3.83-3.106 6.938-6.938 6.938s-6.938-3.106-6.938-6.938M515.325 114.565c0 3.83-3.106 6.938-6.938 6.938s-6.938-3.106-6.938-6.938" style="stroke-dasharray: 43.5986px, 43.5986px; stroke-dashoffset: 0px;"></path>
        </g>
        <g stroke="#015A6C" stroke-width="2" stroke-linejoin="bevel">
            <path d="M576.414 114.565c0 3.83-3.106 6.938-6.938 6.938s-6.938-3.106-6.938-6.938M594.485 114.565c0 3.83-3.106 6.938-6.938 6.938s-6.938-3.106-6.938-6.938" style="stroke-dasharray: 43.5986px, 43.5986px; stroke-dashoffset: 0px;"></path>
        </g>
        <g stroke="#015A6C" stroke-width="2" stroke-linejoin="bevel">
            <path d="M663.08 114.565c0 3.83-3.105 6.938-6.937 6.938s-6.938-3.106-6.938-6.938M681.152 114.565c0 3.83-3.106 6.938-6.938 6.938s-6.938-3.106-6.938-6.938" style="stroke-dasharray: 43.5981px, 43.5981px; stroke-dashoffset: 0px;"></path>
        </g>
        <path fill-rule="evenodd" clip-rule="evenodd" stroke="#015A6C" stroke-width="2" stroke-linejoin="bevel" d="M216.094 113.496c-5.522 0 2.5-16.233 5.555-20.452 3.783-5.225 8.103-10.064 13.172-14.067 10.174-8.034 24.806-14.943 37.965-14.943h527.92c13.16 0 27.792 6.91 37.966 14.943 5.07 4.003 9.39 8.843 13.173 14.067 3.055 4.22 11.077 20.452 5.555 20.452H216.095z" style="stroke-dasharray: 1337.26px, 1337.26px; stroke-dashoffset: 4px;"></path>
        <path stroke="#015A6C" stroke-width="2" stroke-linecap="round" stroke-linejoin="bevel" d="M396.66 63.586l22.245-13.967L396.66 36.3M390.48 35.968h14M728.314 63.586L750.56 49.62 728.313 36.3M722.134 35.968h14M514.772 63.586L492.528 49.62l22.244-13.32M520.952 35.968h-14M562.487 63.586l22.245-13.967-22.245-13.32M556.307 35.968h14M680.6 63.586L658.353 49.62 680.6 36.3M686.78 35.968h-14M350.93 63.586L328.685 49.62 350.93 36.3M357.11 35.968h-14" style="stroke-dasharray: 397.167px, 397.167px; stroke-dashoffset: 1px;"></path>
        <path fill="none" stroke="#015A6C" stroke-linejoin="bevel" stroke-miterlimit="10" d="M329.63 85.984h25.75M391.993 85.984h25.75M494.04 85.984h25.75M556.402 85.984h25.75M658.45 85.984h25.75M721.095 85.984h25.75" style="stroke-dasharray: 154.5px, 154.5px; stroke-dashoffset: 0px;"></path>
    </g>
    <path fill="none" stroke="#DFB125" stroke-miterlimit="10" d="M65.88 13.3l36.268 14.003L138.415 13.3l36.27 14.003L210.948 13.3l36.268 14.003L283.483 13.3l36.264 14.003L356.012 13.3l36.265 14.003L428.544 13.3l36.27 14.003L501.083 13.3l36.27 14.003L573.62 13.3l36.268 14.003 36.27-14.003 36.27 14.003L718.7 13.3l36.267 14.003L791.234 13.3l36.272 14.003L863.778 13.3l36.274 14.003L936.325 13.3l36.278 14.003L1008.88 13.3" style="stroke-dasharray: 1010.84px, 1010.84px; stroke-dashoffset: 3px;"></path>

    <path fill-rule="evenodd" clip-rule="evenodd" fill="none" stroke="#015A6C" stroke-width="2" stroke-linejoin="bevel" stroke-miterlimit="10" d="M989.07 123.317" style="stroke-dasharray: 0px, 0px; stroke-dashoffset: 0px;"></path>
</svg>