<?xml version="1.0" encoding="UTF-8" ?>
<svg xmlns="http://www.w3.org/2000/svg" xmlns:xlink="http://www.w3.org/1999/xlink" version="1.1" clip-rule="evenodd" viewBox="0 -409.904 497.994 468.613">
    <defs>
        <symbol id="star">
            <path transform="scale(0.7)" d="M 46.296296,51.906272 31.916351,42.474649 17.502712,51.8547 22.029072,35.264028 8.654054,24.454438 25.831443,23.632463 31.978866,7.5717174 l 6.08985,16.0826626 17.174335,0.883504 -13.413655,10.761608 4.4669,16.60678 z" />
        </symbol>
    </defs>
    <style type="text/css">
        .location, .location_selected {
            fill: #ff000f;
            stroke: red;
        }

        .location_selected {            
            animation-name: red-black;
            animation-duration: 2s;
            animation-iteration-count: infinite;
        }

        @keyframes red-black {
            0% {
                fill: white;
            }

            100% {
                fill: red;
            }
        }
    </style>
    <g fill="none" stroke="#BC5027" stroke-miterlimit="10">
        <path stroke-width="2" d="M237.502-389.67l3-10-36-4-83 23.5-14 19.5-94 27 1 69-12 5v10l21 22 3 81 14 12-17 42 12 3 12-9 59 30-10 17 25 24 18.667-12 48.332 20 48 51 21-11 28 27 70-23 82 31-13-39 43-61 24-12 4-39-34-42 4-50-28-17 39-38-30-109-30-19-140-1-25 15-38-7-8-27z" style="stroke-dasharray: 1828.1px, 1828.1px; stroke-dashoffset: 6px;" />
        <path d="M121.502-380.17l15 66.5-43 49-71 36M39.502-132.67l66-30-12-102M140.17-39.67l23.332-68 20 3M251.502-356.67l-8 51-52-11-32 20-23-17 33 84 82 27-40 39-28 59-24-47-54-11M243.502-305.67l32 39 87-26 49-33 5-45M362.502-292.67l75 88-63 47 10 65 34 46 49 2M275.502-266.67M309.502-124.67l-36 40-90-20M273.502-84.67l10 29 33 25 29-14 39-48-75-32 5-33-63-45 24-64M224.502-95.537l-36 75.866M283.502-55.67l-44 41 18 35M345.502-44.67l10 69" style="stroke-dasharray: 2494.89px, 2494.89px; stroke-dashoffset: 8px;" />
    </g>
    <g transform="translate(10,-240)">
        <use id="warszawa" ng-class="(selectedLocation.idx==0)?'location_selected':'location'" transform="translate(322.09624,29.840578)" xlink:href="#star" />
        <use id="lodz" ng-class="(selectedLocation.idx==1)?'location_selected':'location'" transform="translate(248.45633,88.752515)" xlink:href="#star" />
        <use id="aleksandrow" ng-class="(selectedLocation.idx==2)?'location_selected':'location'" transform="translate(216.32254,67.329993)" xlink:href="#star" />
        <use id="przasnysz" ng-class="(selectedLocation.idx==3)?'location_selected':'location'" transform="translate(300.67372,-30.410267)" xlink:href="#star" />
        <use id="idsc" ng-class="(selectedLocation.idx==4)?'location_selected':'location'" transform="translate(276.33354,212.26541)" xlink:href="#star" />
        <use id="crc" ng-class="(selectedLocation.idx==5)?'location_selected':'location'" transform="translate(255.77851,200.15387)" xlink:href="#star" />
        <use id="wroclaw" ng-class="(selectedLocation.idx==6)?'location_selected':'location'" transform="translate(102.51538,119.54739)" xlink:href="#star" />
        <use id="nowawies" ng-class="(selectedLocation.idx==7)?'location_selected':'location'" transform="translate(149.37716,-141.5396)" xlink:href="#star" />
    </g>
</svg>