<svg xmlns="http://www.w3.org/2000/svg" width="290" height="120" viewBox="0 0 1153.442 475.076" id="section-6-svg-8" class="mobile-hide to-animate to-show" style="opacity: 1;">
    <g fill="none" stroke="#DFB125" stroke-miterlimit="10">
        <path d="M239.526 350.09h105.27v73.435h-105.27zM292.16 350.09v73.435" style="stroke-dasharray: 430.845px, 430.845px; stroke-dashoffset: 1px;"></path>
    </g>
    <path fill="none" stroke="#015A6C" stroke-width="2" stroke-linejoin="bevel" stroke-miterlimit="10" d="M334.707 211.95l-42.437-44.175L116.913 350.09h47.242v116.063l256.23.078V350.09h47.023l-33.387-34.755" style="stroke-dasharray: 945.109px, 945.109px; stroke-dashoffset: 3px;"></path>
    <path id="industry-sun" fill="none" stroke="#DFB125" stroke-miterlimit="10" d="M208.87 109.456h-42.386c-.572-6.003-2.147-11.71-4.544-16.964L198.647 71.3c2.444-1.412 3.28-4.537 1.87-6.98-1.41-2.445-4.536-3.282-6.98-1.87l-36.715 21.196c-3.426-4.792-7.623-8.99-12.416-12.416l21.197-36.715c1.41-2.444.574-5.57-1.87-6.98-2.444-1.41-5.57-.574-6.98 1.87L135.56 66.113c-5.254-2.398-10.96-3.973-16.964-4.544V19.18c0-2.82-2.288-5.11-5.11-5.11s-5.11 2.29-5.11 5.11V61.57c-6.003.572-11.71 2.147-16.964 4.544L70.22 29.405c-1.412-2.444-4.537-3.28-6.98-1.87-2.445 1.41-3.282 4.536-1.87 6.98L82.565 71.23c-4.792 3.426-8.99 7.623-12.416 12.416L33.435 62.448c-2.444-1.41-5.57-.574-6.98 1.87-1.41 2.444-.574 5.57 1.87 6.98L65.032 92.49c-2.398 5.255-3.973 10.962-4.544 16.965H18.1c-2.82 0-5.11 2.288-5.11 5.11 0 2.822 2.29 5.11 5.11 5.11H60.49c.572 6.003 2.147 11.71 4.544 16.964L28.325 157.83c-2.444 1.41-3.28 4.536-1.87 6.98 1.41 2.444 4.536 3.28 6.98 1.87l36.715-21.197c3.426 4.792 7.623 8.99 12.416 12.416L61.37 194.617c-1.412 2.444-.575 5.57 1.87 6.98 2.443 1.41 5.568.574 6.98-1.87L91.41 163.02c5.254 2.397 10.96 3.972 16.964 4.543v42.387c0 2.822 2.288 5.11 5.11 5.11s5.11-2.288 5.11-5.11v-42.387c6.003-.572 11.71-2.147 16.964-4.544l21.193 36.706c1.41 2.444 4.536 3.28 6.98 1.87 2.444-1.41 3.28-4.536 1.87-6.98L144.406 157.9c4.792-3.425 8.99-7.622 12.416-12.415l36.715 21.197c2.444 1.41 5.57.574 6.98-1.87 1.41-2.444.574-5.57-1.87-6.98L161.94 136.64c2.398-5.254 3.973-10.96 4.544-16.964h42.387c2.823 0 5.11-2.288 5.11-5.11 0-2.822-2.287-5.11-5.11-5.11z" style="stroke-dasharray: 1421.71px, 1421.71px; stroke-dashoffset: 4px;"></path>
    <g fill="none" stroke-miterlimit="10">
        <path stroke="#015A6C" stroke-width="2" stroke-linejoin="bevel" d="M459.446 303.314c1.758 6.526-3.205 11.815-11.087 11.815H303.367c-7.882 0-12.845-5.29-11.087-11.816 7.07-26.234 14.138-52.468 21.206-78.702 1.758-6.526 7.542-11.815 12.92-11.815h98.916c5.377 0 11.16 5.29 12.92 11.815l21.204 78.702z" style="stroke-dasharray: 482.331px, 482.331px; stroke-dashoffset: 1px;"></path>
        <g stroke="#DFB125">
            <path id="sun-battery-1-1" d="M352.623 243.056c-.162 1.74-1.63 3.15-3.282 3.15h-31.98c-1.65 0-2.646-1.41-2.224-3.15l4.866-20.027c.422-1.74 1.964-3.15 3.443-3.15H352.1c1.48 0 2.547 1.41 2.386 3.15l-1.863 20.026zM394.94 243.056c.133 1.74-1.098 3.15-2.75 3.15H360.21c-1.65 0-2.885-1.41-2.757-3.15l1.476-20.027c.128-1.74 1.43-3.15 2.91-3.15h28.656c1.48 0 2.786 1.41 2.92 3.15.61 8.01.917 12.015 1.528 20.026zM436.812 243.056c.424 1.74-.57 3.15-2.22 3.15H402.61c-1.65 0-3.12-1.41-3.285-3.15l-1.88-20.027c-.163-1.74.904-3.15 2.383-3.15h28.655c1.48 0 3.022 1.41 3.446 3.15l4.882 20.026z" style="stroke-dasharray: 360.23px, 360.23px; stroke-dashoffset: 1px;"></path>
        </g>
        <g stroke="#DFB125">
            <path id="sun-battery-1-2" d="M349.744 274.016c-.162 1.74-1.795 3.15-3.648 3.15h-35.893c-1.853 0-3.012-1.41-2.59-3.15l4.867-20.028c.423-1.74 2.128-3.15 3.81-3.15h32.565c1.68 0 2.913 1.41 2.75 3.15l-1.86 20.028zM397.303 274.016c.133 1.74-1.262 3.15-3.115 3.15h-35.895c-1.853 0-3.25-1.41-3.123-3.15l1.475-20.028c.128-1.74 1.595-3.15 3.276-3.15h32.57c1.68 0 3.15 1.41 3.283 3.15.613 8.01.92 12.017 1.53 20.028zM444.362 274.016c.424 1.74-.734 3.15-2.587 3.15h-35.893c-1.853 0-3.487-1.41-3.65-3.15l-1.88-20.028c-.163-1.74 1.067-3.15 2.748-3.15h32.566c1.68 0 3.387 1.41 3.81 3.15l4.886 20.028z" style="stroke-dasharray: 387.103px, 387.103px; stroke-dashoffset: 1px;"></path>
        </g>
        <g stroke="#DFB125">
            <path id="sun-battery-1-3" d="M346.866 304.975c-.162 1.74-1.958 3.15-4.013 3.15h-39.805c-2.055 0-3.378-1.41-2.955-3.15l4.866-20.027c.422-1.74 2.29-3.15 4.173-3.15h36.478c1.884 0 3.28 1.41 3.118 3.15l-1.862 20.027zM399.666 304.975c.133 1.74-1.425 3.15-3.48 3.15H356.38c-2.056 0-3.618-1.41-3.49-3.15l1.475-20.027c.128-1.74 1.758-3.15 3.642-3.15h36.48c1.883 0 3.517 1.41 3.65 3.15l1.53 20.027zM451.91 304.975c.424 1.74-.898 3.15-2.952 3.15h-39.805c-2.055 0-3.853-1.41-4.016-3.15l-1.88-20.027c-.163-1.74 1.23-3.15 3.114-3.15h36.48c1.882 0 3.752 1.41 4.176 3.15l4.884 20.027z" style="stroke-dasharray: 414.065px, 414.065px; stroke-dashoffset: 1px;"></path>
        </g>
    </g>
    <g fill="none" stroke-miterlimit="10">
        <path stroke="#015A6C" stroke-width="2" stroke-linejoin="bevel" d="M623.9 396.566c-1.43 5.314 2.618 9.622 9.04 9.622h118.132c6.42 0 10.47-4.308 9.04-9.622-5.74-21.365-11.482-42.73-17.224-64.094-1.428-5.314-6.142-9.622-10.53-9.622h-80.705c-4.387 0-9.1 4.308-10.53 9.622-5.74 21.364-11.482 42.73-17.224 64.094z" style="stroke-dasharray: 393.011px, 393.011px; stroke-dashoffset: 1px;"></path>
        <g stroke="#DFB125">
            <path id="sun-battery-2-1" d="M710.958 347.492c.13 1.416 1.33 2.564 2.675 2.564h26.078c1.347 0 2.16-1.148 1.817-2.564l-3.952-16.31c-.343-1.416-1.6-2.564-2.806-2.564h-23.377c-1.207 0-2.078 1.148-1.947 2.564l1.512 16.31zM676.45 347.492c-.108 1.416.896 2.564 2.242 2.564h26.08c1.345 0 2.352-1.148 2.248-2.564-.48-6.524-.72-9.786-1.198-16.31-.104-1.416-1.167-2.564-2.373-2.564H680.07c-1.207 0-2.272 1.148-2.38 2.564l-1.242 16.31zM642.304 347.492c-.344 1.416.467 2.564 1.813 2.564h26.078c1.346 0 2.545-1.148 2.677-2.564l1.527-16.31c.132-1.416-.74-2.564-1.946-2.564h-23.376c-1.207 0-2.464 1.148-2.808 2.564-1.585 6.524-2.38 9.786-3.966 16.31z" style="stroke-dasharray: 293.603px, 293.603px; stroke-dashoffset: 0px;"></path>
        </g>
        <g stroke="#DFB125">
            <path id="sun-battery-2-2" d="M713.296 372.706c.13 1.416 1.462 2.564 2.972 2.564h29.256c1.51 0 2.456-1.148 2.113-2.564-1.58-6.524-2.372-9.787-3.953-16.31-.343-1.417-1.732-2.565-3.103-2.565h-26.553c-1.37 0-2.375 1.15-2.244 2.565l1.513 16.31zM674.53 372.706c-.108 1.416 1.03 2.564 2.54 2.564h29.256c1.51 0 2.65-1.148 2.546-2.564-.48-6.524-.72-9.787-1.198-16.31-.104-1.417-1.3-2.565-2.67-2.565H678.45c-1.372 0-2.57 1.15-2.678 2.565l-1.242 16.31zM636.172 372.706c-.344 1.416.6 2.564 2.11 2.564h29.256c1.51 0 2.842-1.148 2.974-2.564l1.527-16.31c.132-1.417-.872-2.565-2.243-2.565h-26.554c-1.37 0-2.76 1.15-3.105 2.565l-3.966 16.31z" style="stroke-dasharray: 315.427px, 315.427px; stroke-dashoffset: 1px;"></path>
        </g>
        <g stroke="#DFB125">
            <path id="sun-battery-2-3" d="M715.634 397.918c.13 1.416 1.595 2.564 3.27 2.564h32.432c1.674 0 2.753-1.148 2.41-2.564-1.58-6.524-2.37-9.786-3.952-16.31-.343-1.416-1.865-2.564-3.4-2.564h-29.73c-1.536 0-2.673 1.148-2.542 2.564l1.512 16.31zM672.61 397.918c-.107 1.416 1.163 2.564 2.837 2.564h32.435c1.674 0 2.947-1.148 2.843-2.564-.48-6.524-.72-9.786-1.198-16.31-.104-1.416-1.433-2.564-2.967-2.564h-29.733c-1.535 0-2.866 1.148-2.974 2.564l-1.242 16.31zM630.04 397.918c-.344 1.416.733 2.564 2.407 2.564h32.433c1.674 0 3.14-1.148 3.27-2.564l1.528-16.31c.133-1.416-1.004-2.564-2.54-2.564h-29.73c-1.535 0-3.058 1.148-3.402 2.564l-3.966 16.31z" style="stroke-dasharray: 337.326px, 337.326px; stroke-dashoffset: 1px;"></path>
        </g>
    </g>
    <path fill="none" stroke="#015A6C" stroke-width="2" stroke-linejoin="bevel" stroke-miterlimit="10" d="M707.333 406.554l12.388 32.232h141.855M676.68 406.554l-12.292 32.232-161.43.014c-.454-1.97-1.404-3.792-2.842-5.26-2.037-2.08-4.742-3.225-7.62-3.225h-2.584c-1.173-2.43-2.716-4.686-4.644-6.657-4.62-4.718-10.758-7.318-17.29-7.318h-13.025c-1.365 0-2.472 1.132-2.472 2.524v11.231h-13.335c-1.36 0-2.47 1.13-2.47 2.524 0 1.393 1.108 2.524 2.47 2.524h13.336v12.365h-13.334c-1.365 0-2.472 1.128-2.472 2.52 0 1.397 1.107 2.525 2.472 2.525h13.335v11.232c0 1.393 1.108 2.524 2.473 2.524h13.025c6.532 0 12.67-2.6 17.29-7.318 1.93-1.97 3.47-4.227 4.644-6.657h2.583c2.88 0 5.584-1.146 7.62-3.224 1.44-1.47 2.39-3.29 2.842-5.262h424.795" style="stroke-dasharray: 1024.02px, 1024.02px; stroke-dashoffset: 3px;"></path>
    <path fill="none" stroke="#015A6C" stroke-linejoin="bevel" stroke-miterlimit="10" d="M692.467 416.554v22.232" style="stroke-dasharray: 22.232px, 22.232px; stroke-dashoffset: 0px;"></path>
    <g fill="none" stroke-miterlimit="10">
        <path stroke="#015A6C" stroke-width="2" stroke-linejoin="bevel" d="M956.547 396.566c1.428 5.314-2.62 9.622-9.04 9.622H829.373c-6.42 0-10.47-4.308-9.04-9.622 5.74-21.365 11.482-42.73 17.224-64.094 1.428-5.314 6.142-9.622 10.53-9.622h80.705c4.387 0 9.1 4.308 10.53 9.622 5.74 21.364 11.482 42.73 17.224 64.094z" style="stroke-dasharray: 393.011px, 393.011px; stroke-dashoffset: 1px;"></path>
        <g stroke="#DFB125">
            <path id="sun-battery-3-1" d="M869.488 347.492c-.13 1.416-1.33 2.564-2.675 2.564h-26.078c-1.346 0-2.16-1.148-1.816-2.564l3.95-16.31c.344-1.416 1.6-2.564 2.807-2.564h23.376c1.207 0 2.078 1.148 1.947 2.564l-1.512 16.31zM903.996 347.492c.108 1.416-.896 2.564-2.242 2.564h-26.08c-1.346 0-2.353-1.148-2.25-2.564l1.2-16.31c.103-1.416 1.166-2.564 2.372-2.564h23.377c1.207 0 2.272 1.148 2.38 2.564.498 6.524.747 9.786 1.243 16.31zM938.14 347.492c.345 1.416-.467 2.564-1.813 2.564H910.25c-1.347 0-2.546-1.148-2.68-2.564l-1.526-16.31c-.133-1.416.738-2.564 1.945-2.564h23.375c1.207 0 2.464 1.148 2.808 2.564 1.588 6.524 2.382 9.786 3.968 16.31z" style="stroke-dasharray: 293.599px, 293.599px; stroke-dashoffset: 0px;"></path>
        </g>
        <g stroke="#DFB125">
            <path id="sun-battery-3-2" d="M867.15 372.706c-.13 1.416-1.462 2.564-2.972 2.564h-29.256c-1.51 0-2.456-1.148-2.113-2.564 1.58-6.524 2.37-9.787 3.952-16.31.343-1.417 1.733-2.565 3.103-2.565h26.554c1.37 0 2.374 1.15 2.243 2.565l-1.513 16.31zM905.916 372.706c.108 1.416-1.03 2.564-2.54 2.564H874.12c-1.51 0-2.65-1.148-2.546-2.564.48-6.524.72-9.787 1.198-16.31.104-1.417 1.3-2.565 2.67-2.565h26.555c1.37 0 2.57 1.15 2.677 2.565l1.242 16.31zM944.274 372.706c.344 1.416-.6 2.564-2.11 2.564h-29.257c-1.51 0-2.842-1.148-2.975-2.564l-1.527-16.31c-.133-1.417.87-2.565 2.242-2.565H937.2c1.372 0 2.762 1.15 3.106 2.565l3.968 16.31z" style="stroke-dasharray: 315.43px, 315.43px; stroke-dashoffset: 1px;"></path>
        </g>
        <g stroke="#DFB125">
            <path id="sun-battery-3-3" d="M864.81 397.918c-.13 1.416-1.594 2.564-3.268 2.564H829.11c-1.675 0-2.754-1.148-2.41-2.564l3.95-16.31c.344-1.416 1.866-2.564 3.4-2.564h29.732c1.535 0 2.672 1.148 2.54 2.564l-1.51 16.31zM907.835 397.918c.108 1.416-1.162 2.564-2.836 2.564h-32.436c-1.674 0-2.947-1.148-2.843-2.564l1.2-16.31c.103-1.416 1.432-2.564 2.966-2.564h29.733c1.534 0 2.865 1.148 2.973 2.564l1.242 16.31zM950.406 397.918c.344 1.416-.734 2.564-2.408 2.564h-32.433c-1.674 0-3.14-1.148-3.272-2.564l-1.527-16.31c-.133-1.416 1.004-2.564 2.54-2.564h29.73c1.535 0 3.058 1.148 3.402 2.564l3.968 16.31z" style="stroke-dasharray: 337.329px, 337.329px; stroke-dashoffset: 1px;"></path>
        </g>
    </g>
    <path fill="none" stroke="#015A6C" stroke-width="2" stroke-linejoin="bevel" stroke-miterlimit="10" d="M860.724 438.786l12.39-32.232M927.753 443.848h149.735c.453 1.97 1.403 3.792 2.84 5.26 2.038 2.08 4.743 3.225 7.622 3.225h2.583c1.173 2.43 2.716 4.686 4.644 6.657 4.62 4.718 10.758 7.318 17.29 7.318h13.025c1.365 0 2.472-1.132 2.472-2.524v-11.232h13.335c1.364 0 2.47-1.128 2.47-2.524 0-1.393-1.106-2.52-2.47-2.52h-13.336V435.14h13.336c1.36 0 2.47-1.13 2.47-2.524 0-1.393-1.108-2.524-2.47-2.524h-13.336v-11.229c0-1.393-1.107-2.524-2.472-2.524h-13.025c-6.532 0-12.67 2.6-17.29 7.318-1.93 1.97-3.47 4.227-4.644 6.657h-2.583c-2.88 0-5.584 1.146-7.62 3.224-1.44 1.468-2.39 3.29-2.842 5.26l-161.43-.014-12.292-32.232" style="stroke-dasharray: 607.107px, 607.107px; stroke-dashoffset: 2px;"></path>
    <path fill="none" stroke="#015A6C" stroke-linejoin="bevel" stroke-miterlimit="10" d="M887.98 416.554v22.232" style="stroke-dasharray: 22.232px, 22.232px; stroke-dashoffset: 0px;"></path>
</svg>