<svg xmlns="http://www.w3.org/2000/svg" xmlns:xlink="http://www.w3.org/1999/xlink" height="160" width="280" version="1" viewBox="0 0 436 127"><defs><clipPath id="b"><use xlink:href="#d" height="100" width="100" overflow="visible"/></clipPath></defs><switch transform="matrix(.30896 0 0 .41362 -302.5 621.15)"><g transform="translate(-6.612 -474.43)"><g fill="none"><g stroke-linejoin="round"><g stroke="#dfb125"><path d="M1380-898v55M1384-898l8 55M1389-898l15 55M1376-898l-8 55M1372-898l-15 55"/></g><path stroke="#0e6a44" stroke-width="2" d="M1262.86-818.4h-18v-7h-22v7h-18v-7h-23v7h-18v-7h-22v7h-11v-7h-22v7h-18v-7h-23v7h-18v-7h-22v7h-18v-7h-23v7M986-806h271"/><g stroke="#0e6a44" stroke-width="2"><path d="M1207-739h-25M1904-806h492m-784 0h293m-586 0h293m784-19M2396-825h-8v7h-18v-7h-23v7h-19v-7h-23v7h-18v-7h-23v7h-18v-7h-22v7h-28m-293 0h27v-7h23v7h18v-7h23v7h18v-7h23v7h19v-7h23v7h18v-7h23v7h18v-7h23v7h18v-7h23v7m-577 0h18v-7h23v7h18v-7h23v7h18v-7h23v7h19v-7h23v7h18v-7h23v7h18v-7h23v7h18v-7h23v7m-578 0h18v-7h23v7h18v-7h23v7h18v-7h23v7h19v-7h23v7h18v-7h23v7h18v-7h23v7h18v-7h23v7"/></g><g transform="translate(962.86 -1051.4)"><path d="M328 55c-6 0-12 0-17 1m-28 21" stroke="#0e6a44" stroke-dasharray="17" stroke-width="2"/><path d="M283 77c20-2 114-9 114-9 5 0 7-3 7-7s-3-7-7-7c0 0-24 1-49 2" stroke="#0e6a44" stroke-dasharray="186" stroke-width="2"/><path d="M256 330c0-4 3-7 7-7h15c4 0 7 3 7 7M337 330c0-4 3-7 7-7h15c4 0 7 3 7 7" stroke="#dfb125" stroke-dasharray="37"/><g stroke-width="2" stroke="#0e6a44"><path d="M381 330H242c-3 0-4-2-3-4l10-23c1-2 4-4 7-4h112c3 0 6 2 7 4l10 23c1 2 0 4-3 4z" stroke-dashoffset="1" stroke-dasharray="332"/><path d="M325 268h23v21l-8 9M325 268h-25m0 0M263 298v-14l23-16h14"/><circle cx="354" cy="198" r="10"/></g><circle stroke="#dfb125" cy="198" cx="354" r="5"/><g stroke-width="2" stroke="#0e6a44"><path d="M440 38l-4 23-6 6M407 63l13-11 8-18M428 37L314 61M314 58l114-25"/><path d="M328 262c1 0 2 0 3-1h1c4-2 9-6 11-10l28-45c5-8 2-17-5-22l-6-3c-5-1-11-2-17-2-4 0-13-1-15 3-1 2-1 5 2 7 1 0 1 1 2 1l5 2-25 41c-2 4-4 10-4 15v4m35 15" stroke-dasharray="219"/><path d="M343 267c12-19 35-57 35-57 7-12 3-26-7-34-3-2-6-4-9-5-1 0-2 0-3-1" stroke-dasharray="118"/><path d="M322 198l-26 42c-3 6-6 16-6 22v1c0 2 0 3 1 5" stroke-dasharray="78"/><path d="M322 272c-3 6-11 7-16 4s-7-11-4-16l11-18c4-6 11-7 17-4s7 11 4 17l-11 18z" stroke-dasharray="118"/></g><circle stroke="#dfb125" cy="248" cx="323" r="6"/><g stroke-width="2" stroke="#0e6a44"><path d="M276 84c14 9 33 25 33 25s10 9 13 14l47 65m-41 15l-37-23m38 22l-37-23m37 23l-37-23" stroke-dasharray="141"/><path d="M329 202l-37-23c-4-4-9-10-10-15 0 0-27-69-27-70-2-5-1-9 2-12" stroke-dasharray="150"/><path d="M256 82l3 3m13 2c3-2 5-5 7-7 3-3 6-7 10-9 4-3 9-3 14-2 4 0 10 0 11-5 1-3-1-6-4-8h-2c-11-2-55-8-61-9s-9 6-7 10c3 4 10 18 16 26m22-15c-2 1-9 5-10 6s-4 0-5-1-3-4-5-7 0-5 3-5 12 2 17 3c4 1 2 4 0 5z" stroke-dasharray="234"/><circle cx="265" cy="89" r="7"/></g><g stroke="#dfb125"><circle cx="265" cy="89" r="3"/><circle cx="307" cy="61" r="3"/><circle cx="397" cy="60" r="3"/></g><g stroke-width="2" stroke="#0e6a44"><path d="M393 68l12 14v8h25V60h-15v3h-8l-3-4"/><path d="M428 33v2m0-1" stroke-dasharray="2"/><path d="M428 34c1 3 4 5 7 5 4 0 7-3 7-7s-3-7-7-7-7 3-7 7" stroke-dasharray="44"/></g><circle stroke="#dfb125" cy="33" cx="436" r="3"/><path stroke-width="2" stroke="#0e6a44" d="M404 142l-9-45h45l-9 45z"/><path stroke="#0e6a44" stroke-width="2" d="M409 90h16v8h-16z"/><g stroke="#dfb125"><circle cx="403" cy="104" r="3"/><circle cx="431" cy="104" r="3"/></g><g stroke-width="2" stroke="#0e6a44"><path d="M430 76c15 0 38 3 38 18 0 10-11 18-26 18" stroke-dasharray="81"/><path d="M438 105h2v16h-5"/></g></g><path stroke="#0e6a44" stroke-linecap="round" stroke-width="2" d="M1620-818h-8"/></g><use xlink:href="#a" transform="translate(1115.6 .068)" height="100" width="100"/><g id="a"><path transform="translate(963.517 -1051.54)" stroke="#dfb125" stroke-miterlimit="10" d="M37 257h24M37 265h24M37 273h24M37 281h24M167 258h24M167 266h24M167 274h24M167 282h24M102 257h12v23h-12z"/><path stroke-linejoin="round" stroke="#0e6a44" stroke-width="2" d="M1052.517-805.54v67h-65v-67M1117.517-805.54v67h-65M1182.517-805.54v67h-65"/></g></g><g stroke-linejoin="round" clip-path="url(#b)" stroke="#0e6a44" stroke-width="2" fill="none" transform="translate(962.86 -1051.4)"><path d="M24 172h53v53H24z"/><path d="M24 172h53v53H24z"/><path d="M24 172h53v53H24z"/><path d="M24 172h53v53H24z"/></g><use xlink:href="#leg" transform="translate(980 -1050)" height="100" width="100"/><use xlink:href="#leg" transform="translate(1180 -1050)" height="100" width="100"/><use xlink:href="#leg" transform="translate(1380 -1050)" height="100" width="100"/><use xlink:href="#leg" transform="translate(1580 -1050)" height="100" width="100"/><use xlink:href="#leg" transform="translate(1930 -1050)" height="100" width="100"/></g></switch></svg>