<svg xmlns="http://www.w3.org/2000/svg" version="1.1" clip-rule="evenodd"
     xmlns:xlink="http://www.w3.org/1999/xlink" viewBox="0 0 22222 11111">
    <polygon id="background" points="22222 11111 0 11111 0 0 22222 0" class="fil0" />
    <g id="rooms" class="fil2">
        <polygon id="bielany" ng-if="selectedRoom.name=='Bielany'" points="6364 8299 4040 8299 4040 6903 6364 6903 " />
        <polygon id="elevator1" ng-if="selectedRoom.name=='Elevators'" points="8178 6308 7182 6308 7127 4984 8178 4992 " />
        <polygon id="elevator2" ng-if="selectedRoom.name=='Elevators'" points="16969 6000 16160 6000 16149 4819 16969 4826 " />
        <polygon id="toilet1" ng-if="selectedRoom.name=='Restrooms'" points="5817 6304 4127 6304 4072 4966 5817 4974 " />
        <polygon id="toilet2" ng-if="selectedRoom.name=='Restrooms'" points="11538 6340 11538 4231 12435 4180 13435 4069 13454 5009 13455 6359 12983 6341 " />
        <text x="4506" y="7739" class="fil5 fnt2">BIELANY</text>
    </g>
    <g class="fil3">
        <path d="M14190 5696l0-15 24 0-24 15zm24-15l0 0 24 15 0 259-49 0 0-259 24-15zm0 289l0 0-24 0 0-15 24 15zm-24-15l0 0 24-15 1475 0 0 30-1475 0-24-15zm1524 0l0 0 0 15-24 0 24-15zm-24 15l0 0-24-15 0-259 49 0 0 259-24 15zm0-289l0 0 24 0 0 15-24-15zm24 15l0 0-24 15-1475 0 0-30 1475 0 24 15zm-1524-259l0 0 0-15 24 0-24 15zm24-15l0 0 24 15 0 259-49 0 0-259 24-15zm0 289l0 0-24 0 0-15 24 15zm-24-15l0 0 24-15 1475 0 0 30-1475 0-24-15zm1524 0l0 0 0 15-24 0 24-15zm-24 15l0 0-24-15 0-259 49 0 0 259-24 15zm0-289l0 0 24 0 0 15-24-15zm24 15l0 0-24 15-1475 0 0-30 1475 0 24 15zm-1524-259l0 0 0-15 24 0-24 15zm24-15l0 0 24 15 0 259-49 0 0-259 24-15zm0 289l0 0-24 0 0-15 24 15zm-24-15l0 0 24-15 1475 0 0 30-1475 0-24-15zm1524 0l0 0 0 15-24 0 24-15zm-24 15l0 0-24-15 0-259 49 0 0 259-24 15zm0-289l0 0 24 0 0 15-24-15zm24 15l0 0-24 15-1475 0 0-30 1475 0 24 15zm-1524-259l0 0 0-15 24 0-24 15zm24-15l0 0 24 15 0 259-49 0 0-259 24-15zm0 289l0 0-24 0 0-15 24 15zm-24-15l0 0 24-15 1475 0 0 30-1475 0-24-15zm1524 0l0 0 0 15-24 0 24-15zm-24 15l0 0-24-15 0-259 49 0 0 259-24 15zm0-289l0 0 24 0 0 15-24-15zm24 15l0 0-24 15-1475 0 0-30 1475 0 24 15zm-1524-259l0 0 0-15 24 0-24 15zm24-15l0 0 24 15 0 259-49 0 0-259 24-15zm0 289l0 0-24 0 0-15 24 15zm-24-15l0 0 24-15 1475 0 0 30-1475 0-24-15zm1524 0l0 0 0 15-24 0 24-15zm-24 15l0 0-24-15 0-259 49 0 0 259-24 15zm0-289l0 0 24 0 0 15-24-15zm24 15l0 0-24 15-1475 0 0-30 1475 0 24 15zm-1524-259l0 0 0-15 24 0-24 15zm24-15l0 0 24 15 0 259-49 0 0-259 24-15zm0 289l0 0-24 0 0-15 24 15zm-24-15l0 0 24-15 1475 0 0 30-1475 0-24-15zm1524 0l0 0 0 15-24 0 24-15zm-24 15l0 0-24-15 0-259 49 0 0 259-24 15zm0-289l0 0 24 0 0 15-24-15zm24 15l0 0-24 15-1475 0 0-30 1475 0 24 15zm-1524 0l0 0 0-15 24 0-24 15zm24-15l0 0 24 15 0 1557-49 0 0-1557 24-15zm0 1587l0 0-24 0 0-15 24 15zm-24-15l0 0 24-15 738 0 0 30-738 0-24-15zm786 0l0 0 0 15-24 0 24-15zm-24 15l0 0-24-15 0-1557 49 0 0 1557-24 15zm0-1587l0 0 24 0 0 15-24-15zm24 15l0 0-24 15-738 0 0-30 738 0 24 15zM3949 6911l97 0 0 119-97 0 0-119zm6285-1493l0 0 0 218-120 0 0-218 120 0zm1288 93l0 0-864 0 0-120 864 0 0 120zm5580-1016l0 0 0 1465-120 0 0-1465 120 0zm-3052 5282l0 0 0-2000 119 0 0 2000-119 0zm1274 0l0 0 0-2053 119 0 0 2053-119 0zm1244 0l0 0 0-2053 119 0 0 2053-119 0zm-3591-2009l0 0-433 0 0-120 433 0 0 120zm1879 15l0 0-1465 0 0-120 1465 0 0 120zm647 0l0 0-239 0 0-120 239 0 0 120zm1280 0l0 0-892 0 0-119 892 0 0 119zm1088 0l0 0-716 0 0-120 716 0 0 120zm-5266-803l0 0-7 2796-119 0 7-2796 119 0zm744 60l0 0-1120 0 0-120 1120 0 0 120zm-3215-57l0 0-7 2793-119 0 7-2793 119 0zm-6784 3351l0 0 0-3473 119 0 0 3473-119 0zm8678-4103l0 0 986 0 0 120-986 0 0-120zm-6569 790l0 0-1379-7 0-119 1378 7 0 119zm-1438-67l0 0 0-60 60 0-60 60zm60-60l0 0 60 60 0 1318-120 0 0-1318 60-60zm0 1438l0 0-60 0 0-60 60 60zm-60-60l0 0 60-60 2241 0 0 120-2241 0-60-60zm2361 0l0 0 0 60-60 0 60-60zm-60 60l0 0-60-60 0-1318 120 0 0 1318-60 60zm0-1438l0 0 60 0 0 60-60-60zm60 60l0 0-60 60-375 0 0-120 375 0 60 60zm-1472 3380l0 0 0-2062 120 0 0 2062-120 0zm2123-4013l0 0-705 0 0-120 705 0 0 120zm134 623l0 0-325 0 0-120 325 0 0 120zm-385-60l0 0 0-60 60 0-60 60zm60-60l0 0 60 60 0 3450-120 0 0-3450 60-60zm1140 323l0 0 346 0 0 120-346 0 0-120zm7817-346l0 0-5 221-119-3 5-221 119 3zm-5 221l0 0-1 59-58 0 60-59zm-60 59l0 0-1742 0 0-120 1742 0 60 61-60 59zm-4226-101l0 0-7 2796-119 0 7-2796 119 0zm9565 67l0 0-3248 0 0-120 3248 0 0 120zm-9226-7l0 0-864 0 0-120 864 0 0 120zm-1296 24l0 0-2225 0 0-119 2225 0 0 119zm-2285-58l0 0-2-61 61 0-60 61zm60-61l0 0 60 58 10 333-119 3-10-333 60-61zm83 1295l0 0 22 1535-119 1-22-1535 119-1zm8622-4253l0 0 0-336 120 0 0 336-120 0zm54-396l0 0 66-7 0 67-66-59zm66 59l0 0-54 59-1362 150-13-119 1362-150 66 59zm416-108l0 0 456-61 15 118-456 61-15-118zm-483 49l0 0 108-14 15 118-108 14-15-118zm864 2809l0 0 5-2100 119 0-5 2100-119 0zm65-1893l0 0 2919 4 0 119-2919-4 0-119zm-62-744l0 0-4-1676 119 0 4 1676-119 0zm-1677 2242l0 0-562 0 0-120 562 0 0 120zm-562 0l0 0-60 0 0-60 60 60zm-60-60l0 0-4-2276 119 0 4 2276-60 60-60-60zm56-2336l0 0 60 0 0 60-60-60zm60 60l0 0-60 60-1660 0 0-120 1660 0 60 60zm-4250 115l0 0-116-916 118-15 116 916-118 15zm-1288 2250l0 0 0 279-120 0 0-279 120 0zm0 279l0 0 0 60-60 0 60-60zm-60 60l0 0-1389 0 0-120 1389 0 60 60-60 60zm-1389 0l0 0-603 0 0-120 603 0 0 120zm-603 0l0 0-60 0 0-60 60 60zm-60-60l0 0 0-1403 120 0 0 1403-60 60-60-60zm60-1463l0 0 60 0 0 60-60-60zm60 60l0 0-60 60-147 0 0-119 147 0 60 60zm-207 60l0 0-52 0-7-52 59 52zm-59-52l0 0-217-1683 118-15 217 1683-59 67-59-52zm1970-1935l0 0 275 2460-119 13-275-2460 119-13zm216 2527l0 0-54 0-6-53 59 53zm-59-53l0 0 59-67 154 0 0 120-154 0-59-53zm7989 1342l0 0 0 191-120 0 0-191 120 0zm-2370-4456l0 0 162 1449-119 13-162-1449 119-13zm-1573 4109l0 0 2-2782 119 0-2 2782-119 0zm62-2842l0 0 60 0 0 60-60-60zm60 60l0 0-60 60-161-1 0-119 161 1 60 60zm-221 59l0 0-61 0 1-61 60 61zm-60-61l0 0 5-210 119 2-5 210-60 59-60-61zm57-268l0 0 69-8-2 69-67-61zm67 61l0 0-52 58-660 82-15-119 660-82 67 61zm-713 140l0 0-59 7-8-59 66 52zm-66-52l0 0-123-924 118-15 123 924-52 67-66-52zm-8508 2643l0 0 349 0 0 120-349 0 0-120zm740 0l0 0 279 0 0 120-279 0 0-120zm339 60l0 0 0 60-60 0 60-60zm-60 60l0 0-60-60 0-1264 120 0 0 1264-60 60zm0-1384l0 0 60 0 0 60-60-60zm60 60l0 0-60 60-1731 0 0-120 1731 0 60 60zm-1851 0l0 0 0-60 60 0-60 60zm60-60l0 0 60 60 0 1264-120 0 0-1264 60-60zm0 1384l0 0-60 0 0-60 60 60zm-60-60l0 0 60-60 303 0 0 120-303 0-60-60zm-581 1l0 0 0 189-120 0 0-189 120 0zm1534-2989l0 0 0 1724-119 0 0-1724 119 0zm-1412 3042l0 0-1710 0 0-120 1710 0 0 120zm3593 961l0 0-295 0 0-120 295 0 0 120zm10637 2509l0 0 0-2159 119 0 0 2159-119 0zm-1304-2813l0 0 218 0 0 120-218 0 0-120zm-9787-55l0 0 111 0 0 120-111 0 0-120zm9040-1035l0 0 0 575-120 0 0-575 120 0zm-2433 370l0 0 116 0 0 119-116 0 0-119zm175 60l0 0 0 60-60 0 60-60zm-60 60l0 0-60-60 0-2243 120 0 0 2243-60 60zm-6-2362l0 0 66-7 0 66-66-59zm66 59l0 0-54 59-1922 197-12-119 1922-197 66 59zm-2042 197l0 0 0-54 54-6-54 59zm54-59l0 0 66 59 0 2031-119 0 0-2031 54-59zm6 2150l0 0-60 0 0-60 60 60zm-60-60l0 0 60-60 101 0 0 120-101 0-60-60zm-8011 622l0 0 97 0 0 119-97 0 0-119zM8154 10331l3 123-123 0 119-123zm-119 123l0 0-6208 0 0-239 6208 0 119 116-119 123zm-6208 0l0 0-120 0 0-119 120 119zm-120-119l0 0 0-3105 240 0 0 3105-120 119-120-119zm119-3225l0 0 121-1 0 121-121-119zm121 119l0 0-119 119-370 4-2-239 370-4 121 119zm-488 123l0 0-120 1 0-121 120 119zm-120-119l0 0 0-844 239 0 0 844-118 119-120-119zm0-844l0 0 0-121 121 1-121 119zm121-119l0 0 369 4-3 239-369-4-118-119 121-119zm488 124l0 0 0 121-121-1 121-119zm-121 119l0 0-118-119 0-2628 240 0 0 2628-121 119zm-118-2748l0 0 0-102 101-16-101 118zm101-118l0 0 5937-951 37 236-5937 951-139-118 101-118zm5937-951l0 0 123-20 15 123-138-103zm138 103l0 0 51 416-238 29-51-416 100-133 138 103zm-55 549l0 0-118 13-14-118 132 104zm-132-104l0 0 106-133 10405-1165 26 238-10405 1165-132-104zm10643-1195l0 0 16 121-121 14 105-134zm-105 134l0 0-132-104-66-499 237-31 67 499-105 134zm-198-603l0 0-16-121 122-13-105 134zm105-134l0 0 2776-306 26 238-2776 306-132-104 105-134zm2776-306l0 0 129-14 3 130-133-116zm133 116l0 0 215 8518-239 6-215-8518 106-122 133 116zm215 8518l0 0 3 123-122 0 119-123zm-119 123l0 0-5572 0 0-240 5572 0 119 117-119 123zm-5572 0l0 0-7554 0 0-240 7554 0 0 240zm-7674-117l0 0-4-123 123 0-119 123zm119-123l0 0 119 117 16 557-239 7-16-557 119-123zM6838 9667l0-15 24 0-24 15zm24-15l0 0 24 15 0 33-49 0 0-33 24-15zm0 63l0 0-24 0 0-15 24 15zm1475-63l0 0 24 0 0 15-24-15zm24 15l0 0-24 15-1475 0 0-30 1475 0 24 15zm-1524-259l0 0 0-15 24 0-24 15zm24-15l0 0 24 15 0 259-49 0 0-259 24-15zm0 289l0 0-24 0 0-15 24 15zm-24-15l0 0 24-15 1475 0 0 30-1475 0-24-15zm1524 0l0 0 0 15-24 0 24-15zm-24 15l0 0-24-15 0-259 49 0 0 259-24 15zm0-289l0 0 24 0 0 15-24-15zm24 15l0 0-24 15-1475 0 0-30 1475 0 24 15zm-1524-259l0 0 0-15 24 0-24 15zm24-15l0 0 24 15 0 259-49 0 0-259 24-15zm0 289l0 0-24 0 0-15 24 15zm-24-15l0 0 24-15 1475 0 0 30-1475 0-24-15zm1524 0l0 0 0 15-24 0 24-15zm-24 15l0 0-24-15 0-259 49 0 0 259-24 15zm0-289l0 0 24 0 0 15-24-15zm24 15l0 0-24 15-1475 0 0-30 1475 0 24 15zm-1524-259l0 0 0-15 24 0-24 15zm24-15l0 0 24 15 0 259-49 0 0-259 24-15zm0 289l0 0-24 0 0-15 24 15zm-24-15l0 0 24-15 1475 0 0 30-1475 0-24-15zm1524 0l0 0 0 15-24 0 24-15zm-24 15l0 0-24-15 0-259 49 0 0 259-24 15zm0-289l0 0 24 0 0 15-24-15zm24 15l0 0-24 15-1475 0 0-30 1475 0 24 15zm-1524-259l0 0 0-15 24 0-24 15zm24-15l0 0 24 15 0 259-49 0 0-259 24-15zm0 289l0 0-24 0 0-15 24 15zm-24-15l0 0 24-15 1475 0 0 30-1475 0-24-15zm1524 0l0 0 0 15-24 0 24-15zm-24 15l0 0-24-15 0-259 49 0 0 259-24 15zm0-289l0 0 24 0 0 15-24-15zm24 15l0 0-24 15-1475 0 0-30 1475 0 24 15zm-1524-259l0 0 0-15 24 0-24 15zm24-15l0 0 24 15 0 259-49 0 0-259 24-15zm0 289l0 0-24 0 0-15 24 15zm-24-15l0 0 24-15 1475 0 0 30-1475 0-24-15zm1524 0l0 0 0 15-24 0 24-15zm-24 15l0 0-24-15 0-259 49 0 0 259-24 15zm0-289l0 0 24 0 0 15-24-15zm24 15l0 0-24 15-1475 0 0-30 1475 0 24 15zm-1524 0l0 0 0-15 24 0-24 15zm786 1287l0 0 0 15-24 0 24-15zm-24 15l0 0-24-15 0-1287 49 0 0 1287-24 15zm0-1317l0 0 24 0 0 15-24-15zm24 15l0 0-24 15-738 0 0-30 738 0 24 15z" />
        <polygon points="8111 5062 7238 5062 7238 6191 7429 6191 7429 6310 7179 6310 7119 6310 7119 6251 7119 5002 7119 4943 7179 4943 8170 4943 8230 4943 8230 5002 8230 6251 8230 6310 8170 6310 7885 6310 7885 6191 8111 6191 " />
        <polygon points="16121 4754 16983 4754 17043 4754 17043 4814 17043 5947 17043 6006 16983 6006 16784 6006 16784 5887 16924 5887 16924 4873 16181 4873 16181 5887 16329 5887 16329 6006 16121 6006 16062 6006 16062 5947 16062 4814 16062 4754 " />
    </g>
    <g transform="translate(8516.0615,86.719098)">
        <use xlink:href="#elevator" />
    </g>
    <g transform="translate(-361.43207,341.92874)">
        <use xlink:href="#elevator" />
    </g>
    <g transform="translate(-343.39877,307.31971)">
        <use xlink:href="#toilet" />
    </g>
    <g transform="translate(7163.4912,-49.786387)">
        <use xlink:href="#toilet" />
    </g>
    <g class="fil6" ng-if="evacuationActive">
        <g transform="translate(4000,6900)">
            <use transform="matrix(-1,0,0,1,0,-1300)" xlink:href="#arrow"></use>
            <use transform="matrix(-1,0,0,-1,0,800)" xlink:href="#arrow"></use>
            <use transform="matrix(0,-1,1,0,0,0)" xlink:href="#arrow"></use>
            <use transform="matrix(0,-1,1,0,1500,0)" xlink:href="#arrow"></use>
            <use transform="matrix(1,0,0,1,3300,-400)" xlink:href="#arrow"></use>
        </g>
        <g transform="translate(13500,5000)">
            <use transform="matrix(1,0,0,1,0,0)" xlink:href="#arrow"></use>
        </g>
        <g transform="translate(15800,6000)">
            <use transform="matrix(1,0,0,-1,-1500,0)" xlink:href="#arrow"></use>
            <use transform="matrix(1,0,0,-1,-1500,-1100)" xlink:href="#arrow"></use>
        </g>
        <g transform="translate(15300,6900)">
            <use transform="matrix(0,-1,-1,0,0,0)" xlink:href="#arrow"></use>
            <use transform="matrix(0,-1,-1,0,2000,0)" xlink:href="#arrow"></use>
            <use transform="matrix(1,0,0,1,2000,-3000)" xlink:href="#arrow"></use>
            <use transform="matrix(1,0,0,1,2000,-1500)" xlink:href="#arrow"></use>
        </g>
        <g transform="translate(9300,6900)">
            <use transform="matrix(0,-1,-1,0,0,0)" xlink:href="#arrow"></use>
            <use transform="matrix(0,-1,-1,0,1500,0)" xlink:href="#arrow"></use>
            <use transform="matrix(0,-1,1,0,2900,0)" xlink:href="#arrow"></use>
            <use transform="matrix(0,-1,1,0,4400,0)" xlink:href="#arrow"></use>
        </g>
        <g transform="translate(7000,7500)">
            <use transform="matrix(1,0,0,1,0,0)" xlink:href="#arrow"></use>
            <use transform="matrix(1,0,0,1,0,1500)" xlink:href="#arrow"></use>
        </g>
    </g>
</svg>
