<svg xmlns="http://www.w3.org/2000/svg" version="1.1" clip-rule="evenodd"
     xmlns:xlink="http://www.w3.org/1999/xlink" viewBox="0 0 22222 11111">
    <polygon points="22222 11111 0 11111 0 0 22222 0" class="fil0" />
    <g class="fil2">
        <polygon id="reception" ng-if="selectedRoom.name=='Reception'" points="6628 6070 5361 6070 5361 4346 6628 4364 " />
        <polygon id="galicjad" ng-if="selectedRoom.name=='Galicja D'" points="5390 6248 1943 6248 1943 3204 3772 2933 5164 2761 5390 3542 " />
        <polygon id="galicjam" ng-if="selectedRoom.name=='Galicja M'" points="5390 10287 1957 10287 1957 7266 5390 7266 " />
        <polygon id="zwierzyniec" ng-if="selectedRoom.name=='Zwierzyniec'" points="17449 4254 16117 4254 16117 3419 17449 3419 " />
        <polygon id="amper" ng-if="selectedRoom.name=='Amper lab'" points="21021 6688 18316 6688 18315 5771 18367 3022 19388 3022 19388 980 20931 847 " />
        <polygon points="18313,1223 17219,1343 16123,1464 16118,2411 16118,3359 17210,3359 18303,3359 18303,3103 18309,2037 18313,1223 18313,1223" ng-if="selectedRoom.name=='Joule lab'"/>
        <polygon id="nowahuta" ng-if="selectedRoom.name=='Nowa Huta'" points="19465 9789 16878 9789 16743 7379 19465 7379 " />
        <polygon points=" 11915,9644 11853,8219 11792,6787 11790,6769 14350,6769 14350,6778 14471,9607 14473,9653 11916,9653" ng-if="selectedRoom.name=='Rynek'"/>
        <polygon id="elevator1" ng-if="selectedRoom.name=='Elevators'" points="8498 5974 7502 5974 7447 4651 8498 4658 " />
        <polygon id="elevator2" ng-if="selectedRoom.name=='Elevators'" points="17462 5667 16062 5667 16044 4250 17462 4258 " />
        <polygon id="toilet1" ng-if="selectedRoom.name=='Restrooms'" points="8529 3656 5334 3656 5208 2715 8528 2277 " />
        <polygon id="toilet2" ng-if="selectedRoom.name=='Restrooms'" points="14539 5626 13941 5673 12823 5673 12823 5163 13418 5167 13385 3889 14539 3897 "/>
        <polygon id="bohr" ng-if="selectedRoom.name=='Bohr lab'" points="21090 8031 20073 8010 20068 6706 21038 6740 " />
        <text x="2621" y="4886" class="fil5 fnt1">GALICJA D</text>
        <text x="16159" y="3896" class="fil5 fnt6">ZWIERZYNIEC</text>
        <text x="2621" y="8649" class="fil5 fnt1">GALICJA M</text>
        <text x="16997" y="8649" class="fil5 fnt1">NOWA HUTA</text>
        <text x="19001" y="4351" class="fil5 fnt1">AMPER</text>
        <text x="20160" y="7850" class="fil5 fnt5">BOHR</text>
        <text x="16585.428" y="2559.6028" class="fil5 fnt1">JOULE</text>
        <text x="12467" y="8257" class="fil5 fnt1">RYNEK</text>
    </g>
    <g id="walls">
        <path class="fil3" d="M14540 5210l0-15 25 0-25 15zm25-15l0 0 25 15 0 258-49 0 0-258 25-15zm0 287l0 0-25 0 0-15 25 15zm-25-15l0 0 25-15 1490 0 0 30-1490 0-25-15zm1539 0l0 0 0 15-25 0 25-15zm-25 15l0 0-25-15 0-258 49 0 0 258-25 15zm0-287l0 0 25 0 0 15-25-15zm25 15l0 0-25 15-1490 0 0-30 1490 0 25 15zm-1539-258l0 0 0-15 25 0-25 15zm25-15l0 0 25 15 0 258-49 0 0-258 25-15zm0 287l0 0-25 0 0-15 25 15zm-25-15l0 0 25-15 1490 0 0 30-1490 0-25-15zm1539 0l0 0 0 15-25 0 25-15zm-25 15l0 0-25-15 0-258 49 0 0 258-25 15zm0-287l0 0 25 0 0 15-25-15zm25 15l0 0-25 15-1490 0 0-30 1490 0 25 15zm-1539-258l0 0 0-15 25 0-25 15zm25-15l0 0 25 15 0 258-49 0 0-258 25-15zm0 287l0 0-25 0 0-15 25 15zm-25-15l0 0 25-15 1490 0 0 30-1490 0-25-15zm1539 0l0 0 0 15-25 0 25-15zm-25 15l0 0-25-15 0-258 49 0 0 258-25 15zm0-287l0 0 25 0 0 15-25-15zm25 15l0 0-25 15-1490 0 0-30 1490 0 25 15zm-1539-258l0 0 0-15 25 0-25 15zm25-15l0 0 25 15 0 258-49 0 0-258 25-15zm0 287l0 0-25 0 0-15 25 15zm-25-15l0 0 25-15 1490 0 0 30-1490 0-25-15zm1539 0l0 0 0 15-25 0 25-15zm-25 15l0 0-25-15 0-258 49 0 0 258-25 15zm0-287l0 0 25 0 0 15-25-15zm25 15l0 0-25 15-1490 0 0-30 1490 0 25 15zm-1539-258l0 0 0-15 25 0-25 15zm25-15l0 0 25 15 0 258-49 0 0-258 25-15zm0 287l0 0-25 0 0-15 25 15zm-25-15l0 0 25-15 1490 0 0 30-1490 0-25-15zm1539 0l0 0 0 15-25 0 25-15zm-25 15l0 0-25-15 0-258 49 0 0 258-25 15zm0-287l0 0 25 0 0 15-25-15zm25 15l0 0-25 15-1490 0 0-30 1490 0 25 15zm-1539-258l0 0 0-15 25 0-25 15zm25-15l0 0 25 15 0 258-49 0 0-258 25-15zm0 287l0 0-25 0 0-15 25 15zm-25-15l0 0 25-15 1490 0 0 30-1490 0-25-15zm1539 0l0 0 0 15-25 0 25-15zm-25 15l0 0-25-15 0-258 49 0 0 258-25 15zm0-287l0 0 25 0 0 15-25-15zm25 15l0 0-25 15-1490 0 0-30 1490 0 25 15zm-1539 0l0 0 0-15 25 0-25 15zm25-15l0 0 25 15 0 1545-49 0 0-1545 25-15zm0 1575l0 0-25 0 0-15 25 15zm-25-15l0 0 25-15 745 0 0 30-745 0-25-15zm794 0l0 0 0 15-25 0 25-15zm-25 15l0 0-25-15 0-1545 49 0 0 1545-25 15zm0-1575l0 0 25 0 0 15-25-15zm25 15l0 0-25 15-745 0 0-30 745 0 25 15zM14085 5617l0 254-119 0 0-254 119 0zm0 836l0 0 0 254-119 0 0-254 119 0zm7010 1616l0 0-1170 0 0-119 1170 0 0 119zm-1027-524l0 0 0-838 119 0 0 838-119 0zm-715 2244l0 0 0-807 119 0 0 807-119 0zm0-1158l0 0 0-1196 119 0 0 1196-119 0zm60-1255l0 0 60 0 0 60-60-60zm60 60l0 0-60 59-1468 0 0-119 1468 0 60 60zm-1922 59l0 0-807 0 0-119 807 0 0 119zm-15650 2848l0 0 0-7114 119 0 0 7114-119 0zm6746-3148l0 0-379 0 0-119 379 0 0 119zm-117-3531l0 0-789 0 0-119 789 0 0 119zm-1190 0l0 0-1258 0 0-119 1258 0 0 119zm-1659 0l0 0-346 0 0-119 346 0 0 119zm-346 0l0 0-50 0-8-50 59 50zm-59-50l0 0-144-869 117-19 144 869-59 69-59-50zm14 2636l0 0 0-1882 119 0 0 1882-119 0zm0-1882l0 0 0-60 60 0-60 60zm60-60l0 0 1280 0 0 119-1280 0-60-60 60-60zm37-704l0 0 0 187-119 0 0-187 119 0zm3202 894l0 0-119 0 32 52 7 3-5-1-10-1-14-1-17-1-20-1-23 0-25 0-27 0-29 0-30 0-31 0-32 0-32 0-32 0-33 1-32 1-32 1-31 1-30 1-29 1-27 1-25 1-23 1-21 1-19 1-16 0-13 0-9 0-6 0-2 0-4-119 2 0 6 0 9 0 13 0 16 0 19-1 21-1 24-1 25-1 27-1 29-1 30-1 31-1 32-1 33-1 33-1 33 0 33 0 32 0 31 0 30 0 29 0 28 0 26 0 24 0 22 1 20 1 17 1 15 1 14 2 19 6 36 56zm-754 59l0 0-61-59 0-249 119 0 0 249-57 59zm-61-760l0 0 0-193 119 0 0 193-119 0zm2117 2613l0 0 0 298-119 0 0-298 119 0zm0-702l0 0 0 149-119 0 0-149 119 0zm1703 702l0 0 0 298-119 0 0-298 119 0zm0-702l0 0 0 149-119 0 0-149 119 0zm4971 702l0 0 0 298-119 0 0-298 119 0zm0-792l0 0 0 298-119 0 0-298 119 0zm-3784-1026l0 0-700 0 0-119 700 0 0 119zm1719-1053l0 0 0-281 119 0 0 281-119 0zm0-711l0 0 0-1248 119 0 0 1248-119 0zm1618-1464l0 0 0 2056-119 0 0-2056 119 0zm-7450 7141l0 0 1654 0 0 119-1654 0 0-119zm1646 1287l0 0-28-655 119-5 28 655-119 5zm-48-1111l0 0-84-1971 119-5 84 1971-119 5zm-681-2032l0 0 987 0 0 119-987 0 0-119zm8768-955l0 0-298 0 0-119 298 0 0 119zm80 717l0 0 0 298-119 0 0-298 119 0zm-6839-1301l0 0 0 599-119 0 0-599 119 0zm0 599l0 0 0 60-60 0 60-60zm-60 60l0 0-3005 0 0-119 3005 0 60 60-60 60zm-3005 0l0 0-60 0 0-60 60 60zm-60-60l0 0 0-3452 119 0 0 3452-60 60-60-60zm3187-1110l0 0-183 0 0-119 183 0 0 119zm-183 0l0 0-60 0 0-60 60 60zm-60-60l0 0 0-2631 119 0 0 2631-60 60-60-60zm1347-709l0 0 171 0 0 119-171 0 0-119zm814 1729l0 0 983 0 0 119-983 0 0-119zm1042 60l0 0 0 60-60 0 60-60zm-60 60l0 0-60-60 0-1729 119 0 0 1729-60 60zm0-1848l0 0 60 0 0 60-60-60zm60 60l0 0-60 59-1121 0 0-119 1121 0 60 60zm-1240 0l0 0 0-60 60 0-60 60zm60-60l0 0 60 60 0 551-119 0 0-551 60-60zm83 1037l0 0 0 254-119 0 0-254 119 0zm0 254l0 0 0 60-60 0 60-60zm-60 60l0 0-666 0 0-119 666 0 60 60-60 60zm-726-58l0 0-2-61 61 0-59 61zm59-61l0 0 59 58 13 497-119 3-13-497 59-61zm13 616l0 0-58 0-2-58 59 58zm-59-58l0 0 59-61 283 0 0 119-283 0-59-58zm-25-957l0 0-71-2924 119-3 71 2924-119 3zm3334-1064l0 0-1499 0 0-119 1499 0 0 119zm-1559-60l0 0 0-60 59 0-59 60zm59-60l0 0 59 60 0 350-119 0 0-350 59-60zm2057 2198l0 0-558 0 0-119 558 0 0 119zm-558 0l0 0-60 0 0-60 60 60zm-60-60l0 0 0-2079 119 0 0 2079-60 60-60-60zm59-1421l0 0 1391 0 0 119-1391 0 0-119zm1450-777l0 0 0 2198-119 0 0-2198 119 0zm0 2198l0 0 0 60-60 0 60-60zm-60 60l0 0-298 0 0-119 298 0 60 60-60 60zm994-4567l0 0-32 4742-119 0 32-4742 119 0zm-2444 2429l0 0 0-119 119 0 0 119-119 0zm0-119l0 0 0-60 59 0-59 60zm59-60l0 0 1512 0 0 119-1512 0-59-60 59-60zm1793 0l0 0 515 0 0 119-515 0 0-119zm-8725 3406l0 0-486 0 0-119 486 0 0 119zm-545-59l0 0-1-60 60 0-59 60zm59-60l0 0 59 59 45 3082-119 1-45-3082 59-60zm4816 119l0 0-2439 0 0-119 2439 0 0 119zm1136 0l0 0-700 0 0-119 700 0 0 119zm1277 0l0 0-524 0 0-119 524 0 0 119zm1514 0l0 0-941 0 0-119 941 0 0 119zm3680 0l0 0-3260 0 0-119 3260 0 0 119zm-9257 3025l0 0-132-3082 119-5 132 3082-119 5zm2681 0l0 0-132-3082 119-5 132 3082-119 5zm1116 0l0 0-132-3082 119-5 132 3082-119 5zm1182 0l0 0-132-3082 119-5 132 3082-119 5zm-8487-3144l0 0 342 0 0 119-342 0 0-119zm-3030 3695l0 0 0-1535 119 0 0 1535-119 0zm0-1968l0 0 0-1541 119 0 0 1541-119 0zm2260-1204l0 0-323 0 0-119 323 0 0 119zm-382-59l0 0 0-59 60 0-60 59zm60-59l0 0 60 59 0 3230-119 0 0-3230 60-59zm12109-346l0 0 0-66 119 0 0 66-119 0zm-12685-615l0 0-1334 0 0-119 1334 0 0 119zm4-505l0 0 0 500-119 0 0-500 119 0zM15608 9655l5532 0 0 238-5532 0 0-238zm5651 116l0 0 3 122-122 0 119-122zm-119 122l0 0-119-116-226-8960 237-6 226 8960-119 122zm-239-9198l0 0 128-14 3 129-132-115zm132 115l0 0-106 121-2756 304-26-236 2756-304 132 115zm-2888 189l0 0 26 236-5661 628-26-236 5661-628zm-5661 628l0 0 0 0-8 1 7-1zm0 0l0 0 26 236-4386 518-27-236 4386-518 0 0zm-4392 519l0 0 5-1 5-1-10 2zm5-1l0 0 32 235-7039 1100-36-234 7039-1100 5-1zm-7144 1218l0 0 0-101 101-16-100 117zm100-117l0 0 137 117 18 6965-237 0-18-6965 100-117zm37 7200l0 0-118 0 0-118 119 119zm-119-119l0 0 119-119 6177 2 0 237-6177-2-119-119zm7386 3l0 0-16-553 237-7 16 553-237 7zm-16-553l0 0-3-122 122 0-119 122zm119-122l0 0 6142 0 0 237-6142 0-119-115 119-122zM20969 4791l-1701 0 0-30 1701 0 0 30zm-2602-30l0 0 482 0 0 30-482 0 0-30zm2602-1716l0 0-1701 0 0-30 1701 0 0 30zm-2602-30l0 0 482 0 0 30-482 0 0-30zM4901 7147l0 119-119 0 0-119 119 0zm-238 0l0 0 0 119-119 0 0-119 119 0zm-238 0l0 0 0 119-119 0 0-119 119 0zm-238 0l0 0 0 119-119 0 0-119 119 0zm-238 0l0 0 0 119-119 0 0-119 119 0zm-238 0l0 0 0 119-119 0 0-119 119 0zm-238 0l0 0 0 119-119 0 0-119 119 0zm-238 0l0 0 0 119-119 0 0-119 119 0zm-238 0l0 0 0 119-119 0 0-119 119 0zm-238 0l0 0 0 119-119 0 0-119 119 0zm-238 0l0 0 0 119-119 0 0-119 119 0zm-238 0l0 0 0 119-119 0 0-119 119 0zM4901 6253l0 119-119 0 0-119 119 0zm-238 0l0 0 0 119-119 0 0-119 119 0zm-238 0l0 0 0 119-119 0 0-119 119 0zm-238 0l0 0 0 119-119 0 0-119 119 0zm-238 0l0 0 0 119-119 0 0-119 119 0zm-238 0l0 0 0 119-119 0 0-119 119 0zm-238 0l0 0 0 119-119 0 0-119 119 0zm-238 0l0 0 0 119-119 0 0-119 119 0zm-238 0l0 0 0 119-119 0 0-119 119 0zm-238 0l0 0 0 119-119 0 0-119 119 0zm-238 0l0 0 0 119-119 0 0-119 119 0zm-238 0l0 0 0 119-119 0 0-119 119 0zM7187 8932l0-15 24 0-24 15zm24-15l0 0 24 15 0 258-48 0 0-258 24-15zm0 287l0 0-24 0 0-15 24 15zm-24-15l0 0 24-15 1454 0 0 30-1454 0-24-15zm1502 0l0 0 0 15-24 0 24-15zm-24 15l0 0-24-15 0-258 48 0 0 258-24 15zm0-287l0 0 24 0 0 15-24-15zm24 15l0 0-24 15-1454 0 0-30 1454 0 24 15zm-1502-258l0 0 0-15 24 0-24 15zm24-15l0 0 24 15 0 258-48 0 0-258 24-15zm0 287l0 0-24 0 0-15 24 15zm-24-15l0 0 24-15 1454 0 0 30-1454 0-24-15zm1502 0l0 0 0 15-24 0 24-15zm-24 15l0 0-24-15 0-258 48 0 0 258-24 15zm0-287l0 0 24 0 0 15-24-15zm24 15l0 0-24 15-1454 0 0-30 1454 0 24 15zm-1502-258l0 0 0-15 24 0-24 15zm24-15l0 0 24 15 0 258-48 0 0-258 24-15zm0 287l0 0-24 0 0-15 24 15zm-24-15l0 0 24-15 1454 0 0 30-1454 0-24-15zm1502 0l0 0 0 15-24 0 24-15zm-24 15l0 0-24-15 0-258 48 0 0 258-24 15zm0-287l0 0 24 0 0 15-24-15zm24 15l0 0-24 15-1454 0 0-30 1454 0 24 15zm-1502-258l0 0 0-15 24 0-24 15zm24-15l0 0 24 15 0 258-48 0 0-258 24-15zm0 287l0 0-24 0 0-15 24 15zm-24-15l0 0 24-15 1454 0 0 30-1454 0-24-15zm1502 0l0 0 0 15-24 0 24-15zm-24 15l0 0-24-15 0-258 48 0 0 258-24 15zm0-287l0 0 24 0 0 15-24-15zm24 15l0 0-24 15-1454 0 0-30 1454 0 24 15zm-1502-258l0 0 0-15 24 0-24 15zm24-15l0 0 24 15 0 258-48 0 0-258 24-15zm0 287l0 0-24 0 0-15 24 15zm-24-15l0 0 24-15 1454 0 0 30-1454 0-24-15zm1502 0l0 0 0 15-24 0 24-15zm-24 15l0 0-24-15 0-258 48 0 0 258-24 15zm0-287l0 0 24 0 0 15-24-15zm24 15l0 0-24 15-1454 0 0-30 1454 0 24 15zm-1502-258l0 0 0-15 24 0-24 15zm24-15l0 0 24 15 0 258-48 0 0-258 24-15zm0 287l0 0-24 0 0-15 24 15zm-24-15l0 0 24-15 1454 0 0 30-1454 0-24-15zm1502 0l0 0 0 15-24 0 24-15zm-24 15l0 0-24-15 0-258 48 0 0 258-24 15zm0-287l0 0 24 0 0 15-24-15zm24 15l0 0-24 15-1454 0 0-30 1454 0 24 15zm-1502 0l0 0 0-15 24 0-24 15zm24-15l0 0 24 15 0 1545-48 0 0-1545 24-15zm0 1575l0 0-24 0 0-15 24 15zm-24-15l0 0 24-15 727 0 0 30-727 0-24-15zm775 0l0 0 0 15-24 0 24-15zm-24 15l0 0-24-15 0-1545 48 0 0 1545-24 15zm0-1575l0 0 24 0 0 15-24-15zm24 15l0 0-24 15-727 0 0-30 727 0 24 15zM14457 7592l-1-16 19 0-18 16zm18-16l0 0 18 14 15 258-36 1-15-258 18-16zm15 287l0 0-17 0-1-14 18 14zm-18-14l0 0 18-16 1081 0 0 30-1081 0-18-14zm1116-1l0 0 1 16-19 0 18-16zm-18 16l0 0-18-14-15-258 36-1 15 258-18 16zm-15-287l0 0 17 0 1 14-18-14zm18 14l0 0-18 16-1081 0 0-30 1081 0 18 14zm-1101 259l0 0-1-16 19 0-18 16zm18-16l0 0 18 14 15 258-36 1-15-258 18-16zm15 287l0 0-17 0-1-14 18 14zm-18-14l0 0 18-16 1081 0 0 30-1081 0-18-14zm1116-1l0 0 1 16-19 0 18-16zm-18 16l0 0-18-14-15-258 36-1 15 258-18 16zm-15-287l0 0 17 0 1 14-18-14zm18 14l0 0-18 16-1081 0 0-30 1081 0 18 14zm-1101 259l0 0-1-16 19 0-18 16zm18-16l0 0 18 14 15 258-36 1-15-258 18-16zm15 287l0 0-17 0-1-14 18 14zm-18-14l0 0 18-16 1081 0 0 30-1081 0-18-14zm1116-1l0 0 1 16-19 0 18-16zm-18 16l0 0-18-14-15-258 36-1 15 258-18 16zm-15-287l0 0 17 0 1 14-18-14zm18 14l0 0-18 16-1081 0 0-30 1081 0 18 14zm-1101 259l0 0-1-16 19 0-18 16zm18-16l0 0 18 14 15 258-36 1-15-258 18-16zm15 287l0 0-17 0-1-14 18 14zm-18-14l0 0 18-16 1081 0 0 30-1081 0-18-14zm1116-1l0 0 1 16-19 0 18-16zm-18 16l0 0-18-14-15-258 36-1 15 258-18 16zm-15-287l0 0 17 0 1 14-18-14zm18 14l0 0-18 16-1081 0 0-30 1081 0 18 14zm-1101 259l0 0-1-16 19 0-18 16zm18-16l0 0 18 14 15 258-36 1-15-258 18-16zm15 287l0 0-17 0-1-14 18 14zm-18-14l0 0 18-16 1081 0 0 30-1081 0-18-14zm1116-1l0 0 1 16-19 0 18-16zm-18 16l0 0-18-14-15-258 36-1 15 258-18 16zm-15-287l0 0 17 0 1 14-18-14zm18 14l0 0-18 16-1081 0 0-30 1081 0 18 14zm-1101 259l0 0-1-16 19 0-18 16zm18-16l0 0 18 14 15 258-36 1-15-258 18-16zm15 287l0 0-17 0-1-14 18 14zm-18-14l0 0 18-16 1081 0 0 30-1081 0-18-14zm1116-1l0 0 1 16-19 0 18-16zm-18 16l0 0-18-14-15-258 36-1 15 258-18 16zm-15-287l0 0 17 0 1 14-18-14zm18 14l0 0-18 16-1081 0 0-30 1081 0 18 14z" />
        <polygon class="fil3" points="19448 980 19448 2569 19329 2569 19329 980 " />
        <polygon class="fil3" points="8409 4733 7536 4733 7536 5862 7727 5862 7727 5981 7477 5981 7417 5981 7417 5922 7417 4673 7417 4614 7477 4614 8468 4614 8528 4614 8528 4673 8528 5922 8528 5981 8468 5981 8183 5981 8183 5862 8409 5862 " />
    </g>
    <g transform="translate(34.809752,-612.37731)">
        <use xlink:href="#lab" />
    </g>
    <g transform="translate(927.61246,2958.8335)">
        <use xlink:href="#lab" />
    </g>
    <g transform="translate(-2482.9 -2427.5)">
		<use xlink:href="#lab"/>
	</g>
    <g transform="translate(-76.6559,17.519965)">
        <use xlink:href="#elevator" />
    </g>
    <g transform="translate(8681.5429,-393.16928)">
        <use xlink:href="#elevator" />
    </g>
    <g transform="translate(1543.6647,-2288.647)">
        <use xlink:href="#toilet" />
    </g>
    <g transform="translate(8668.1998,-467.32948)">
        <use xlink:href="#toilet" />
    </g>
    <g transform="translate(-27.69857,104.06425)">
        <use xlink:href="#reception" />
    </g>
    <g transform="translate(-27.69857,104.06425)">
        <use xlink:href="#storage" />
    </g>
    <g class="fil6" ng-if="evacuationActive">
        <g transform="translate(5800,6700)">
            <use transform="matrix(1,0,0,-1,0,500)" xlink:href="#arrow"></use>
            <use transform="matrix(0,-1,1,0,1000,0)" xlink:href="#arrow"></use>
            <use transform="matrix(1,0,0,-1,0,2000)" xlink:href="#arrow"></use>
            <use transform="matrix(1,0,0,1,1000,-1800)" xlink:href="#arrow"></use>
        </g>
        <g transform="translate(16250,6000)">
            <use transform="matrix(1,0,0,1,-1500,0)" xlink:href="#arrow"></use>
            <use transform="matrix(1,0,0,1,-1500,1500)" xlink:href="#arrow"></use>
            <use transform="matrix(1,0,0,1,-1500,3000)" xlink:href="#arrow"></use>
        </g>
        <g transform="translate(16250,4500)">
            <use transform="matrix(1,0,0,1,-1500,0)" xlink:href="#arrow"></use>
        </g>
        <g transform="translate(16250,6400)">
            <use transform="matrix(0,-1,-1,0,0,0)" xlink:href="#arrow"></use>
            <use transform="matrix(0,-1,-1,0,1500,0)" xlink:href="#arrow"></use>
            <use transform="matrix(0,-1,-1,0,3000,0)" xlink:href="#arrow"></use>
            <use transform="matrix(1,0,0,1,2600,-1500)" xlink:href="#arrow"></use>
            <use transform="matrix(1,0,0,1,2600,-3000)" xlink:href="#arrow"></use>
            <use transform="matrix(0,-1,-1,0,3500,-3300)" xlink:href="#arrow"></use>
            <use transform="matrix(1,0,0,1,1400,-2000)" xlink:href="#arrow"></use>
            <use transform="matrix(1,0,0,1,1400,-4000)" xlink:href="#arrow"></use>
        </g>
        <g transform="translate(9500,6500)">
            <use transform="matrix(0,-1,-1,0,0,0)" xlink:href="#arrow"></use>
            <use transform="matrix(0,-1,-1,0,1500,0)" xlink:href="#arrow"></use>
            <use transform="matrix(0,-1,1,0,3000,0)" xlink:href="#arrow"></use>
        </g>
        <g transform="translate(7400,7500)">
            <use transform="matrix(1,0,0,1,0,0)" xlink:href="#arrow"></use>
            <use transform="matrix(1,0,0,1,0,1500)" xlink:href="#arrow"></use>
        </g>
        <g transform="translate(11700,3500)">
            <use transform="matrix(1,0,0,1,0,0)" xlink:href="#arrow"></use>
            <use transform="matrix(1,0,0,1,0,1500)" xlink:href="#arrow"></use>
        </g>
    </g>
</svg>