<svg xmlns="http://www.w3.org/2000/svg" version="1.1" clip-rule="evenodd"
     xmlns:xlink="http://www.w3.org/1999/xlink" viewBox="0 0 22222 11111">
    <polygon id="background" points="22222 11111 0 11111 0 0 22222 0" class="fil0" />
    <g class="fil2">
        <polygon id="giewont" ng-if="selectedRoom.name=='Giewont'" points="16016 8278 10408 8278 10408 7001 8210 7001 8209 5112 8317 5112 8274 4773 14082 4119 14301 5931 14750 5931 14750 7040 16020 7040" />
        <polygon id="elevator1" ng-if="selectedRoom.name=='Elevators'" points="8209 6266 7431 6259 7414 5110 8201 5134" />
        <polygon id="elevator2" ng-if="selectedRoom.name=='Elevators'" points="7414,5110 8201,5134 8209,6266 7431,6259 " transform="matrix(1.159028,0,0,0.66096501,7443.3044,1479.6143)" />
        <polygon id="toilet" ng-if="selectedRoom.name=='Restrooms'" points="17803 8278 17803 7083 19019 7083 19026 6502 20373 6502 20373 7036 21046 7036 21065 8278" />
        <text y="6287" x="11378" class="fil5 fnt2">GIEWONT</text>
    </g>
    <g id="roof">
        <line y2="2478" x2="20966" y1="1370" x1="20669" class="fil4 str5" />
        <line y2="6092" x2="20714" y1="1501" x1="19484" class="fil4 str5" />
        <line y2="9777" x2="20481" y1="8278" x1="20079" class="fil4 str5" />
        <line y2="6502" x2="19603" y1="1631" x1="18298" class="fil4 str5" />
        <line y2="9777" x2="19260" y1="8278" x1="18859" class="fil4 str5" />
        <line y2="6502" x2="18383" y1="5054" x1="17995" class="fil4 str5" />
        <line y2="3718" x2="17637" y1="2251" x1="17244" class="fil4 str5" />
        <line y2="9777" x2="18040" y1="8278" x1="17638" class="fil4 str5" />
        <line y2="3852" x2="16452" y1="2384" x1="16059" class="fil4 str5" />
        <line y2="9777" x2="16819" y1="8278" x1="16417" class="fil4 str5" />
        <line y2="3985" x2="15267" y1="2517" x1="14874" class="fil4 str5" />
        <line y2="9777" x2="15598" y1="8278" x1="15197" class="fil4 str5" />
        <line y2="4119" x2="14082" y1="2649" x1="13689" class="fil4 str5" />
        <line y2="9777" x2="14378" y1="8278" x1="13976" class="fil4 str5" />
        <line y2="4252" x2="12897" y1="2782" x1="12503" class="fil4 str5" />
        <line y2="9777" x2="13157" y1="8278" x1="12755" class="fil4 str5" />
        <line y2="4385" x2="11712" y1="2915" x1="11318" class="fil4 str5" />
        <line y2="9777" x2="11936" y1="8278" x1="11535" class="fil4 str5" />
        <line y2="4519" x2="10528" y1="3047" x1="10133" class="fil4 str5" />
        <line y2="9777" x2="10716" y1="8278" x1="10314" class="fil4 str5" />
        <line y2="4652" x2="9343" y1="3180" x1="8948" class="fil4 str5" />
        <line y2="9777" x2="9495" y1="8278" x1="9094" class="fil4 str5" />
        <line y2="4786" x2="8158" y1="2919" x1="7658" class="fil4 str5" />
        <line y2="9777" x2="8275" y1="8278" x1="7873" class="fil4 str5" />
        <line y2="4919" x2="6973" y1="3106" x1="6487" class="fil4 str5" />
        <line y2="10329" x2="7202" y1="3294" x1="5317" class="fil4 str5" />
        <line y2="10329" x2="5981" y1="3481" x1="4146" class="fil4 str5" />
        <line y2="10329" x2="4761" y1="3669" x1="2976" class="fil4 str5" />
        <line y2="10329" x2="3540" y1="4648" x1="2018" class="fil4 str5" />
        <line y2="10329" x2="2319" y1="9204" x1="2018" class="fil4 str5" />
        <line y2="5101" x2="21033" y1="1438" x1="20051" class="fil4 str5" />
        <line y2="9777" x2="21065" y1="8278" x1="20663" class="fil4 str5" />
        <line y2="6502" x2="20187" y1="1569" x1="18865" class="fil4 str5" />
        <line y2="9777" x2="19844" y1="8278" x1="19443" class="fil4 str5" />
        <line y2="6502" x2="18967" y1="2188" x1="17811" class="fil4 str5" />
        <line y2="9777" x2="18624" y1="8278" x1="18222" class="fil4 str5" />
        <line y2="3788" x2="17019" y1="2320" x1="16626" class="fil4 str5" />
        <line y2="9777" x2="17403" y1="8278" x1="17001" class="fil4 str5" />
        <line y2="3921" x2="15834" y1="2453" x1="15441" class="fil4 str5" />
        <line y2="9777" x2="16182" y1="8278" x1="15781" class="fil4 str5" />
        <line y2="4055" x2="14649" y1="2586" x1="14255" class="fil4 str5" />
        <line y2="9777" x2="14962" y1="8278" x1="14560" class="fil4 str5" />
        <line y2="4188" x2="13464" y1="2719" x1="13070" class="fil4 str5" />
        <line y2="9777" x2="13741" y1="8278" x1="13339" class="fil4 str5" />
        <line y2="4322" x2="12279" y1="2851" x1="11885" class="fil4 str5" />
        <line y2="9777" x2="12520" y1="8278" x1="12119" class="fil4 str5" />
        <line y2="4455" x2="11094" y1="2984" x1="10700" class="fil4 str5" />
        <line y2="9777" x2="11300" y1="8278" x1="10898" class="fil4 str5" />
        <line y2="4589" x2="9910" y1="3117" x1="9515" class="fil4 str5" />
        <line y2="9777" x2="10079" y1="8278" x1="9678" class="fil4 str5" />
        <line y2="4722" x2="8725" y1="3249" x1="8330" class="fil4 str5" />
        <line y2="9777" x2="8859" y1="8278" x1="8457" class="fil4 str5" />
        <line y2="4856" x2="7540" y1="3017" x1="7047" class="fil4 str5" />
        <line y2="10329" x2="7786" y1="8278" x1="7236" class="fil4 str5" />
        <line y2="7304" x2="6975" y1="3204" x1="5877" class="fil4 str5" />
        <line y2="10329" x2="6565" y1="3392" x1="4706" class="fil4 str5" />
        <line y2="10329" x2="5345" y1="3579" x1="3536" class="fil4 str5" />
        <line y2="10329" x2="4124" y1="3767" x1="2366" class="fil4 str5" />
        <line y2="10329" x2="2903" y1="6424" x1="1857" class="fil4 str5" />
        <line y2="5683" x2="17614" y1="5683" x1="17995" class="fil4 str6" />
        <line y2="5683" x2="16964" y1="5683" x1="17250" class="fil4 str6" />
        <line y2="5683" x2="15999" y1="5683" x1="16284" class="fil4 str6" />
    </g>
    <path id="staircase1" class="fil3" d="m8489 7001h15v20l-15-20zm15 20l-15 20h-257v-41h257l15 20zm-287 0v-20h15l-15 20zm15-20l15 20v1236h-30v-1236l15-20zm0 1277h-15v-20l15 20zm-15-20l15-20h257v41h-257l-15-20zm287 0v20h-15l15-20zm-15 20l-15-20v-1236h30v1236l-15 20zm257-1277h15v20l-15-20zm15 20l-15 20h-257v-41h257l15 20zm-287 0v-20h15l-15 20zm15-20l15 20v1236h-30v-1236l15-20zm0 1277h-15v-20l15 20zm-15-20l15-20h257v41h-257l-15-20zm287 0v20h-15l15-20zm-15 20l-15-20v-1236h30v1236l-15 20zm257-1277h15v20l-15-20zm15 20l-15 21h-257v-41h257l15 20zm-287 0v-20h15l-15 20zm15-20l15 20v1236h-30v-1236l15-20zm0 1277h-15v-20l15 20zm-15-20l15-20h257v41h-257l-15-20zm287 0v20h-15l15-20zm-15 20l-15-20v-1236h30v1236l-15 20zm257-1277h15v20l-15-20zm15 20l-15 21h-257v-41h257l15 20zm-287 0v-20h15l-15 20zm15-20l15 20v1236h-30v-1236l15-20zm0 1277h-15v-20l15 20zm-15-20l15-20h257v41h-257l-15-20zm287 0v20h-15l15-20zm-15 20l-15-20v-1236h30v1236l-15 20zm257-1277h15v20l-15-20zm15 20l-15 20h-257v-41h257l15 20zm-287 0v-20h15l-15 20zm15-20l15 20v1236h-30v-1236l15-20zm0 1277h-15v-20l15 20zm-15-20l15-20h257v41h-257l-15-20zm287 0v20h-15l15-20zm-15 20l-15-20v-1236h30v1236l-15 20zm257-1277h15v20l-15-20zm15 20l-15 20h-257v-41h257l15 20zm-287 0v-20h15l-15 20zm15-20l15 20v1236h-30v-1236l15-20zm0 1277h-15v-20l15 20zm-15-20l15-20h257v41h-257l-15-20zm287 0v20h-15l15-20zm-15 20l-15-20v-1236h30v1236l-15 20zm0-1277h15v20l-15-20zm15 20l-15 20h-1542v-41h1542l15 20zm-1571 0v-20h15l-15 20zm15-20l15 20v618h-30v-618l15-20zm0 659h-15v-20l15 20zm-15-20l15-20h1542v41h-1542l-15-20zm1571 0v20h-15l15-20zm-15 20l-15-20v-618h30v618l-15 20z" />
    <path id="staircase2" class="fil3" d="m15377 4453l2 15-15 2 13-16zm-13 16l-16-13-29-255 29-3 29 255-13 16zm-33-285l15-2 2 15-16-13zm16 13l-13 16-890 102-3-29 890-102 16 13zm-920 106l-2-15 15-2-13 16zm13-16l16 13 29 255-30 3-29-255 13-16zm33 285l-15 2-2-15 16 13zm-16-13l13-16 890-102 3 29-890 102-16-13zm949 150l2 15-15 2 13-16zm-13 16l-16-13-29-255 29-3 29 255-13 16zm-33-285l15-2 2 15-16-13zm16 13l-13 16-890 102-3-30 890-102 16 13zm-920 106l-2-15 15-2-13 16zm13-16l16 13 29 255-29 3-29-255 13-16zm33 285l-15 2-2-15 16 13zm-16-13l13-16 890-102 3 29-890 102-16-13zm949 150l2 15-15 2 13-16zm-13 16l-16-13-29-255 29-3 29 255-13 16zm-33-285l15-2 2 15-16-13zm16 13l-13 16-890 102-3-29 890-102 16 13zm-920 106l-2-15 15-2-13 16zm13-16l16 13 29 255-29 3-29-255 13-16zm33 285l-15 2-2-15 16 13zm-16-13l13-16 890-102 3 29-890 102-16-13zm949 150l2 15-15 2 13-16zm-13 16l-16-13-29-255 30-3 29 255-13 16zm-33-285l15-2 2 15-16-13zm16 13l-13 16-890 102-3-29 890-102 16 13zm-920 106l-2-15 15-2-13 16zm13-16l16 13 29 255-29 3-29-255 13-16zm33 285l-15 2-2-15 16 13zm-16-13l13-16 890-102 3 29-890 102-16-13zm949 150l2 15-15 2 13-16zm-13 16l-16-13-29-255 29-3 29 255-13 16zm-33-285l15-2 2 15-16-13zm16 13l-13 16-890 102-3-29 890-102 16 13zm-920 106l-2-15 15-2-13 16zm13-16l16 13 29 255-30 3-29-255 13-16zm33 285l-15 2-2-15 16 13zm-16-13l13-16 890-102 3 30-890 102-16-13zm16 13l-3-30 890-102 3 30-890 102zm887-132l3 30-890 102-3-30 890-102zm-442 81l-15 2-2-15 16 13zm-16-13l13-16 445-51 3 29-445 51-16-13zm475-55l2 15-15 2 13-16zm-13 16l-16-13-147-1276 29-3 147 1276-13 16zm-150-1306l15-2 2 15-16-13zm16 13l-13 16-445 51-3-29 445-51 16 13zm-475 55l-2-15 15-2-13 16zm13-16l16 13 147 1276-29 3-147-1276 13-16z" />
    <g id="walls">
        <polyline points="16964 4844 16964 5683 16765 5683" class="fil4 str6" />
        <line y2="4844" x2="17995" y1="4844" x1="15999" class="fil4 str6" />
        <polyline points="15999 6379 15999 4844 15736 4844 15645 3942" class="fil4 str6" />
        <polyline points="14729 6955 14729 7040 15999 7040 15999 6955" class="fil4 str6" />
        <polyline points="14087 4118 14301 5931 14729 5931 14729 6385" class="fil4 str6" />
        <line y2="6502" x2="19040" y1="6633" x1="19040" class="fil4 str6" />
        <line y2="6978" x2="19040" y1="7109" x1="19040" class="fil4 str6" />
        <polyline points="21058 6092 20373 6092 20373 6502 18006 6502 18006 6633" class="fil4 str6" />
        <line y2="6978" x2="18006" y1="7109" x1="18006" class="fil4 str6" />
        <polyline points="18710 7109 19418 7109 19663 7448 19663 8278" class="fil4 str6" />
        <polyline points="17803 8278 17803 7109 18280 7109" class="fil4 str6" />
        <line y2="7001" x2="7139" y1="6898" x1="7139" class="fil4 str6" />
        <line y2="6446" x2="7139" y1="6343" x1="7139" class="fil4 str6" />
        <polyline points="7908 7001 10408 7001 10408 8278" class="fil4 str6" />
        <polyline points="7118 7304 7118 7001 7301 7001" class="fil4 str6" />
        <line y2="7911" x2="7118" y1="8278" x1="7118" class="fil4 str6" />
        <polyline points="8209 5112 8317 5112 8274 4773" class="fil4 str6" />
        <polyline points="6932 4924 7139 6343 7431 6343 7431 5112 8209 5112 8209 6241 7995 6241" class="fil4 str6" />
        <polyline points="21113 8278 6735 8278 6735 8707 3837 8707 3837 5072 6746 4605 6794 4940 17923 3686 17995 4421 17995 5993" class="fil4 str6" />
        <polyline points="20373 6502 20373 7036 21081 7036" class="fil4 str6" />
        <path class="fil3" d="m8285 10326l3 122h-122l118-122zm-118 122h-6149v-237h6149l118 115-118 122zm-6149 0h-119v-118l119 118zm-119-118v-3075h237v3075l-119 118-119-118zm118-3194l120-1v120l-120-118zm120 118l-118 118-366 4-2-237 366-4 120 118zm-484 122l-119 1v-120l119 118zm-119-118v-836h237v836l-117 118-119-118zm0-836v-120l120 1-120 118zm120-118l366 4-3 237-366-4-117-118 120-118zm483 123v120l-120-1 120-118zm-120 118l-117-118v-2603h237v2603l-120 118zm-117-2721v-101l100-16-100 117zm100-117l5880-942 37 234-5880 942-137-117 100-117zm5880-942l121-19 15 122-136-103zm136 103l51 412-236 29-51-412 99-131 136 103zm-54 544l-116 13-14-116 131 103zm-131-103l105-132 10305-1154 26 236-10305 1154-131-103zm10541-1184l16 120-120 13 104-133zm-104 133l-130-102-66-495 235-31 66 495-104 133zm-196-597l-16-120 120-13-104 133zm104-133l2749-303 26 236-2749 303-130-102 104-133zm2749-303l128-14 3 129-131-115zm131 115l213 8437-237 6-213-8436 105-121 131 115zm213 8437l3 122h-121l118-122zm-118 122h-5518v-237h5518l118 116-118 122zm-5518 0h-7482v-237h7482v237zm-7600-115l-3-122h122l-118 122zm118-122l118 115 16 552-237 7-16-552 118-122z" />
    </g>
    <g transform="translate(-224.54694,342.04801)">
        <use xlink:href="#elevator" />
    </g>
    <g transform="translate(8451.7345,-22.911862)">
        <use xlink:href="#elevator" />
    </g>
    <g transform="translate(13290.91,2424.2184)">
        <use xlink:href="#toilet" />
    </g>
    <g transform="translate(15008.098,2412.6078)">
        <use xlink:href="#toilet" />
    </g>

    <g class="fil6" ng-if="evacuationActive">
        <g transform="translate(7400,6700)">
            <use transform="matrix(1,0,0,1,0,0)" xlink:href="#arrow"></use>
            <use transform="matrix(0,1,1,0,0,1000)" xlink:href="#arrow"></use>
            <use transform="matrix(0,1,1,0,1500,1000)" xlink:href="#arrow"></use>
        </g>
        <g transform="translate(14600,5300)">
            <use transform="matrix(1,0,-0.2,-1,0,0)" xlink:href="#arrow"></use>
            <use transform="matrix(1,0,-0.2,-1,230,1300)" xlink:href="#arrow"></use>
            <use transform="matrix(0,1,-1,0,1500,1000)" xlink:href="#arrow"></use>
        </g>
    </g>
</svg>
