<svg xmlns="http://www.w3.org/2000/svg" version="1.1" clip-rule="evenodd"
     xmlns:xlink="http://www.w3.org/1999/xlink" viewBox="0 0 22222 11111">

    <polygon id="background" points="22222 11111 0 11111 0 0 22222 0" class="fil0" />
    <g class="fil2">
        <polygon id="atexpo" ng-if="selectedRoom.name=='AT Expocorner lab'" points="14427 9755 13179 9755 13179 6703 14463 6703 14597 9733 " />
        <polygon id="ptexpo" ng-if="selectedRoom.name=='PT Expocorner lab'" points="20872 9755 16795 9755 16656 6703 20984 6703 21102 7507 21129 9733 " />
        <polygon id="bronowice" ng-if="selectedRoom.name=='Bronowice'" points="6619 7957 4314 7957 4314 6568 6619 6568 " />
        <polygon id="kazimierz" ng-if="selectedRoom.name=='Kazimierz'" points="11473 9755 8673 9755 8673 6703 11459 6703 11459 7494 11703 7507 11730 9733 " />
        <polygon id="czochralski" ng-if="selectedRoom.name=='Czochralski lab'" points="18097 6704 18100 5686 18352 5618 18366 4049 17478 4049 17449 4239 16074 4259 16074 2797 16748 2797 16748 1238 20882 833 21076 6708 " />
        <polygon id="elevator1" ng-if="selectedRoom.name=='Elevators'" points="8567 5960 7571 5960 7516 4637 8567 4644 " />
        <polygon id="elevator2" ng-if="selectedRoom.name=='Elevators'" points="17462 5653 16062 5653 16044 4236 17462 4244 " />
        <polygon id="toilet1" ng-if="selectedRoom.name=='Restrooms'" points="6206 5984 4516 5984 4461 4646 6206 4654 " />
        <polygon id="toilet2" ng-if="selectedRoom.name=='Restrooms'" points="13980 5618 12761 5618 12715 3701 13966 3709 " />
        <polygon id="toilet3" ng-if="selectedRoom.name=='Restrooms'" points="13184 7510 12333 7510 12336 6711 13184 6715 " />
        <polygon id="toilet4" ng-if="selectedRoom.name=='Restrooms'" points="15708 7351 14463 7351 14447 6690 15615 6694 " />
        <text x="4472" y="7390" class="fil5 fnt2">BRONOWICE</text>
        <text x="9332" y="8319" class="fil5 fnt2">KAZIMIERZ</text>
        <text x="18547" y="4983" class="fil5 fnt2">CZOCHRALSKI</text>
        <text x="17644" y="8476" class="fil5 fnt2">PT EXPOCORNER</text>
        <text x="13687" y="8309" class="fil5 fnt5">AT</text>
        <text x="13440" y="8589" class="fil5 fnt5">EXPO</text>
        <text x="13278" y="8868" class="fil5 fnt5">CORNER</text>
    </g>
    <path class="fil3" d="M14567 5203l0-15 24 0-24 15zm24-15l0 0 24 15 0 258-48 0 0-258 24-15zm0 287l0 0-24 0 0-15 24 15zm-24-15l0 0 24-15 1458 0 0 30-1458 0-24-15zm1507 0l0 0 0 15-24 0 24-15zm-24 15l0 0-24-15 0-258 48 0 0 258-24 15zm0-287l0 0 24 0 0 15-24-15zm24 15l0 0-24 15-1458 0 0-30 1458 0 24 15zm-1507-258l0 0 0-15 24 0-24 15zm24-15l0 0 24 15 0 258-48 0 0-258 24-15zm0 287l0 0-24 0 0-15 24 15zm-24-15l0 0 24-15 1458 0 0 30-1458 0-24-15zm1507 0l0 0 0 15-24 0 24-15zm-24 15l0 0-24-15 0-258 48 0 0 258-24 15zm0-287l0 0 24 0 0 15-24-15zm24 15l0 0-24 15-1458 0 0-30 1458 0 24 15zm-1507-258l0 0 0-15 24 0-24 15zm24-15l0 0 24 15 0 258-48 0 0-258 24-15zm0 287l0 0-24 0 0-15 24 15zm-24-15l0 0 24-15 1458 0 0 30-1458 0-24-15zm1507 0l0 0 0 15-24 0 24-15zm-24 15l0 0-24-15 0-258 48 0 0 258-24 15zm0-287l0 0 24 0 0 15-24-15zm24 15l0 0-24 15-1458 0 0-30 1458 0 24 15zm-1507-258l0 0 0-15 24 0-24 15zm24-15l0 0 24 15 0 258-48 0 0-258 24-15zm0 287l0 0-24 0 0-15 24 15zm-24-15l0 0 24-15 1458 0 0 30-1458 0-24-15zm1507 0l0 0 0 15-24 0 24-15zm-24 15l0 0-24-15 0-258 48 0 0 258-24 15zm0-287l0 0 24 0 0 15-24-15zm24 15l0 0-24 15-1458 0 0-30 1458 0 24 15zm-1507-258l0 0 0-15 24 0-24 15zm24-15l0 0 24 15 0 258-48 0 0-258 24-15zm0 287l0 0-24 0 0-15 24 15zm-24-15l0 0 24-15 1458 0 0 30-1458 0-24-15zm1507 0l0 0 0 15-24 0 24-15zm-24 15l0 0-24-15 0-258 48 0 0 258-24 15zm0-287l0 0 24 0 0 15-24-15zm24 15l0 0-24 15-1458 0 0-30 1458 0 24 15zm-1507-258l0 0 0-15 24 0-24 15zm24-15l0 0 24 15 0 258-48 0 0-258 24-15zm0 287l0 0-24 0 0-15 24 15zm-24-15l0 0 24-15 1458 0 0 30-1458 0-24-15zm1507 0l0 0 0 15-24 0 24-15zm-24 15l0 0-24-15 0-258 48 0 0 258-24 15zm0-287l0 0 24 0 0 15-24-15zm24 15l0 0-24 15-1458 0 0-30 1458 0 24 15zm-1507 0l0 0 0-15 24 0-24 15zm24-15l0 0 24 15 0 1545-48 0 0-1545 24-15zm0 1575l0 0-24 0 0-15 24 15zm-24-15l0 0 24-15 729 0 0 30-729 0-24-15zm777 0l0 0 0 15-24 0 24-15zm-24 15l0 0-24-15 0-1545 48 0 0 1545-24 15zm0-1575l0 0 24 0 0 15-24-15zm24 15l0 0-24 15-729 0 0-30 729 0 24 15zM11474 4251l663 0 0 119-663 0 0-119zm856 3239l0 0 0-179 119 0 0 179-119 0zm0-494l0 0 0-296 119 0 0 296-119 0zm-6495-316l0 0-1522 0 0-119 1522 0 0 119zm-1581-59l0 0 0-59 60 0-60 59zm60-59l0 0 60 59 0 1356-119 0 0-1356 60-59zm0 1475l0 0-60 0 0-60 60 60zm-60-60l0 0 60-60 2305 0 0 119-2305 0-60-60zm2424 0l0 0 0 60-59 0 59-60zm-59 60l0 0-60-60 0-1356 119 0 0 1356-59 60zm0-1475l0 0 59 0 0 60-59-60zm59 60l0 0-59 60-386 0 0-119 386 0 59 60zm53 1415l0 0-2523 0 0-119 2523 0 0 119zm-1327 2299l0 0 0-2359 119 0 0 2359-119 0zm-2301-2350l0 0 0-106 119 0 0 106-119 0zm0-453l0 0 0-81 119 0 0 81-119 0zm0-81l0 0 0-60 60 0-60 60zm60-60l0 0 511 0 0 119-511 0-60-59 60-60zm571 60l0 0 0 59-60 0 60-59zm-60 59l0 0-59-59 0-1571 119 0 0 1571-60 59zm-415 534l0 0-1300 0 0-119 1300 0 0 119zm796-2957l0 0-559 0 0-119 559 0 0 119zm3337 875l0 0-700 0 0-119 700 0 0 119zm9429-4685l0 0 0 1519-119 0 0-1519 119 0zm-3683 6272l0 0-881 0 0-119 881 0 0 119zm-1285 4l0 0-122 0 0-119 122 0 0 119zm-374-879l0 0 0 298-119 0 0-298 119 0zm-3952 242l0 0-323 0 0-119 323 0 0 119zm-382-59l0 0 0-59 60 0-60 59zm60-59l0 0 60 59 0 3479-119 0 0-3479 60-59zm-3508 3538l0 0 0-2359 119 0 0 2359-119 0zm4601-3534l0 0 344 0 0 119-344 0 0-119zm8486 2983l0 0-51-1186 119-5 51 1186-119 5zm-67-1570l0 0-65-1512 119-5 65 1512-119 5zm-3605 1567l0 0 2-3082 119 0-2 3082-119 0zm1374 2l0 0-54-1264 119-5 54 1264-119 5zm-70-1624l0 0-64-1458 119-5 64 1458-119 5zm-64-1458l0 0-3-62 62 0-59 62zm59-62l0 0 68 0 0 119-68 0-59-57 59-62zm128 58l0 0 1 61-61 0 59-61zm-59 61l0 0-59-58-6-302 119-2 6 302-59 61zm-3014 600l0 0 0 134-119 0 0-134 119 0zm-60 194l0 0-59 0 0-60 59 60zm-59-60l0 0 59-60 326 0 0 119-326 0-59-60zm385-60l0 0 59 0 0 60-59-60zm59 60l0 0-7 2288-119 0 7-2288 59-60 59 60zm9270-735l0 0-4621 0 0-119 4621 0 0 119zm-5374 422l0 0 20 122-117 19-20-122 117-19zm20 122l0 0 11 67-69 1 57-69zm-57 69l0 0-637 13-2-119 637-13 60 50-57 69zm81 399l0 0 22 117-117 21-22-117 117-21zm22 117l0 0 13 68-69 2 57-70zm-57 70l0 0-621 22-4-119 621-22 60 49-57 70zm-621 22l0 0-55 2-6-55 61 53zm-61-53l0 0-61-595 118-12 61 595-57 65-61-53zm-5-660l0 0 56-3 6 56-62-53zm62 53l0 0-56 65-574 30-6-119 574-30 62 53zm762-560l0 0-3620 0 0-119 3620 0 0 119zm-4033 0l0 0-783 0 0-119 783 0 0 119zm-752 0l0 0-2408 0 0-119 2408 0 0 119zm-2467-59l0 0-1-60 60 0-59 60zm59-60l0 0 59 59 45 3082-119 1-45-3082 59-60zm8838-2660l0 0 888 0 0 119-888 0 0-119zm-1480-1065l0 0 0-119 119 0 0 119-119 0zm0-119l0 0 0-60 60 0-60 60zm60-60l0 0 1651 0 0 119-1651 0-60-60 60-60zm1994 0l0 0 507 0 0 119-507 0 0-119zm881 0l0 0 2057 0 0 119-2057 0 0-119zm-836 3229l0 0 0-340 119 0 0 340-119 0zm0-340l0 0 0-59 60 0-60 60zm60-60l0 0 197 0 0 119-197 0-60-60 60-60zm256 60l0 0 0 59-59 0 59-59zm-59 59l0 0-59-60 12-1713 119 0-12 1713-59 59zm-45-2197l0 0 16-2387 119 0-16 2387-119 0zm-799-692l0 0 0 145-119 0 0-145 119 0zm0 547l0 0 0 2267-119 0 0-2267 119 0zm0 2267l0 0 0 60-60 0 60-60zm-60 60l0 0-298 0 0-119 298 0 60 60-60 60zm-1391-1480l0 0 1391 0 0 119-1391 0 0-119zm558 1480l0 0-558 0 0-119 558 0 0 119zm-558 0l0 0-60 0 0-60 60 60zm-60-60l0 0 0-2079 119 0 0 2079-60 60-60-60zm-1381-2079l0 0 0 200-119 0 0-200 119 0zm-1893 1124l0 0-27-1105 119-3 27 1105-119 3zm-37-1515l0 0-34-1409 119-3 34 1409-119 3zm167 1973l0 0 13 497-119 3-13-497 119-3zm-46 558l0 0-58 0-2-58 59 58zm-59-58l0 0 59-61 767 0 0 119-767 0-59-58zm827-61l0 0 524 0 0 119-524 0 0-119zm831 348l0 0 0-288 119 0 0 288-119 0zm0-288l0 0 0-60 60 0-60 60zm60-60l0 0 93 0 0 119-93 0-60-60 60-60zm152 60l0 0 0 60-60 0 60-60zm-60 60l0 0-60-60 0-1880 119 0 0 1880-60 60zm0-1999l0 0 60 0 0 60-60-60zm60 60l0 0-60 60-600 0 0-119 600 0 60 60zm-719 1880l0 0 0-1880 119 0 0 1880-119 0zm59-1939l0 0 59 0 0 60-59-60zm59 60l0 0-59 60-1197 0 0-119 1197 0 59 60zm-2603 730l0 0 0-2561 119 0 0 2561-119 0zm178 497l0 0 0 957-119 0 0-957 119 0zm0 957l0 0 0 60-60 0 60-60zm-60 60l0 0-3005 0 0-119 3005 0 60 60-60 60zm-3005 0l0 0-60 0 0-60 60 60zm-60-60l0 0 0-3667 119 0 0 3667-60 60-60-60zm9739 492l0 0 0 298-119 0 0-298 119 0zm144-721l0 0-298 0 0-119 298 0 0 119zm-2235-2889l0 0 0 734-119 0 0-734 119 0zm-1833-250l0 0 0-974 119 0 0 974-119 0zm1773 1044l0 0-1700 0 0-119 1700 0 0 119zm-1700 0l0 0-60 0 0-59 60 59zm-60-59l0 0 0-537 119 0 0 537-60 59-60-59zm-2124-466l0 0-700 0 0-119 700 0 0 119zm4390 2546l0 0 0 298-119 0 0-298 119 0zm0 792l0 0 0 298-119 0 0-298 119 0zm-4971-488l0 0 0 149-119 0 0-149 119 0zm0 488l0 0 0 298-119 0 0-298 119 0zm-8156-503l0 0 0-416 119 0 0 416-119 0zm0-767l0 0 0-2141 119 0 0 2141-119 0zm1737 738l0 0 347 0 0 119-347 0 0-119zm735 0l0 0 277 0 0 119-277 0 0-119zm337 60l0 0 0 60-60 0 60-60zm-60 60l0 0-60-60 0-1255 119 0 0 1255-60 60zm0-1374l0 0 60 0 0 59-60-59zm60 59l0 0-60 59-1719 0 0-119 1719 0 60 59zm-1838 0l0 0 0-59 60 0-60 59zm60-59l0 0 60 59 0 1255-119 0 0-1255 60-59zm0 1374l0 0-60 0 0-60 60 60zm-60-60l0 0 60-60 301 0 0 119-301 0-60-60zm1891 60l0 0-187 0 0-119 187 0 0 119zm-651-3324l0 0 0 2010-119 0 0-2010 119 0zm-1679 3275l0 0-2009 0 0-119 2009 0 0 119zm3296 688l0 0 0 240-119 0 0-240 119 0zm12089 3154l0 0 0-1089 119 0 0 1089-119 0zM8593 10332l3 122-122 0 119-122zm-119 122l0 0-6515 0 0-237 6515 0 119 115-119 122zm-6515 0l0 0-119 0 0-119 119 119zm-119-119l0 0 0-3083 238 0 0 3083-119 119-119-119zm118-3202l0 0 120-1 0 120-120-119zm120 119l0 0-118 119-367 4-2-237 367-4 120 119zm-485 122l0 0-120 1 0-120 120 119zm-120-119l0 0 0-1380 237 0 0 1380-118 119-120-119zm0-1380l0 0 0-120 120 1-120 119zm120-119l0 0 367 4-3 237-367-4-117-119 120-119zm484 123l0 0 0 120-120-1 120-119zm-120 119l0 0-118-119 0-2649 238 0 0 2649-120 119zm-118-2768l0 0 0-101 101-16-101 117zm101-117l0 0 6150-961 36 234-6150 961-137-117 101-117zm6150-961l0 0 5-1 5-1-10 2zm5-1l0 0 4386-518 27 236-4386 518-32-235 5-1zm4386-518l0 0 0 0-8 1 7-1zm0 0l0 0 5661-628 26 236-5661 628-26-236 0 0zm5661-628l0 0 2756-304 26 236-2756 304-26-236zm2756-304l0 0 128-14 3 129-132-115zm132 115l0 0 226 8960-237 6-226-8960 106-121 132 115zm226 8960l0 0 3 122-122 0 119-122zm-119 122l0 0-5532 0 0-238 5532 0 119 116-119 122zm-5532 0l0 0-7149 0 0-238 7149 0 0 238zm-7267-116l0 0-3-122 122 0-119 122zm119-122l0 0 119 116 16 553-237 7-16-553 119-122zM7202 8774l0-15 24 0-24 15zm24-15l0 0 24 15 0 258-47 0 0-258 24-15zm0 287l0 0-24 0 0-15 24 15zm-24-15l0 0 24-15 1430 0 0 30-1430 0-24-15zm1477 0l0 0 0 15-24 0 24-15zm-24 15l0 0-24-15 0-258 47 0 0 258-24 15zm0-287l0 0 24 0 0 15-24-15zm24 15l0 0-24 15-1430 0 0-30 1430 0 24 15zm-1477-258l0 0 0-15 24 0-24 15zm24-15l0 0 24 15 0 258-47 0 0-258 24-15zm0 287l0 0-24 0 0-15 24 15zm-24-15l0 0 24-15 1430 0 0 30-1430 0-24-15zm1477 0l0 0 0 15-24 0 24-15zm-24 15l0 0-24-15 0-258 47 0 0 258-24 15zm0-287l0 0 24 0 0 15-24-15zm24 15l0 0-24 15-1430 0 0-30 1430 0 24 15zm-1477-258l0 0 0-15 24 0-24 15zm24-15l0 0 24 15 0 258-47 0 0-258 24-15zm0 287l0 0-24 0 0-15 24 15zm-24-15l0 0 24-15 1430 0 0 30-1430 0-24-15zm1477 0l0 0 0 15-24 0 24-15zm-24 15l0 0-24-15 0-258 47 0 0 258-24 15zm0-287l0 0 24 0 0 15-24-15zm24 15l0 0-24 15-1430 0 0-30 1430 0 24 15zm-1477-258l0 0 0-15 24 0-24 15zm24-15l0 0 24 15 0 258-47 0 0-258 24-15zm0 287l0 0-24 0 0-15 24 15zm-24-15l0 0 24-15 1430 0 0 30-1430 0-24-15zm1477 0l0 0 0 15-24 0 24-15zm-24 15l0 0-24-15 0-258 47 0 0 258-24 15zm0-287l0 0 24 0 0 15-24-15zm24 15l0 0-24 15-1430 0 0-30 1430 0 24 15zm-1477-258l0 0 0-15 24 0-24 15zm24-15l0 0 24 15 0 258-47 0 0-258 24-15zm0 287l0 0-24 0 0-15 24 15zm-24-15l0 0 24-15 1430 0 0 30-1430 0-24-15zm1477 0l0 0 0 15-24 0 24-15zm-24 15l0 0-24-15 0-258 47 0 0 258-24 15zm0-287l0 0 24 0 0 15-24-15zm24 15l0 0-24 15-1430 0 0-30 1430 0 24 15zm-1477-258l0 0 0-15 24 0-24 15zm24-15l0 0 24 15 0 258-47 0 0-258 24-15zm0 287l0 0-24 0 0-15 24 15zm-24-15l0 0 24-15 1430 0 0 30-1430 0-24-15zm1477 0l0 0 0 15-24 0 24-15zm-24 15l0 0-24-15 0-258 47 0 0 258-24 15zm0-287l0 0 24 0 0 15-24-15zm24 15l0 0-24 15-1430 0 0-30 1430 0 24 15zm-1477 0l0 0 0-15 24 0-24 15zm24-15l0 0 24 15 0 1545-47 0 0-1545 24-15zm0 1575l0 0-24 0 0-15 24 15zm-24-15l0 0 24-15 715 0 0 30-715 0-24-15zm762 0l0 0 0 15-24 0 24-15zm-24 15l0 0-24-15 0-1545 47 0 0 1545-24 15zm0-1575l0 0 24 0 0 15-24-15zm24 15l0 0-24 15-715 0 0-30 715 0 24 15z" />
    <polygon class="fil3" points="8481 4725 7609 4725 7609 5855 7800 5855 7800 5974 7549 5974 7490 5974 7490 5914 7490 4666 7490 4606 7549 4606 8540 4606 8600 4606 8600 4666 8600 5914 8600 5974 8540 5974 8255 5974 8255 5855 8481 5855 " />
    <g transform="translate(8745.851,-332.3089)">
        <use xlink:href="#elevator" />
    </g>
    <g transform="translate(-9.9892306,17.519965)">
        <use xlink:href="#elevator" />
    </g>
    <g transform="translate(8.0440694,50.496097)">
        <use xlink:href="#toilet" />
    </g>
    <g transform="translate(8068.6942,-549.91658)">
        <use xlink:href="#toilet" />
    </g>
    <g transform="translate(-136.1444,-117.37155)">
        <use xlink:href="#lab" />
    </g>
    <g transform="translate(-798.47898,3518.7101)">
        <use xlink:href="#lab" />
    </g>
    <g transform="translate(-5786.2639,3315.9546)">
        <use xlink:href="#lab" />
    </g>
    <g class="fil6" ng-if="evacuationActive">
        <g transform="translate(4000,6500)">
            <use transform="matrix(1,0,0,1,-100,-1300)" xlink:href="#arrow"></use>
            <use transform="matrix(1,0,0,-1,-250,800)" xlink:href="#arrow"></use>
            <use transform="matrix(0,-1,1,0,0,0)" xlink:href="#arrow"></use>
            <use transform="matrix(0,-1,1,0,1500,0)" xlink:href="#arrow"></use>
            <use transform="matrix(0,-1,1,0,3000,0)" xlink:href="#arrow"></use>
        </g>
        <g transform="translate(17400,6000)">
            <use transform="matrix(1,0,0,-1,-1500,1500)" xlink:href="#arrow"></use>
            <use transform="matrix(0,1,1,0,-2000,2200)" xlink:href="#arrow"></use>
            <use transform="matrix(0,1,-1,0,100,2200)" xlink:href="#arrow"></use>
        </g>
        <g transform="translate(16250,5000)">
            <use transform="matrix(1,0,0,-1,-1500,0)" xlink:href="#arrow"></use>
        </g>
        <g transform="translate(16250,6400)">
            <use transform="matrix(0,-1,-1,0,0,0)" xlink:href="#arrow"></use>
            <use transform="matrix(0,-1,-1,0,1500,0)" xlink:href="#arrow"></use>
            <use transform="matrix(0,-1,-1,0,3000,0)" xlink:href="#arrow"></use>
            <use transform="matrix(1,0,0,1,2500,-3000)" xlink:href="#arrow"></use>
            <use transform="matrix(1,0,0,1,2500,-4500)" xlink:href="#arrow"></use>
            <use transform="matrix(1,0,0,1,1400,-2000)" xlink:href="#arrow"></use>
            <use transform="matrix(0,1,1,0,1400,-3000)" xlink:href="#arrow"></use>
        </g>
        <g transform="translate(9500,6500)">
            <use transform="matrix(0,-1,-1,0,0,0)" xlink:href="#arrow"></use>
            <use transform="matrix(0,-1,-1,0,1500,0)" xlink:href="#arrow"></use>
            <use transform="matrix(0,-1,1,0,3000,0)" xlink:href="#arrow"></use>
        </g>
        <g transform="translate(7400,7500)">
            <use transform="matrix(1,0,0,1,0,0)" xlink:href="#arrow"></use>
            <use transform="matrix(1,0,0,1,0,1500)" xlink:href="#arrow"></use>
        </g>
        <g transform="translate(12000,3500)">
            <use transform="matrix(0,-1,1,0,-1500,1500)" xlink:href="#arrow"></use>
            <use transform="matrix(0,-1,-1,0,1750,0)" xlink:href="#arrow"></use>
            <use transform="matrix(1,0,0,1,0,0)" xlink:href="#arrow"></use>
            <use transform="matrix(1,0,0,1,0,1500)" xlink:href="#arrow"></use>
        </g>
    </g>
</svg>
