<svg xmlns="http://www.w3.org/2000/svg" version="1.1" clip-rule="evenodd"
     xmlns:xlink="http://www.w3.org/1999/xlink" viewBox="0 0 22222 11111">
    <polygon id="background" points="22222 11111 0 11111 0 0 22222 0" class="fil0" />
    <g id="rooms" class="fil2">
        <polygon id="waweld" ng-if="selectedRoom.name=='Wawel D'" points="20994 6637 18311 6637 18331 1102 20949 852" />
        <polygon id="wawelm" ng-if="selectedRoom.name=='Wawel M'" points="21067 9715 18270 9715 18270 6759 21067 6759" />
        <polygon id="planty" ng-if="selectedRoom.name=='Planty'" points="6624 7998 4300 7998 4300 6565 6624 6565" />
        <polygon id="elevator1" ng-if="selectedRoom.name=='Elevators'" points="8581 5960 7585 5960 7530 4637 8581 4644" />
        <polygon id="elevator2" ng-if="selectedRoom.name=='Elevators'" points="17476 5653 16076 5653 16058 4236 17476 4244" />
        <polygon id="toilet1" ng-if="selectedRoom.name=='Restrooms'" points="6206 5970 4516 5970 4461 4633 6206 4640" />
        <polygon id="toilet2" ng-if="selectedRoom.name=='Restrooms'" points="13099 6065 11915 6065 11871 4065 12776 4065 12769 3874 13769 3874 13787 4704 13788 6026" />
        <text y="3894" x="18943" class="fil5 fnt2">WAWEL D</text>
        <text y="8469" x="18943" class="fil5 fnt2">WAWEL M</text>
        <text y="7428" x="4837" class="fil5 fnt2">PLANTY</text>
    </g>
    <g id="walls" class="fil3">
        <path d="m14547 5203v-15h24l-24 15zm24-15l24 15v258h-49v-258l24-15zm0 287h-24v-15l24 15zm-24-15l24-15h1473v30h-1473l-24-15zm1522 0v15h-24l24-15zm-24 15l-24-15v-258h49v258l-24 15zm0-287h24v15l-24-15zm24 15l-24 15h-1473v-30h1473l24 15zm-1522-258v-15h24l-24 15zm24-15l24 15v258h-49v-258l24-15zm0 287h-24v-15l24 15zm-24-15l24-15h1473v30h-1473l-24-15zm1522 0v15h-24l24-15zm-24 15l-24-15v-258h49v258l-24 15zm0-287h24v15l-24-15zm24 15l-24 15h-1473v-30h1473l24 15zm-1522-258v-15h24l-24 15zm24-15l24 15v258h-49v-258l24-15zm0 287h-24v-15l24 15zm-24-15l24-15h1473v30h-1473l-24-15zm1522 0v15h-24l24-15zm-24 15l-24-15v-258h49v258l-24 15zm0-287h24v15l-24-15zm24 15l-24 15h-1473v-30h1473l24 15zm-1522-258v-15h24l-24 15zm24-15l24 15v258h-49v-258l24-15zm0 287h-24v-15l24 15zm-24-15l24-15h1473v30h-1473l-24-15zm1522 0v15h-24l24-15zm-24 15l-24-15v-258h49v258l-24 15zm0-287h24v15l-24-15zm24 15l-24 15h-1473v-30h1473l24 15zm-1522-258v-15h24l-24 15zm24-15l24 15v258h-49v-258l24-15zm0 287h-24v-15l24 15zm-24-15l24-15h1473v30h-1473l-24-15zm1522 0v15h-24l24-15zm-24 15l-24-15v-258h49v258l-24 15zm0-287h24v15l-24-15zm24 15l-24 15h-1473v-30h1473l24 15zm-1522-258v-15h24l-24 15zm24-15l24 15v258h-49v-258l24-15zm0 287h-24v-15l24 15zm-24-15l24-15h1473v30h-1473l-24-15zm1522 0v15h-24l24-15zm-24 15l-24-15v-258h49v258l-24 15zm0-287h24v15l-24-15zm24 15l-24 15h-1473v-30h1473l24 15zm-1522 0v-15h24l-24 15zm24-15l24 15v1545h-49v-1545l24-15zm0 1575h-24v-15l24 15zm-24-15l24-15h736v30h-736l-24-15zm785 0v15h-24l24-15zm-24 15l-24-15v-1545h49v1545l-24 15zm0-1575h24v15l-24-15zm24 15l-24 15h-736v-30h736l24 15zm-10956 1100h96v119h-96v-119zm-831 0h443v119h-443v-119zm12421 1130l37-537 119 8-37 537-119-8zm-4687-188h607v119h-607v-119zm666 60v60h-60l60-60zm-60 60l-60-60v-1945h119v1945l-60 60zm-60-2004v-59h60l-60 59zm60-59h888v119h-888l-60-59 60-59zm948 59v59h-60l60-59zm-60 59l-60-59v-196h119v196l-60 59zm-60-255v-60h60l-60 60zm60-60h1020v119h-1020l-60-60 60-60zm1020 0h60v60l-60-60zm60 60v2152h-119v-2152l59-60 60 60zm774 2640v185h-119v-185h119zm-7529 1402h110v119h-110v-119zm11098-1001v-216h119v216h-119zm5 2866v-2558h119v2558h-119zm-10933-3154v293h-119v-293h119zm-3273-615h-1976v-119h1976v119zm1655-3348v2010h-119v-2010h119zm651 3324h-187v-119h187v119zm-390-119h277v119h-277v-119zm337 60v60h-60l60-60zm-60 60l-60-60v-1255h119v1255l-60 60zm0-1374h60v59l-60-59zm60 59l-60 59h-1719v-119h1719l60 59zm-1838 0v-59h60l-60 59zm60-59l60 59v1255h-119v-1255l60-59zm0 1374h-60v-60l60 60zm-60-60l60-60h301v119h-301l-60-60zm766-59h347v119h-347v-119zm-1693 74v-406h119v406h-119zm0-762v-2191h119v2191h-119zm8112 1220v298h-119v-298h119zm4971 0v298h-119v-298h119zm0-792v298h-119v-298h119zm-6287-3588v3988h-119v-3988h119zm5780 1413h-1767v-119h1767v119zm-2132 0h-147v-119h147v119zm-147 0h-59v-60l59 60zm-59-60v-1764h119v1764l-59 60-59-60zm2744-2023v2023h-119v-2023h119zm1939 5163v190h-119v-190h119zm-7536-445h-925v-119h925v119zm-1258 0h-1080v-119h1080v119zm-1080 0h-60v-60l60 60zm-60-60v-1446h119v1446l-59 60-60-60zm60-1506h59v59l-59-59zm59 59l-59 59h-146v-119h146l59 59zm-206 60h-59v-59l59 59zm-59-59l6-2326h119l-6 2326-59 59-59-59zm3497-1045v-1694h119v1694h-119zm2797-144v2797h-119v-2797h119zm1998 2295h-558v-119h558v119zm-558 0h-60v-60l60 60zm-60-60v-2235h119v2235l-60 60-60-60zm60-1421h1391v119h-1391v-119zm2251-597l14-2490h119l-14 2490h-119zm-16 2471l4-818h119l-4 818h-119zm7-1210l5-904h119l-5 904h-119zm-958-1537h158v119h-158v-119zm559 0h467v119h-467v-119zm-750 2235h298v119h-298v-119zm357 60v60h-60l60-60zm-60 60l-60-60v-1361h119v1361l-60 60zm0-1480h60v60l-60-60zm60 60l-60 60h-91v-119h91l60 60zm-151 60h-60v-60l60 60zm-60-60v-191h119v191l-60 60-60-60zm-5-529v-344h119v344h-119zm60-404h60v60l-60-60zm60 60l-60 60h-1295v-119h1295l60 60zm-6525 3384h-945v-119h945v119zm-1278 0h-969v-119h969v119zm-1029-59l-1-60h60l-59 60zm59-60l59 59 45 3082-119 1-45-3082 59-60zm3488 119h-858v-119h858v119zm8933 0h-400v-119h400v119zm-993 0h-182v-119h182v119zm-775 0h-217v-119h217v119zm-810 0h-477v-119h477v119zm-1070 0h-241v-119h241v119zm-834 0h-139v-119h139v119zm-4789-60l-7 3082h-119l7-3082h119zm4214-215l-16 219-119-8 16-219 119 8zm-16 219l-4 55h-55l59-55zm-59 55h-1730v-119h1730l59 64-59 55zm-7631 96h344v119h-344v-119zm-4601 3480v-2359h119v2359h-119zm3830-3366h-323v-119h323v119zm-382-59v-59h60l-60 59zm60-59l60 59v3425h-119v-3425l60-59zm188-888h-700v-119h700v119zm-3501 2082h-1932v-119h1932v119zm1513 2291v-2359h119v2359h-119zm1327-2299h-2523v-119h2523v119zm-896-1356h-1522v-119h1522v119zm-1581-59v-59h60l-60 59zm60-59l60 59v1356h-119v-1356l60-59zm0 1475h-60v-60l60 60zm-60-60l60-60h2305v119h-2305l-60-60zm2424 0v60h-60l60-60zm-60 60l-60-60v-1356h119v1356l-60 60zm0-1475h60v60l-60-60zm60 60l-60 60h-386v-119h386l60 60zm5787-654h663v119h-663v-119zm-524-2033v149h-119v-149h119zm1908-208v149h-119v-149h119zm-10639 3866v-103h119v103h-119zm0-103v-59h60l-60 59zm60-59h452v119h-452l-60-59 60-59zm512 59v59h-60l60-59zm-60 59l-59-59v-1535h119v1535l-60 59zm6777-848l-7 3082h-119l7-3082h119zm3203 60h-1112v-119h1112v119zm-739-60l-7 3082h-119l7-3082h119zm5282 782h-441v-119h441v119zm-797 0h-885v-119h885v119zm-1241 0h-570v-119h570v119zm-926 0h-543v-119h543v119zm-899 0h-694v-119h694v119zm-1050 0h-430v-119h430v119zm3609 2300v-2359h119v2359h-119zm-1255 0v-2359h119v2359h-119zm-1342 0v-1005h119v1005h-119zm-307-1430h119v20l2 20 3 20 3 19 4 19 5 18 6 18 7 18 8 17 9 17 9 17 10 16 11 15 12 15 12 14 13 14 14 13 14 12 15 12 15 11 16 10 17 9 17 9 17 8 18 7 18 6 18 5 19 4 19 3 20 3 20 2h20v119l-26-1-26-2-26-3-25-5-25-6-24-7-24-8-23-9-23-10-22-11-21-12-21-13-20-14-19-15-19-16-18-17-17-18-16-19-15-19-14-20-13-21-12-21-11-22-10-23-9-23-8-24-7-24-6-25-5-25-3-26-2-26-1-26zm510 510v-119h20l20-2 20-3 19-3 19-4 18-5 18-6 18-7 17-8 17-9 17-9 16-10 15-11 15-12 14-12 14-13 13-14 12-14 12-15 11-15 10-16 9-17 9-17 8-17 7-18 6-18 5-18 4-19 3-19 3-20 2-20v-20h119l-1 26-2 26-3 26-5 25-6 25-7 24-8 24-9 23-10 23-11 22-12 21-13 21-14 20-15 19-16 19-17 18-18 17-19 16-19 15-20 14-21 13-21 12-22 11-23 10-23 9-24 8-24 7-25 6-25 5-26 3-26 2-26 1zm510-1440v929h-119v-929h119zm-902 0v929h-119v-929h119zm-5556 2905l3 122h-122l119-122zm-119 122h-6515v-237h6515l119 115-119 122zm-6515 0h-119v-119l119 119zm-119-119v-3083h238v3083l-119 119-119-119zm118-3202l120-1v120l-120-119zm120 119l-118 119-367 4-2-237 367-4 120 119zm-485 122l-120 1v-120l120 119zm-120-119v-1380h237v1380l-118 119-120-119zm0-1380v-120l120 1-120 119zm120-119l367 4-3 237-367-4-117-119 120-119zm484 123v120l-120-1 120-119zm-120 119l-118-119v-2649h238v2649l-120 119zm-118-2768v-101l101-16-101 117zm101-117l6150-961 36 234-6150 961-137-117 101-117zm6150-961l5-1 5-1-10 2zm5-1l4386-518 27 236-4386 518-32-235 5-1zm4386-518l-8 1 7-1zl5661-628 26 236-5661 628-26-236zm5661-628l2756-304 26 236-2756 304-26-236zm2756-304l128-14 3 129-132-115zm132 115l226 8960-237 6-226-8960 106-121 132 115zm226 8960l3 122h-122l119-122zm-119 122h-5532v-238h5532l119 116-119 122zm-5532 0h-7149v-238h7149v238zm-7267-116l-3-122h122l-119 122zm119-122l119 116 16 553-237 6-16-553 119-122zm-1266-752v-15h24l-24 15zm24-15l24 15v258h-48v-258l24-15zm0 287h-24v-15l24 15zm-24-15l24-15h1463v30h-1463l-24-15zm1512 0v15h-24l24-15zm-24 15l-24-15v-258h49v258l-24 15zm0-287h24v15l-24-15zm24 15l-24 15h-1463v-30h1463l24 15zm-1512-258v-15h24l-24 15zm24-15l24 15v258h-48v-258l24-15zm0 287h-24v-15l24 15zm-24-15l24-15h1463v30h-1463l-24-15zm1512 0v15h-24l24-15zm-24 15l-24-15v-258h49v258l-24 15zm0-287h24v15l-24-15zm24 15l-24 15h-1463v-30h1463l24 15zm-1512-258v-15h24l-24 15zm24-15l24 15v258h-48v-258l24-15zm0 287h-24v-15l24 15zm-24-15l24-15h1463v30h-1463l-24-15zm1512 0v15h-24l24-15zm-24 15l-24-15v-258h49v258l-24 15zm0-287h24v15l-24-15zm24 15l-24 15h-1463v-30h1463l24 15zm-1512-258v-15h24l-24 15zm24-15l24 15v258h-48v-258l24-15zm0 287h-24v-15l24 15zm-24-15l24-15h1463v30h-1463l-24-15zm1512 0v15h-24l24-15zm-24 15l-24-15v-258h49v258l-24 15zm0-287h24v15l-24-15zm24 15l-24 15h-1463v-30h1463l24 15zm-1512-258v-15h24l-24 15zm24-15l24 15v258h-48v-258l24-15zm0 287h-24v-15l24 15zm-24-15l24-15h1463v30h-1463l-24-15zm1512 0v15h-24l24-15zm-24 15l-24-15v-258h49v258l-24 15zm0-287h24v15l-24-15zm24 15l-24 15h-1463v-30h1463l24 15zm-1512-258v-15h24l-24 15zm24-15l24 15v258h-48v-258l24-15zm0 287h-24v-15l24 15zm-24-15l24-15h1463v30h-1463l-24-15zm1512 0v15h-24l24-15zm-24 15l-24-15v-258h49v258l-24 15zm0-287h24v15l-24-15zm24 15l-24 15h-1463v-30h1463l24 15zm-1512 0v-15h24l-24 15zm24-15l24 15v1545h-48v-1545l24-15zm0 1575h-24v-15l24 15zm-24-15l24-15h732v30h-732l-24-15zm780 0v15h-24l24-15zm-24 15l-24-15v-1545h48v1545l-24 15zm0-1575h24v15l-24-15zm24 15l-24 15h-732v-30h732l24 15zm6562 382v-15h15l-15 15zm15-15l15 15v704h-30v-704l15-15zm0 733h-15v-15l15 15zm-15-15h30l-15-15h17l17-1 17-2 17-3 16-4 16-5 16-5 15-6 15-7 15-7 14-8 14-9 13-9 13-10 12-11 12-11 11-12 11-12 10-13 9-13 9-14 8-14 7-15 7-15 6-15 5-16 5-16 4-16 3-17 2-17 1-17v-17h30l-1 19-1 19-2 18-3 18-4 18-5 17-6 17-7 17-7 16-8 16-9 15-9 15-10 14-11 14-12 13-12 13-13 12-13 12-14 11-14 10-15 10-15 9-16 8-16 7-17 7-17 6-17 5-18 4-18 3-18 2-19 1-19 1-15-15zm382-352h-30v-17l-1-17-2-17-3-17-4-16-5-16-5-16-6-15-7-15-7-15-8-14-9-14-9-13-10-13-11-12-11-12-12-11-12-11-13-10-13-9-14-9-14-8-15-7-15-7-15-6-16-5-16-5-16-4-17-3-17-2-17-1h-17v-30l19 1 19 1 18 2 18 3 18 4 17 5 17 6 17 7 16 7 16 8 15 9 15 10 14 10 14 11 13 12 13 12 12 13 12 13 11 14 10 14 9 15 9 15 8 16 7 16 7 17 6 17 5 17 4 18 3 18 2 18 1 19 1 19zm-367-366v30h-17l-17 1-17 2-17 3-16 4-16 5-16 5-15 6-15 7-15 7-14 8-14 9-13 9-13 10-12 11-12 11-11 12-11 12-10 13-9 13-9 14-8 14-7 15-7 15-6 15-5 16-5 16-4 16-3 17-2 17-1 17v17h-30l1-19 1-19 2-18 3-18 4-18 5-17 6-17 7-17 7-16 8-16 9-15 9-15 10-14 11-14 12-13 12-13 13-12 13-12 14-11 14-10 15-10 15-9 16-8 16-7 17-7 17-6 17-5 18-4 18-3 18-2 19-1 19-1zm-367 367h30v17l1 17 2 17 3 17 4 16 5 16 5 16 6 15 7 15 7 15 8 14 9 14 9 13 10 13 11 12 11 12 12 11 12 11 13 10 13 9 14 9 14 8 15 7 15 7 15 6 16 5 16 5 16 4 17 3 17 2 17 1h17v30l-19-1-19-1-18-2-18-3-18-4-17-5-17-6-17-7-16-7-16-8-15-9-15-10-14-10-14-11-13-12-13-12-12-13-12-13-11-14-10-14-9-15-9-15-8-16-7-16-7-17-6-17-5-17-4-18-3-18-2-18-1-19-1-19zm367 367v-30h17l17-1 17-2 17-3 16-4 16-5 16-5 15-6 15-7 15-7 14-8 14-9 13-9 13-10 12-11 12-11 11-12 11-12 10-13 9-13 9-14 8-14 7-15 7-15 6-15 5-16 5-16 4-16 3-17 2-17 1-17v-17h30l-1 19-1 19-2 18-3 18-4 18-5 17-6 17-7 17-7 16-8 16-9 15-9 15-10 14-11 14-12 13-12 13-13 12-13 12-14 11-14 10-15 10-15 9-16 8-16 7-17 7-17 6-17 5-18 4-18 3-18 2-19 1-19 1zm367-367h-30v-17l-1-17-2-17-3-17-4-16-5-16-5-16-6-15-7-15-7-15-8-14-9-14-9-13-10-13-11-12-11-12-12-11-12-11-13-10-13-9-14-9-14-8-15-7-15-7-15-6-16-5-16-5-16-4-17-3-17-2-17-1h-17v-30l19 1 19 1 18 2 18 3 18 4 17 5 17 6 17 7 16 7 16 8 15 9 15 10 14 10 14 11 13 12 13 12 12 13 12 13 11 14 10 14 9 15 9 15 8 16 7 16 7 17 6 17 5 17 4 18 3 18 2 18 1 19 1 19z" />
        <polygon points="8483 4724 7611 4724 7611 5854 7802 5854 7802 5973 7552 5973 7492 5973 7492 5914 7492 4665 7492 4605 7552 4605 8543 4605 8602 4605 8602 4665 8602 5914 8602 5973 8543 5973 8258 5973 8258 5854 8483 5854" />
    </g>
    <g id="stairs_library" class="fil3">
        <polygon points="14316 8093 14565 8341 14544 8362 14295 8114" />
        <polygon points="14202 8337 14554 8337 14554 8367 14202 8367" />
        <polygon points="14295 8590 14544 8341 14565 8362 14316 8611" />
        <polygon points="14539 8704 14539 8352 14569 8352 14569 8704" />
        <polygon points="14793 8611 14544 8362 14565 8341 14814 8590" />
        <polygon points="14906 8367 14554 8367 14554 8337 14906 8337" />
        <polygon points="14814 8114 14565 8362 14544 8341 14793 8093" />
        <polygon points="14569 8e3 14569 8352 14539 8352 14539 8e3" />
    </g>
    <g transform="translate(8705.3 -372.86)">
        <use xlink:href="#elevator" />
    </g>
    <g transform="translate(3.5278 31.037)">
        <use xlink:href="#elevator" />
    </g>
    <g transform="translate(-18.99 9.945)">
        <use xlink:href="#toilet" />
    </g>
    <g transform="translate(7487.9 -306.61)">
        <use xlink:href="#toilet" />
    </g>
    <g class="fil6" ng-if="evacuationActive">
        <g transform="translate(4300,6500)">
            <use transform="matrix(-1,0,0,1,0,-1300)" xlink:href="#arrow"></use>
            <use transform="matrix(-1,0,0,-1,0,800)" xlink:href="#arrow"></use>
            <use transform="matrix(0,-1,1,0,0,0)" xlink:href="#arrow"></use>
            <use transform="matrix(0,-1,1,0,1500,0)" xlink:href="#arrow"></use>
            <use transform="matrix(1,0,0,1,3100,-400)" xlink:href="#arrow"></use>
        </g>
        <g transform="translate(13900,5000)">
            <use transform="matrix(1,0,0,1,0,0)" xlink:href="#arrow"></use>
        </g>
        <g transform="translate(16250,5000)">
            <use transform="matrix(1,0,0,-1,-1500,0)" xlink:href="#arrow"></use>
        </g>
        <g transform="translate(17500,6500)">
            <use transform="matrix(0,-1,-1,0,0,0)" xlink:href="#arrow"></use>
        </g>
        <g transform="translate(15500,6500)">
            <use transform="matrix(0,-1,-1,0,0,0)" xlink:href="#arrow"></use>
            <use transform="matrix(0,-1,-1,0,2000,0)" xlink:href="#arrow"></use>
            <use transform="matrix(1,0,0,1,2000,-3000)" xlink:href="#arrow"></use>
            <use transform="matrix(1,0,0,1,2000,-1500)" xlink:href="#arrow"></use>
        </g>
        <g transform="translate(9500,6600)">
            <use transform="matrix(0,-1,-1,0,0,0)" xlink:href="#arrow"></use>
            <use transform="matrix(0,-1,-1,0,1500,0)" xlink:href="#arrow"></use>
            <use transform="matrix(0,-1,1,0,2900,0)" xlink:href="#arrow"></use>
            <use transform="matrix(0,-1,1,0,4400,0)" xlink:href="#arrow"></use>
        </g>
        <g transform="translate(7400,7500)">
            <use transform="matrix(1,0,0,1,0,0)" xlink:href="#arrow"></use>
            <use transform="matrix(1,0,0,1,0,1500)" xlink:href="#arrow"></use>
        </g>
    </g>
</svg>
