<svg xmlns="http://www.w3.org/2000/svg" version="1.1" clip-rule="evenodd"
     xmlns:xlink="http://www.w3.org/1999/xlink" viewBox="0 0 22222 11111">
    <polygon id="background" points="22222 11111 0 11111 0 0 22222 0" class="fil0" />
    <g class="fil2">
        <polygon id="kliny" ng-if="selectedRoom.name=='Kliny'" points="20973 2171 20135 2171 20142 1940 18437 1949 18351 1881 18351 1102 20973 813 " />
        <polygon id="smoczajama" ng-if="selectedRoom.name=='Smocza Jama'" points="17506 4223 16071 4223 16071 3418 17506 3418 " />
        <polygon id="elevator1" ng-if="selectedRoom.name=='Elevators'" points="8567 5960 7571 5960 7516 4637 8567 4644 " />
        <polygon id="elevator2" ng-if="selectedRoom.name=='Elevators'" points="17462 5653 16062 5653 16044 4236 17462 4244 " />
        <polygon id="toilet1" ng-if="selectedRoom.name=='Restrooms'" points="6192 5984 4502 5984 4447 4646 6192 4654 " />
        <polygon id="toilet2" ng-if="selectedRoom.name=='Restrooms'" points="14545 5660 13478 5660 13437 3743 14533 3751 " />
        <text x="19240" y="1547" class="fil5 fnt2">KLINY</text>
        <text x="16211" y="3738" class="fil5 fnt5">SMOCZA</text>
        <text x="16437" y="4040" class="fil5 fnt5">JAMA</text>
    </g>
    <path class="fil3" d="M14442 8022l0-15 15 0-15 15zm15-15l0 0 15 15 0 710-30 0 0-710 15-15zm0 739l0 0-15 0 0-15 15 15zm-15-15l0 0 30 0-15-15 18 0 17-1 17-2 17-3 17-4 16-5 16-5 15-6 15-7 15-7 14-8 14-9 13-10 13-10 12-11 12-11 11-12 11-12 10-13 9-13 9-14 8-14 7-15 7-15 6-15 5-16 5-16 4-17 3-17 2-17 1-17 0-18 30 0-1 19-1 19-2 18-3 18-4 18-5 18-6 17-7 17-7 16-8 16-9 15-10 15-10 14-11 14-12 13-12 13-13 12-13 12-14 11-15 10-15 10-15 9-16 8-16 7-17 7-17 6-18 5-18 4-18 3-19 2-19 1-19 1-15-15zm385-355l0 0-30 0 0-18-1-17-2-17-3-17-4-16-5-16-5-16-6-15-7-15-7-15-8-14-9-14-9-13-10-13-11-12-11-12-12-11-12-11-13-10-13-9-14-9-14-8-15-8-15-7-15-6-16-5-16-5-16-4-17-3-17-2-17-1-18 0 0-30 19 1 19 1 19 2 18 3 18 4 18 5 17 6 17 7 16 7 16 8 15 9 15 10 15 10 14 11 13 12 13 12 12 13 12 13 11 14 10 15 10 15 9 15 8 16 7 16 7 17 6 17 5 18 4 18 3 18 2 19 1 19 1 19zM14555 5203l0-15 24 0-24 15zm24-15l0 0 24 15 0 258-49 0 0-258 24-15zm0 287l0 0-24 0 0-15 24 15zm-24-15l0 0 24-15 1468 0 0 30-1468 0-24-15zm1517 0l0 0 0 15-24 0 24-15zm-24 15l0 0-24-15 0-258 49 0 0 258-24 15zm0-287l0 0 24 0 0 15-24-15zm24 15l0 0-24 15-1468 0 0-30 1468 0 24 15zm-1517-258l0 0 0-15 24 0-24 15zm24-15l0 0 24 15 0 258-49 0 0-258 24-15zm0 287l0 0-24 0 0-15 24 15zm-24-15l0 0 24-15 1468 0 0 30-1468 0-24-15zm1517 0l0 0 0 15-24 0 24-15zm-24 15l0 0-24-15 0-258 49 0 0 258-24 15zm0-287l0 0 24 0 0 15-24-15zm24 15l0 0-24 15-1468 0 0-30 1468 0 24 15zm-1517-258l0 0 0-15 24 0-24 15zm24-15l0 0 24 15 0 258-49 0 0-258 24-15zm0 287l0 0-24 0 0-15 24 15zm-24-15l0 0 24-15 1468 0 0 30-1468 0-24-15zm1517 0l0 0 0 15-24 0 24-15zm-24 15l0 0-24-15 0-258 49 0 0 258-24 15zm0-287l0 0 24 0 0 15-24-15zm24 15l0 0-24 15-1468 0 0-30 1468 0 24 15zm-1517-258l0 0 0-15 24 0-24 15zm24-15l0 0 24 15 0 258-49 0 0-258 24-15zm0 287l0 0-24 0 0-15 24 15zm-24-15l0 0 24-15 1468 0 0 30-1468 0-24-15zm1517 0l0 0 0 15-24 0 24-15zm-24 15l0 0-24-15 0-258 49 0 0 258-24 15zm0-287l0 0 24 0 0 15-24-15zm24 15l0 0-24 15-1468 0 0-30 1468 0 24 15zm-1517-258l0 0 0-15 24 0-24 15zm24-15l0 0 24 15 0 258-49 0 0-258 24-15zm0 287l0 0-24 0 0-15 24 15zm-24-15l0 0 24-15 1468 0 0 30-1468 0-24-15zm1517 0l0 0 0 15-24 0 24-15zm-24 15l0 0-24-15 0-258 49 0 0 258-24 15zm0-287l0 0 24 0 0 15-24-15zm24 15l0 0-24 15-1468 0 0-30 1468 0 24 15zm-1517-258l0 0 0-15 24 0-24 15zm24-15l0 0 24 15 0 258-49 0 0-258 24-15zm0 287l0 0-24 0 0-15 24 15zm-24-15l0 0 24-15 1468 0 0 30-1468 0-24-15zm1517 0l0 0 0 15-24 0 24-15zm-24 15l0 0-24-15 0-258 49 0 0 258-24 15zm0-287l0 0 24 0 0 15-24-15zm24 15l0 0-24 15-1468 0 0-30 1468 0 24 15zm-1517 0l0 0 0-15 24 0-24 15zm24-15l0 0 24 15 0 1545-49 0 0-1545 24-15zm0 1575l0 0-24 0 0-15 24 15zm-24-15l0 0 24-15 734 0 0 30-734 0-24-15zm783 0l0 0 0 15-24 0 24-15zm-24 15l0 0-24-15 0-1545 49 0 0 1545-24 15zm0-1575l0 0 24 0 0 15-24-15zm24 15l0 0-24 15-734 0 0-30 734 0 24 15zM15961 6143l37-537 119 8-37 537-119-8zm-1542-533l0 0 0 562-119 0 0-562 119 0zm5 904l0 0 0 185-119 0 0-185 119 0zm-10804 1402l0 0 274 0 0 119-274 0 0-119zm3475 0l0 0 110 0 0 119-110 0 0-119zm5649-4852l0 0-246 0 0-119 246 0 0 119zm978 4902l0 0-54-1264 119-5 54 1264-119 5zm5632-534l0 0 0-732 119 0 0 732-119 0zm1592-5255l0 0-152 0 0-119 152 0 0 119zm-481 0l0 0-279 0 0-119 279 0 0 119zm-339 157l0 0 0-433 119 0 0 433-119 0zm60-493l0 0 60 0 0 60-60-60zm60 60l0 0-60 60-1815 0 0-119 1815 0 60 60zm-892 7881l0 0 0-1378 119 0 0 1378-119 0zm-12089-3154l0 0 0 293-119 0 0-293 119 0zm-3296-688l0 0-424 0 0-119 424 0 0 119zm-853 0l0 0-1156 0 0-119 1156 0 0 119zm2531-3276l0 0 0 2010-119 0 0-2010 119 0zm651 3324l0 0-187 0 0-119 187 0 0 119zm-390-119l0 0 277 0 0 119-277 0 0-119zm337 60l0 0 0 60-60 0 60-60zm-60 60l0 0-60-60 0-1255 119 0 0 1255-60 60zm0-1374l0 0 60 0 0 59-60-59zm60 59l0 0-60 59-1719 0 0-119 1719 0 60 59zm-1838 0l0 0 0-59 60 0-60 59zm60-59l0 0 60 59 0 1255-119 0 0-1255 60-59zm0 1374l0 0-60 0 0-60 60 60zm-60-60l0 0 60-60 301 0 0 119-301 0-60-60zm766-59l0 0 347 0 0 119-347 0 0-119zm-1575 11l0 0 0-2890 119 0 0 2890-119 0zm7994 521l0 0 0 298-119 0 0-298 119 0zm0-488l0 0 0 149-119 0 0-149 119 0zm4971 488l0 0 0 298-119 0 0-298 119 0zm0-792l0 0 0 298-119 0 0-298 119 0zm-4495-2546l0 0-595 0 0-119 595 0 0 119zm3989 370l0 0-1700 0 0-119 1700 0 0 119zm-1561-643l0 0 0-1219 119 0 0 1219-119 0zm1621-1439l0 0 0 2179-119 0 0-2179 119 0zm2235 4334l0 0-298 0 0-119 298 0 0 119zm-144 721l0 0 0 298-119 0 0-298 119 0zm-6615-1248l0 0 0 756-119 0 0-756 119 0zm0 756l0 0 0 60-60 0 60-60zm-60 60l0 0-3005 0 0-119 3005 0 60 60-60 60zm-3005 0l0 0-60 0 0-60 60 60zm-60-60l0 0 0-3667 119 0 0 3667-60 60-60-60zm2945-1185l0 0 0-2830 119 0 0 2830-119 0zm1404-1135l0 0 49 2014-119 3-49-2014 119-3zm-11 2075l0 0-58 0-1-58 59 58zm-59-58l0 0 59-61 137 0 0 119-137 0-59-58zm616-61l0 0 173 0 0 119-173 0 0-119zm584 0l0 0 610 0 0 119-610 0 0-119zm669 60l0 0 0 60-60 0 60-60zm-60 60l0 0-60-60 0-1880 119 0 0 1880-60 60zm0-1999l0 0 60 0 0 60-60-60zm60 60l0 0-60 60-1121 0 0-119 1121 0 60 60zm-1180-59l0 0 0 0 76 0-76 0zm0 0l0 0 0 119-675 2 0-119 675-2 0 0zm-750-532l0 0-34-1409 119-3 34 1409-119 3zm719 2471l0 0-1-1880 119 0 1 1880-119 0zm1212-2354l0 0 0 474-119 0 0-474 119 0zm1998 2413l0 0-558 0 0-119 558 0 0 119zm-558 0l0 0-60 0 0-60 60 60zm-60-60l0 0 0-2079 119 0 0 2079-60 60-60-60zm60-1421l0 0 1391 0 0 119-1391 0 0-119zm2250-276l0 0 16-2811 119 0-16 2811-119 0zm-211 2053l0 0 0-340 119 0 0 340-119 0zm0-340l0 0 0-59 60 0-60 60zm60-60l0 0 197 0 0 119-197 0-60-60 60-60zm256 60l0 0 0 59-59 0 59-59zm-59 59l0 0-59-60 12-1713 119 0-12 1713-59 59zm1893-2904l0 0 0 433-119 0 0-433 119 0zm0 433l0 0 0 59-60 0 60-59zm-60 59l0 0-1815 0 0-119 1815 0 60 60-60 59zm-2737 41l0 0 51 0 0 119-51 0 0-119zm452 0l0 0 467 0 0 119-467 0 0-119zm-750 2235l0 0 298 0 0 119-298 0 0-119zm357 60l0 0 0 60-60 0 60-60zm-60 60l0 0-60-60 0-1669 119 0 0 1669-60 60zm-60-2089l0 0 0-205 119 0 0 205-119 0zm60-265l0 0 60 0 0 60-60-60zm60 60l0 0-60 60-1391 0 0-119 1391 0 60 60zm-6460 3384l0 0-2408 0 0-119 2408 0 0 119zm-2467-59l0 0-1-60 60 0-59 60zm59-60l0 0 59 59 45 3082-119 1-45-3082 59-60zm3315 119l0 0-938 0 0-119 938 0 0 119zm9107 0l0 0-4621 0 0-119 4621 0 0 119zm-9270 735l0 0-7 2288-119 0 7-2288 119 0zm3286 411l0 0-52-1203 119-5 52 1203-119 5zm-718 62l0 0-6-130 119-5 6 130-119 5zm-19-450l0 0-35-814 119-5 35 814-119 5zm1665-1031l0 0-16 219-119-8 16-219 119 8zm-16 219l0 0-4 55-55 0 59-55zm-59 55l0 0-1730 0 0-119 1730 0 59 64-59 55zm-2099 0l0 0-1421 0 0-119 1421 0 0 119zm-1481-60l0 0 0-59 59 0-59 59zm59-59l0 0 59 59 3 1234-119 0-3-1234 59-59zm4 1353l0 0-60 0 0-60 60 59zm-60-59l0 0 59-59 220-2 1 119-220 2-60-59zm601-64l0 0 2931-23 1 119-2931 23-1-119zm2990 34l0 0 3 61-61 1 59-62zm-59 62l0 0-60-57-7-160 119-5 7 160-59 62zm-80-541l0 0-31-723 119-5 31 723-119 5zm-230 2360l0 0-65-1300 119-6 65 1300-119 6zm-84-1661l0 0-11-228 119-6 11 228-119 6zm-7193-1322l0 0 344 0 0 119-344 0 0-119zm-4601 3534l0 0 0-2359 119 0 0 2359-119 0zm3830-3366l0 0-323 0 0-119 323 0 0 119zm-382-59l0 0 0-59 60 0-60 59zm60-59l0 0 60 59 0 3425-119 0 0-3425 60-59zm4549-177l0 0 0 298-119 0 0-298 119 0zm-4361-711l0 0-700 0 0-119 700 0 0 119zm-4133 2082l0 0-1300 0 0-119 1300 0 0 119zm2145 2291l0 0 0-2359 119 0 0 2359-119 0zm1327-2300l0 0-2523 0 0-119 2523 0 0 119zm-896-1356l0 0-1522 0 0-119 1522 0 0 119zm-1581-59l0 0 0-59 60 0-60 59zm60-59l0 0 60 59 0 1356-119 0 0-1356 60-59zm0 1475l0 0-60 0 0-60 60 60zm-60-60l0 0 60-60 2305 0 0 119-2305 0-60-60zm2424 0l0 0 0 60-59 0 59-60zm-59 60l0 0-60-60 0-1356 119 0 0 1356-59 60zm0-1475l0 0 59 0 0 59-59-59zm59 59l0 0-59 60-386 0 0-119 386 0 59 59zm4796-2370l0 0 663 0 0 119-663 0 0-119zM8593 10332l3 122-122 0 119-122zm-119 122l0 0-6515 0 0-237 6515 0 119 115-119 122zm-6515 0l0 0-119 0 0-119 119 119zm-119-119l0 0 0-3083 238 0 0 3083-119 119-119-119zm118-3202l0 0 120-1 0 120-120-119zm120 119l0 0-118 119-367 4-2-237 367-4 120 119zm-485 122l0 0-120 1 0-120 120 119zm-120-119l0 0 0-1380 237 0 0 1380-118 119-120-119zm0-1380l0 0 0-120 120 1-120 119zm120-119l0 0 367 4-3 237-367-4-117-119 120-119zm484 123l0 0 0 120-120-1 120-119zm-120 119l0 0-118-119 0-2649 238 0 0 2649-120 119zm-118-2768l0 0 0-101 101-16-101 117zm101-117l0 0 6150-961 36 234-6150 961-137-117 101-117zm6150-961l0 0 5-1 5-1-10 2zm5-1l0 0 4386-518 27 236-4386 518-32-235 5-1zm4386-518l0 0 0 0-8 1 7-1zm0 0l0 0 5661-628 26 236-5661 628-26-236 0 0zm5661-628l0 0 2756-304 26 236-2756 304-26-236zm2756-304l0 0 128-14 3 129-132-115zm132 115l0 0 226 8960-237 6-226-8960 106-121 132 115zm226 8960l0 0 3 122-122 0 119-122zm-119 122l0 0-5532 0 0-238 5532 0 119 116-119 122zm-5532 0l0 0-7149 0 0-238 7149 0 0 238zm-7267-116l0 0-3-122 122 0-119 122zm119-122l0 0 119 116 16 553-237 6-16-553 119-122zM7180 8940l0-15 24 0-24 15zm24-15l0 0 24 15 0 258-48 0 0-258 24-15zm0 287l0 0-24 0 0-15 24 15zm-24-15l0 0 24-15 1461 0 0 30-1461 0-24-15zm1509 0l0 0 0 15-24 0 24-15zm-24 15l0 0-24-15 0-258 48 0 0 258-24 15zm0-287l0 0 24 0 0 15-24-15zm24 15l0 0-24 15-1461 0 0-30 1461 0 24 15zm-1509-258l0 0 0-15 24 0-24 15zm24-15l0 0 24 15 0 258-48 0 0-258 24-15zm0 287l0 0-24 0 0-15 24 15zm-24-15l0 0 24-15 1461 0 0 30-1461 0-24-15zm1509 0l0 0 0 15-24 0 24-15zm-24 15l0 0-24-15 0-258 48 0 0 258-24 15zm0-287l0 0 24 0 0 15-24-15zm24 15l0 0-24 15-1461 0 0-30 1461 0 24 15zm-1509-258l0 0 0-15 24 0-24 15zm24-15l0 0 24 15 0 258-48 0 0-258 24-15zm0 287l0 0-24 0 0-15 24 15zm-24-15l0 0 24-15 1461 0 0 30-1461 0-24-15zm1509 0l0 0 0 15-24 0 24-15zm-24 15l0 0-24-15 0-258 48 0 0 258-24 15zm0-287l0 0 24 0 0 15-24-15zm24 15l0 0-24 15-1461 0 0-30 1461 0 24 15zm-1509-258l0 0 0-15 24 0-24 15zm24-15l0 0 24 15 0 258-48 0 0-258 24-15zm0 287l0 0-24 0 0-15 24 15zm-24-15l0 0 24-15 1461 0 0 30-1461 0-24-15zm1509 0l0 0 0 15-24 0 24-15zm-24 15l0 0-24-15 0-258 48 0 0 258-24 15zm0-287l0 0 24 0 0 15-24-15zm24 15l0 0-24 15-1461 0 0-30 1461 0 24 15zm-1509-258l0 0 0-15 24 0-24 15zm24-15l0 0 24 15 0 258-48 0 0-258 24-15zm0 287l0 0-24 0 0-15 24 15zm-24-15l0 0 24-15 1461 0 0 30-1461 0-24-15zm1509 0l0 0 0 15-24 0 24-15zm-24 15l0 0-24-15 0-258 48 0 0 258-24 15zm0-287l0 0 24 0 0 15-24-15zm24 15l0 0-24 15-1461 0 0-30 1461 0 24 15zm-1509-258l0 0 0-15 24 0-24 15zm24-15l0 0 24 15 0 258-48 0 0-258 24-15zm0 287l0 0-24 0 0-15 24 15zm-24-15l0 0 24-15 1461 0 0 30-1461 0-24-15zm1509 0l0 0 0 15-24 0 24-15zm-24 15l0 0-24-15 0-258 48 0 0 258-24 15zm0-287l0 0 24 0 0 15-24-15zm24 15l0 0-24 15-1461 0 0-30 1461 0 24 15zm-1509 0l0 0 0-15 24 0-24 15zm24-15l0 0 24 15 0 1545-48 0 0-1545 24-15zm0 1575l0 0-24 0 0-15 24 15zm-24-15l0 0 24-15 730 0 0 30-730 0-24-15zm779 0l0 0 0 15-24 0 24-15zm-24 15l0 0-24-15 0-1545 48 0 0 1545-24 15zm0-1575l0 0 24 0 0 15-24-15zm24 15l0 0-24 15-730 0 0-30 730 0 24 15z" />
    <g id="stairslibrary">
        <polygon class="fil3" points="14216 8116 14467 8366 14446 8387 14195 8137 " />
        <polygon class="fil3" points="14102 8362 14457 8362 14457 8392 14102 8392 " />
        <polygon class="fil3" points="14195 8617 14446 8366 14467 8387 14216 8638 " />
        <polygon class="fil3" points="14442 8732 14442 8377 14472 8377 14472 8732 " />
        <polygon class="fil3" points="14697 8638 14446 8387 14467 8366 14718 8617 " />
        <polygon class="fil3" points="14812 8392 14457 8392 14457 8362 14812 8362 " />
        <polygon class="fil3" points="14718 8137 14467 8387 14446 8366 14697 8116 " />
        <polygon class="fil3" points="14472 8022 14472 8377 14442 8377 14442 8022 " />
    </g>
    <path class="fil3" d="M14457 8007l0 30-18 0-17 1-17 2-17 3-16 4-16 5-16 5-15 6-15 7-15 8-14 8-14 9-13 9-13 10-12 11-12 11-11 12-11 12-10 13-10 13-9 14-8 14-7 15-7 15-6 15-5 16-5 16-4 16-3 17-2 17-1 17 0 18-30 0 1-19 1-19 2-19 3-18 4-18 5-18 6-17 7-17 7-16 8-16 9-15 10-15 10-15 11-14 12-13 12-13 13-12 13-12 14-11 14-10 15-10 15-9 16-8 16-7 17-7 17-6 18-5 18-4 18-3 19-2 19-1 19-1zm-370 370l0 0 30 0 0 18 1 17 2 17 3 17 4 17 5 16 5 16 6 15 7 15 7 15 8 14 9 14 10 13 10 13 11 12 11 12 12 11 12 11 13 10 13 9 14 9 14 8 15 7 15 7 15 6 16 5 16 5 16 4 17 3 17 2 17 1 18 0 0 30-19-1-19-1-19-2-18-3-18-4-18-5-17-6-17-7-16-7-16-8-15-9-15-10-14-10-14-11-13-12-13-12-12-13-12-13-11-14-10-14-10-15-9-15-8-16-7-16-7-17-6-17-5-18-4-18-3-18-2-19-1-19-1-19zm370 370l0 0 0-30 18 0 17-1 17-2 17-3 17-4 16-5 16-5 15-6 15-7 15-7 14-8 14-9 13-9 13-10 12-11 12-11 11-12 11-12 10-13 9-13 9-14 8-14 7-15 7-15 6-15 5-16 5-16 4-17 3-17 2-17 1-17 0-18 30 0-1 19-1 19-2 19-3 18-4 18-5 18-6 17-7 17-7 16-8 16-9 15-10 15-10 14-11 14-12 13-12 13-13 12-13 12-14 11-15 10-15 10-15 9-16 8-16 7-17 7-17 6-18 5-18 4-18 3-19 2-19 1-19 1zm370-370l0 0-30 0 0-18-1-17-2-17-3-17-4-16-5-16-5-16-6-15-7-15-7-15-8-14-9-14-9-13-10-13-11-12-11-12-12-11-12-11-13-10-13-9-14-9-14-8-15-8-15-7-15-6-16-5-16-5-17-4-17-3-17-2-17-1-18 0 0-30 19 1 19 1 19 2 18 3 18 4 18 5 17 6 17 7 16 7 16 8 15 9 15 10 15 10 14 11 13 12 13 12 12 13 12 13 11 14 10 15 10 15 9 15 8 16 7 16 7 17 6 17 5 18 4 18 3 18 2 19 1 19 1 19z" />
    <polygon class="fil3" points="8477 4725 7605 4725 7605 5854 7796 5854 7796 5973 7546 5973 7486 5973 7486 5914 7486 4665 7486 4606 7546 4606 8537 4606 8596 4606 8596 4665 8596 5914 8596 5973 8537 5973 8252 5973 8252 5854 8477 5854 " />

    <g transform="translate(8745.851,-332.3089)">
        <use xlink:href="#elevator" />
    </g>
    <g transform="translate(-9.9892306,17.519965)">
        <use xlink:href="#elevator" />
    </g>
    <g transform="translate(8.0440694,50.496097)">
        <use xlink:href="#toilet" />
    </g>
    <g transform="translate(8690.9158,-549.91658)">
        <use xlink:href="#toilet" />
    </g>
    <g class="fil6" ng-if="evacuationActive">
        <g transform="translate(4300,6500)">
            <use transform="matrix(-1,0,0,1,0,-1300)" xlink:href="#arrow"></use>
            <use transform="matrix(-1,0,0,-1,-500,800)" xlink:href="#arrow"></use>
            <use transform="matrix(0,-1,1,0,0,0)" xlink:href="#arrow"></use>
            <use transform="matrix(0,-1,1,0,1500,0)" xlink:href="#arrow"></use>
            <use transform="matrix(0,-1,1,0,3000,0)" xlink:href="#arrow"></use>
        </g>
        <g transform="translate(17500,5900)">
            <use transform="matrix(1,0,0,-1,-1500,1500)" xlink:href="#arrow"></use>
            <use transform="matrix(0,1,1,0,-2500,2200)" xlink:href="#arrow"></use>
            <use transform="matrix(0,1,-1,0,1500,1700)" xlink:href="#arrow"></use>
            <use transform="matrix(1,0,0,-1,-5700,1500)" xlink:href="#arrow"></use>
        </g>
        <g transform="translate(16250,5000)">
            <use transform="matrix(1,0,0,-1,-1500,0)" xlink:href="#arrow"></use>
        </g>
        <g transform="translate(17500,6500)">
            <use transform="matrix(0,-1,-1,0,0,0)" xlink:href="#arrow"></use>
            <use transform="matrix(0,-1,-1,0,2000,0)" xlink:href="#arrow"></use>
            <use transform="matrix(1,0,0,1,2800,-2500)" xlink:href="#arrow"></use>
            <use transform="matrix(1,0,0,1,2800,-4000)" xlink:href="#arrow"></use>
            <use transform="matrix(1,0,0,1,2800,-1000)" xlink:href="#arrow"></use>
        </g>
        <g transform="translate(15500,6500)">
            <use transform="matrix(0,-1,-1,0,0,0)" xlink:href="#arrow"></use>
            <use transform="matrix(0,-1,-1,0,2000,0)" xlink:href="#arrow"></use>
            <use transform="matrix(0,-1,-1,0,4000,0)" xlink:href="#arrow"></use>
            <use transform="matrix(1,0,0,1,2000,-3000)" xlink:href="#arrow"></use>
            <use transform="matrix(1,0,0,1,2000,-4500)" xlink:href="#arrow"></use>
            <use transform="matrix(1,0,0,1,2000,-1500)" xlink:href="#arrow"></use>
        </g>
        <g transform="translate(9500,6500)">
            <use transform="matrix(0,-1,-1,0,0,0)" xlink:href="#arrow"></use>
            <use transform="matrix(0,-1,-1,0,1500,0)" xlink:href="#arrow"></use>
            <use transform="matrix(0,-1,1,0,3000,0)" xlink:href="#arrow"></use>
        </g>
        <g transform="translate(7400,7500)">
            <use transform="matrix(1,0,0,1,0,0)" xlink:href="#arrow"></use>
            <use transform="matrix(1,0,0,1,0,1500)" xlink:href="#arrow"></use>
        </g>
        <g transform="translate(12000,3500)">
            <use transform="matrix(0,-1,1,0,-1500,1700)" xlink:href="#arrow"></use>
            <use transform="matrix(0,-1,-1,0,1750,0)" xlink:href="#arrow"></use>
            <use transform="matrix(1,0,0,1,0,0)" xlink:href="#arrow"></use>
            <use transform="matrix(1,0,0,1,0,1500)" xlink:href="#arrow"></use>
        </g>
    </g>
</svg>
