<svg xmlns="http://www.w3.org/2000/svg" version="1.1" clip-rule="evenodd"
     xmlns:xlink="http://www.w3.org/1999/xlink" viewBox="0 0 22222 11111">

    <polygon id="background" points="22222 11111 0 11111 0 0 22222 0" class="fil0" />
    <g>
        <g class="fil2">
            <polygon id="faraday" ng-if="selectedRoom.name=='Faraday lab'" points="4009 6109 2931 6109 2679 6020 1073 6019 1073 3332 4009 2899 " />
            <polygon id="hertz" ng-if="selectedRoom.name=='Hertz lab'" points="11303 4013 8312 4083 8312 2299 11303 1866 " />
            <polygon id="tesla" ng-if="selectedRoom.name=='Tesla lab'" points="11359 5991 8312 6062 8312 4070 11359 4053 " />
            <polygon id="volt" ng-if="selectedRoom.name=='Volt lab'" points="21042 5884 18062 5884 18069 4917 18118 1102 20912 814 " />
            <polygon id="kelvin" ng-if="selectedRoom.name=='Kelvin lab'" points="21071 9737 16557 9774 16512 8618 16486 6764 20982 6764 " />
            <polygon id="watt" ng-if="selectedRoom.name=='Watt lab'" points="14329 9737 12907 9774 12862 8618 12836 6764 14240 6764 " />
            <polygon id="maxwell" ng-if="selectedRoom.name=='Maxwell lab'" points="12929 9737 8500 9774 8456 8618 8430 6764 12840 6764 " />
            <polygon id="celsius" ng-if="selectedRoom.name=='Celsius lab'" points="7006 10291 4872 10328 4828 8618 4801 6764 6987 6764 " />
            <polygon id="ohm" ng-if="selectedRoom.name=='Ohm lab'" points="2659 10291 1144 10328 1099 8618 1073 7389 2661 7389 " />
            <polygon id="pascal" ng-if="selectedRoom.name=='Pascal lab'" points="4787 10291 2653 10328 2608 8618 2582 7889 3613 7889 3613 6861 4767 6764 " />
            <polygon id="newton" ng-if="selectedRoom.name=='Newton lab'" points="18140 3412 15845 3408 15842 3579 14343 3579 14343 3882 12536 3889 12534 2226 18157 1678 " />
            <polygon id="coulomb" ng-if="selectedRoom.name=='Coulomb lab'" points="8306 4806 7329 4792 7333 5993 5806 5993 5833 4672 4009 4672 4009 2907 8306 2208 " />
            <polygon id="toilet1" ng-if="selectedRoom.name=='Restrooms'" points="5871 6097 5187 6097 4009 6097 4009 4668 5871 4679 " />
            <polygon id="toilet2" ng-if="selectedRoom.name=='Restrooms'" points="14360 5778 12595 5778 12498 3834 14360 3846 " />
            <polygon id="toilet3" ng-if="selectedRoom.name=='Restrooms'" points="20093 6828 21022 6828 21073 5805 20093 5811 " />
            <polygon id="elevator1" ng-if="selectedRoom.name=='Elevators'" points="8303 6085 7307 6085 7252 4762 8303 4769 " />
            <polygon id="elevator2" ng-if="selectedRoom.name=='Elevators'" points="17153 5783 16276 5783 16228 4586 17153 4593 " />
        </g>
        <g class="fil5 fnt1">
            <text x="1712" y="4946">FARADAY</text>
            <text x="5232" y="4044">COULOMB</text>
            <text x="9179" y="3561">HERTZ</text>
            <text x="9205" y="5485">TESLA</text>
            <text x="1414" y="9191">OHM</text>
            <text x="2986" y="9191">PASCAL</text>
            <text x="5087" y="9191">CELSIUS</text>
            <text x="9759" y="8649">MAXWELL</text>
            <text x="13067" y="8649">WATT</text>
            <text x="19099" y="3879">VOLT</text>
            <text x="15064" y="3085">NEWTON</text>
            <text x="19467" y="8678">KELVIN</text>
        </g>
        <g id="walls">
            <polygon id="elevator3" class="fil3" points="1078 5942 2629 5942 2689 5942 2689 6001 2689 6275 2570 6275 2570 6060 1137 6060 1137 7368 2570 7368 2570 7102 2689 7102 2689 7427 2689 7487 2629 7487 1078 7487 1018 7487 1018 7427 1018 6001 1018 5942 " />
            <polygon class="fil3" points="8244 4845 7372 4845 7372 5975 7562 5975 7562 6094 7312 6094 7252 6094 7252 6034 7252 4786 7252 4726 7312 4726 8303 4726 8363 4726 8363 4786 8363 6034 8363 6094 8303 6094 8018 6094 8018 5975 8244 5975 " />
            <polygon class="fil3" points="16255 4538 17116 4538 17176 4538 17176 4597 17176 5730 17176 5790 17116 5790 16917 5790 16917 5671 17057 5671 17057 4657 16314 4657 16314 5671 16462 5671 16462 5790 16255 5790 16195 5790 16195 5730 16195 4597 16195 4538 " />
            <path class="fil3" d="M14343 5182l0-15 24 0-24 15zm24-15l0 0 24 15 0 258-48 0 0-258 24-15zm0 287l0 0-24 0 0-15 24 15zm-24-15l0 0 24-15 1454 0 0 30-1454 0-24-15zm1502 0l0 0 0 15-24 0 24-15zm-24 15l0 0-24-15 0-258 48 0 0 258-24 15zm0-287l0 0 24 0 0 15-24-15zm24 15l0 0-24 15-1454 0 0-30 1454 0 24 15zm-1502-258l0 0 0-15 24 0-24 15zm24-15l0 0 24 15 0 258-48 0 0-258 24-15zm0 287l0 0-24 0 0-15 24 15zm-24-15l0 0 24-15 1454 0 0 30-1454 0-24-15zm1502 0l0 0 0 15-24 0 24-15zm-24 15l0 0-24-15 0-258 48 0 0 258-24 15zm0-287l0 0 24 0 0 15-24-15zm24 15l0 0-24 15-1454 0 0-30 1454 0 24 15zm-1502-258l0 0 0-15 24 0-24 15zm24-15l0 0 24 15 0 258-48 0 0-258 24-15zm0 287l0 0-24 0 0-15 24 15zm-24-15l0 0 24-15 1454 0 0 30-1454 0-24-15zm1502 0l0 0 0 15-24 0 24-15zm-24 15l0 0-24-15 0-258 48 0 0 258-24 15zm0-287l0 0 24 0 0 15-24-15zm24 15l0 0-24 15-1454 0 0-30 1454 0 24 15zm-1502-258l0 0 0-15 24 0-24 15zm24-15l0 0 24 15 0 258-48 0 0-258 24-15zm0 287l0 0-24 0 0-15 24 15zm-24-15l0 0 24-15 1454 0 0 30-1454 0-24-15zm1502 0l0 0 0 15-24 0 24-15zm-24 15l0 0-24-15 0-258 48 0 0 258-24 15zm0-287l0 0 24 0 0 15-24-15zm24 15l0 0-24 15-1454 0 0-30 1454 0 24 15zm-1502-258l0 0 0-15 24 0-24 15zm24-15l0 0 24 15 0 258-48 0 0-258 24-15zm0 287l0 0-24 0 0-15 24 15zm-24-15l0 0 24-15 1454 0 0 30-1454 0-24-15zm1502 0l0 0 0 15-24 0 24-15zm-24 15l0 0-24-15 0-258 48 0 0 258-24 15zm0-287l0 0 24 0 0 15-24-15zm24 15l0 0-24 15-1454 0 0-30 1454 0 24 15zm-1502-258l0 0 0-15 24 0-24 15zm24-15l0 0 24 15 0 258-48 0 0-258 24-15zm0 287l0 0-24 0 0-15 24 15zm-24-15l0 0 24-15 1454 0 0 30-1454 0-24-15zm1502 0l0 0 0 15-24 0 24-15zm-24 15l0 0-24-15 0-258 48 0 0 258-24 15zm0-287l0 0 24 0 0 15-24-15zm24 15l0 0-24 15-1454 0 0-30 1454 0 24 15zm-1502 0l0 0 0-15 24 0-24 15zm24-15l0 0 24 15 0 1545-48 0 0-1545 24-15zm0 1575l0 0-24 0 0-15 24 15zm-24-15l0 0 24-15 727 0 0 30-727 0-24-15zm775 0l0 0 0 15-24 0 24-15zm-24 15l0 0-24-15 0-1545 48 0 0 1545-24 15zm0-1575l0 0 24 0 0 15-24-15zm24 15l0 0-24 15-727 0 0-30 727 0 24 15zM2669 7781l0 162-119 0 0-162 119 0zm17423-961l0 0 0-436 119 0 0 436-119 0zm0-829l0 0 0-162 119 0 0 162-119 0zm-1004 3784l0 0 0-742 119 0 0 742-119 0zm0-1145l0 0 0-1947 119 0 0 1947-119 0zm0-2450l0 0 0-350 119 0 0 350-119 0zm-12709-297l0 0 933 0 0 119-933 0 0-119zm933-865l0 0-960 0 0-119 960 0 0 119zm-1315 0l0 0-164 0 0-119 164 0 0 119zm-1947-2113l0 0 0 1750-119 0 0-1750 119 0zm-1420 3090l0 0 449 0 0 119-449 0 0-119zm852 0l0 0 509 0 0 119-509 0 0-119zm700 119l0 0-192 0 0-119 192 0 0 119zm-192 0l0 0-60 0 0-60 60 60zm-60-60l0 0 0-1400 119 0 0 1400-60 60-60-60zm0-1400l0 0 0-59 60 0-60 59zm60-59l0 0 1843 0 0 119-1843 0-60-59 60-59zm1843 0l0 0 60 0 0 59-60-59zm60 59l0 0 0 1400-119 0 0-1400 60-59 60 59zm0 1400l0 0 0 60-60 0 60-60zm-60 60l0 0-165 0 0-119 165 0 60 60-60 60zm-575 0l0 0-667 0 0-119 667 0 0 119zm1684 4215l0 0 0-3508 119 0 0 3508-119 0zm-2192 0l0 0 0-3508 119 0 0 3508-119 0zm-2200 0l0 0 0-2385 119 0 0 2385-119 0zm0-2385l0 0 0-60 60 0-60 60zm60-60l0 0 476 0 0 119-476 0-60-60 60-60zm892 0l0 0 112 0 0 119-112 0 0-119zm172 60l0 0 0 60-60 0 60-60zm-60 60l0 0-59-60 0-1123 119 0 0 1123-60 60zm-59-1183l0 0 0-59 59 0-59 59zm59-59l0 0 2047 0 0 119-2047 0-59-59 59-59zm2470 0l0 0 1222 0 0 119-1222 0 0-119zm1988 0l0 0 342 0 0 119-342 0 0-119zm9998 2984l0 0-132-2955 119-5 132 2955-119 5zm-1511 33l0 0-29-649 119-5 29 649-119 5zm-48-1073l0 0-84-1882 119-5 84 1882-119 5zm-1134 1073l0 0-132-2955 119-5 132 2955-119 5zm-1116 0l0 0-132-2955 119-5 132 2955-119 5zm-1380 0l0 0-132-2955 119-5 132 2955-119 5zm8185-2898l0 0-1105 0 0-119 1105 0 0 119zm-1534 0l0 0-1955 0 0-119 1955 0 0 119zm-2374 0l0 0-941 0 0-119 941 0 0 119zm-1364 0l0 0-674 0 0-119 674 0 0 119zm-1427 0l0 0-700 0 0-119 700 0 0 119zm-1136 0l0 0-1070 0 0-119 1070 0 0 119zm-1506 0l0 0-3310 0 0-119 3310 0 0 119zm-3369-59l0 0-1-60 60 0-59 60zm59-60l0 0 59 59 45 2955-119 1-45-2955 59-60zm12626-872l0 0-1998 0 0-119 1998 0 0 119zm-2622 0l0 0-300 0 0-119 300 0 0 119zm-300 0l0 0-60 0 0-60 60 60zm-60-60l0 0 0-99 119 0 0 99-60 60-60-60zm-3355-3792l0 0 0 638-119 0 0-638 119 0zm0 1061l0 0 0 426-119 0 0-426 119 0zm2477-1319l0 0 0 965-119 0 0-965 119 0zm0 1388l0 0 0 238-119 0 0-238 119 0zm-1407 356l0 0 0-119 119 0 0 119-119 0zm0-119l0 0 0-60 60 0-60 60zm60-60l0 0 2308 0 0 119-2308 0-60-60 60-60zm2384-1670l0 0-32 3263-119-1 32-3263 119 1zm-36 3636l0 0-4 419-119-1 4-419 119 1zm-4 419l0 0-1 59-59 0 59-59zm-59 59l0 0-1192 0 0-119 1192 0 59 60-59 59zm-1727 0l0 0-558 0 0-119 558 0 0 119zm-558 0l0 0-60 0 0-60 60 60zm-60-60l0 0 0-2206 119 0 0 2206-60 60-60-60zm60-2266l0 0 60 0 0 60-60-60zm60 60l0 0-60 60-413 0 0-119 413 0 60 60zm-1149 60l0 0-409 0 0-119 409 0 0 119zm-469-60l0 0 0-60 59 0-59 60zm59-60l0 0 59 60 0 350-119 0 0-350 59-60zm-1796 350l0 0 1796 0 0 119-1796 0 0-119zm1796 0l0 0 60 0 0 60-60-60zm60 60l0 0 0 1856-119 0 0-1856 60-60 60 60zm0 1856l0 0 0 59-60 0 60-59zm-60 59l0 0-475 0 0-119 475 0 60 59-60 59zm-1276 0l0 0-474 0 0-119 474 0 0 119zm-474 0l0 0-58 0-1-58 59 58zm-59-58l0 0-86-3466 119-3 86 3466-59 61-59-58zm-1215-3839l0 0 0 1374-119 0 0-1374 119 0zm-3006 2120l0 0 3005-60 2 119-3005 60-2-119zm3005-60l0 0 61-1 0 60-61-59zm61 59l0 0 0 502-119 0 0-502 58-59 61 59zm0 1209l0 0 0 813-119 0 0-813 119 0zm0 813l0 0 0 60-60 0 60-60zm-60 60l0 0-3005 0 0-119 3005 0 60 60-60 60zm-3005 0l0 0-60 0 0-60 60 60zm-60-60l0 0 0-3794 119 0 0 3794-60 60-60-60zM952 3363l0-101 101-16-100 117zm100-117l0 0 137 117 18 6965-237 0-18-6965 100-117zm37 7201l0 0-118 0 0-119 119 119zm-119-119l0 0 119-119 7386 0 0 238-7386 0-119-119zm7623-3l0 0 4 122-122 0 119-122zm-119 122l0 0-119-116-16-553 237-7 16 553-119 122zm-134-669l0 0-3-122 122 0-119 122zm119-122l0 0 12681 0 0 238-12681 0-119-116 119-122zm12799 116l0 0 3 122-122 0 119-122zm-119 122l0 0-119-116-226-8960 237-6 226 8960-119 122zm-239-9198l0 0 128-14 3 129-132-115zm132 115l0 0-106 121-2756 304-26-236 2756-304 132 115zm-2994 307l0 0 0-106 106-12-106 118zm106-118l0 0 132 118 0 557-238 0 0-557 106-118zm132 675l0 0 0 107-107 11 107-118zm-107 118l0 0-5661 589-24-236 5661-589 131 118-107 118zm-5661 589l0 0-131 14 0-132 131 118zm-131-118l0 0 0-518 238 0 0 518-107 118-131-118zm106-636l0 0 132-16 0 134-132-118zm132 118l0 0-106 118-4386 518-27-236 4386-518 132 118zm-4524 400l0 0 5-1 5-1-10 2zm5-1l0 0 32 235-7039 1100-36-234 7039-1100 5-1zM6962 7637l0-15 47 0-47 15zm47-15l0 0 47 15 0 258-94 0 0-258 47-15zm0 287l0 0-47 0 0-15 47 15zm-47-15l0 0 47-15 1423 0 0 30-1423 0-47-15zm1517 0l0 0 0 15-47 0 47-15zm-47 15l0 0-47-15 0-258 94 0 0 258-47 15zm0-287l0 0 47 0 0 15-47-15zm47 15l0 0-47 15-1423 0 0-30 1423 0 47 15zm-1517 258l0 0 0-15 47 0-47 15zm47-15l0 0 47 15 0 258-94 0 0-258 47-15zm0 287l0 0-47 0 0-15 47 15zm-47-15l0 0 47-15 1423 0 0 30-1423 0-47-15zm1517 0l0 0 0 15-47 0 47-15zm-47 15l0 0-47-15 0-258 94 0 0 258-47 15zm0-287l0 0 47 0 0 15-47-15zm47 15l0 0-47 15-1423 0 0-30 1423 0 47 15zm-1517 258l0 0 0-15 47 0-47 15zm47-15l0 0 47 15 0 258-94 0 0-258 47-15zm0 287l0 0-47 0 0-15 47 15zm-47-15l0 0 47-15 1423 0 0 30-1423 0-47-15zm1517 0l0 0 0 15-47 0 47-15zm-47 15l0 0-47-15 0-258 94 0 0 258-47 15zm0-287l0 0 47 0 0 15-47-15zm47 15l0 0-47 15-1423 0 0-30 1423 0 47 15zm-1517 258l0 0 0-15 47 0-47 15zm47-15l0 0 47 15 0 258-94 0 0-258 47-15zm0 287l0 0-47 0 0-15 47 15zm-47-15l0 0 47-15 1423 0 0 30-1423 0-47-15zm1517 0l0 0 0 15-47 0 47-15zm-47 15l0 0-47-15 0-258 94 0 0 258-47 15zm0-287l0 0 47 0 0 15-47-15zm47 15l0 0-47 15-1423 0 0-30 1423 0 47 15zm-1517 258l0 0 0-15 47 0-47 15zm47-15l0 0 47 15 0 258-94 0 0-258 47-15zm0 287l0 0-47 0 0-15 47 15zm-47-15l0 0 47-15 1423 0 0 30-1423 0-47-15zm1517 0l0 0 0 15-47 0 47-15zm-47 15l0 0-47-15 0-258 94 0 0 258-47 15zm0-287l0 0 47 0 0 15-47-15zm47 15l0 0-47 15-1423 0 0-30 1423 0 47 15zm-1517 258l0 0 0-15 47 0-47 15zm47-15l0 0 47 15 0 258-94 0 0-258 47-15zm0 287l0 0-47 0 0-15 47 15zm-47-15l0 0 47-15 1423 0 0 30-1423 0-47-15zm1517 0l0 0 0 15-47 0 47-15zm-47 15l0 0-47-15 0-258 94 0 0 258-47 15zm0-287l0 0 47 0 0 15-47-15zm47 15l0 0-47 15-1423 0 0-30 1423 0 47 15z" />
        </g>
        <use transform="translate(8632.2158,-130.29071)" xlink:href="#elevator" />
        <use transform="translate(-264.16529,109.60589)" xlink:href="#elevator" />
        <use transform="translate(-112.65165,-1153.0078)" xlink:href="#lab" />
        <use transform="translate(417.64611,3556.5413)" xlink:href="#lab" />
        <use transform="translate(-3797.4654,-1910.576)" xlink:href="#lab" />
        <use transform="translate(-6109.0383,3556.5413)" xlink:href="#lab" />
        <use transform="translate(-9072.8384,3556.5211)" xlink:href="#lab" />
        <use transform="translate(-13768.981,4074.2857)" xlink:href="#lab" />
        <use transform="translate(-15929.564,4074.2857)" xlink:href="#lab" />
        <use transform="translate(-17801.263,4074.2857)" xlink:href="#lab" />
        <use transform="translate(-17160.36,-122.66213)" xlink:href="#lab" />
        <use transform="translate(-13515.952,-967.10651)" xlink:href="#lab" />
        <use transform="translate(-9849.3406,-1455.995)" xlink:href="#lab" />
        <use transform="translate(-9849.3406,466.22635)" xlink:href="#lab" />
        <use transform="translate(-433.27247,59.159916)" xlink:href="#toilet" />
        <use transform="translate(8122.2759,-507.50667)" xlink:href="#toilet" />
        <use transform="translate(15211.111,1025.8261)" xlink:href="#toilet" />
        <use transform="translate(-7073.8376,317.64009)" xlink:href="#storage" />
        <g class="fil6" ng-if="evacuationActive">
            <g transform="translate(3500,6700)">
                <use transform="matrix(1,0,0,-1,-650,700)" xlink:href="#arrow" />
                <use transform="matrix(0,-1,1,0,0,0)" xlink:href="#arrow" />
                <use transform="matrix(0,-1,1,0,1500,0)" xlink:href="#arrow" />
                <use transform="matrix(0,-1,1,0,3000,0)" xlink:href="#arrow" />
            </g>
            <g transform="translate(16000,6500)">
                <use transform="matrix(1,0,0,-1,-1500,0)" xlink:href="#arrow" />
                <use transform="matrix(1,0,0,-1,-1500,-1500)" xlink:href="#arrow" />
                <use transform="matrix(0,-1,-1,0,0,0)" xlink:href="#arrow" />
                <use transform="matrix(0,-1,-1,0,1500,0)" xlink:href="#arrow" />
                <use transform="matrix(0,-1,-1,0,3000,0)" xlink:href="#arrow" />
            </g>
            <g transform="translate(8800,6700)">
                <use transform="matrix(0,-1,-1,0,0,0)" xlink:href="#arrow" />
                <use transform="matrix(0,-1,-1,0,1500,0)" xlink:href="#arrow" />
                <use transform="matrix(0,-1,-1,0,3000,0)" xlink:href="#arrow" />
            </g>
            <g transform="translate(7400,7000)">
                <use transform="matrix(1,0,0,1,0,0)" xlink:href="#arrow" />
                <use transform="matrix(1,0,0,1,0,1500)" xlink:href="#arrow" />
            </g>
            <g transform="translate(11700,3500)">
                <use transform="matrix(1,0,0,1,0,0)" xlink:href="#arrow" />
                <use transform="matrix(1,0,0,1,0,1500)" xlink:href="#arrow" />
            </g>
        </g>
    </g>
</svg>