<svg xmlns="http://www.w3.org/2000/svg" viewBox="-150 0 1650 650.2" class="to-show to-animate mobile-hide" data-info-icon="s-4-cell-2-info-content"><path fill="#DBD9E0" d="M532.4 570v23.9h-95.3v-31.1c-63.7 1.7-113.3 15-113.3 31.1 0 17.3 56.8 31.3 126.8 31.3s126.8-14 126.8-31.3c0-9.6-17.5-18.2-45-23.9z" stroke-dasharray="597.705px,597.705px" stroke-dashoffset="1"/><ellipse fill="#DBD9E0" cx="792.3" cy="491.2" rx="62.6" ry="11.1"/><ellipse fill="#DBD9E0" cx="69.3" cy="490.9" rx="62.6" ry="11.1"/><path fill="none" stroke="#392C70" stroke-linejoin="bevel" stroke-miterlimit="10" d="M37.2 490.9h64.1m-55.6 0v-1.7l.6-5.4m46.5 7.1v-1.7l-.6-5.4M23.8 312.4v4.8m14.6-4.8v4.8m61.7-4.8v4.8M2.9 348.8v4.8m15.4-4.8v4.8m101.9-4.8v4.8m15.5-4.8v4.8m-21-41.2v4.8m-36.3 31.6L60.2 367l20.6 20.6-26.2 26.2L87.8 447l-42.1 42.2L60.2 367h18.2l14.5 122.2L50.7 447l33.2-33.2-26.2-26.2L78.4 367l-18.2-18.2m0 18.2h18.2v-18.2H60.2V367zm16.3-69.2l-7.3-25.6-7.2 25.6h14.5zm-16.3 32.8l16.4-18.2m1.8 18.2L62 312.4m16.4 18.2l-1.8-18.2H62l-1.8 18.2h18.2zm-54.6-18.2l7.3-7.3 7.3 7.3 11.8-11.8L62 312.4l14.6-14.5M62 312.4H20.6v-4.8l41.4-9.7v14.5zm52.7 0l-7.3-7.3-7.3 7.3-11.8-11.8-11.8 11.8L62 297.9m14.5 14.5h41.4v-4.8l-41.4-9.7v14.5zm-16.3 36.4l18.2-18.2 18.2 18.2 11.8-11.8 11.8 11.8 7.7-7.7 7.7 7.7m-75.4 0H.5v-5.6l59.7-12.6v18.2zm18.2 0l-18.2-18.2L42 348.8 30.2 337l-11.8 11.8-7.7-7.7-7.7 7.7m75.4 0H138v-5.6l-59.7-12.6v18.2h.1z" stroke-dasharray="1894.95px,1894.95px" stroke-dashoffset="6"/><path fill="none" stroke="#392C70" stroke-width="2" stroke-linejoin="bevel" stroke-miterlimit="10" d="M371 580.7h67m-47.7.1l8.5-72.4.9-7.2m-30.1-228.4v6.4m19.5-6.4v6.4m82.2-6.4v6.4m-129.6 42.1v6.4m20.5-6.4v6.4m136-6.4v6.4m20.5-6.4v6.4m-27.9-54.9v6.4m-48.5 42.1L418 345.6l27.5 27.5-34.8 34.9 44.3 44.3-56.2 56.2 19.3-162.9h24.3l18.7 161.2-55.6-54.5 44.3-44.3-34.9-34.9 27.5-27.5-24.3-24.3m0 24.3h24.3v-24.3h-24.3v24.3zm21.8-92.2l-9.7-34.2-9.7 34.2h19.4zM418.1 297l21.8-24.3m2.4 24.3l-21.8-24.3m21.8 24.3l-2.4-24.3h-19.4l-2.4 24.3h24.2zm-72.7-24.2l9.8-9.8 9.8 9.8 15.7-15.7 15.7 15.7 19.4-19.4m-19.5 19.4h-55.2v-6.5l55.2-12.9v19.4zm70.3 0L481 263l-9.8 9.8-15.7-15.7-15.7 15.7-19.4-19.4m19.5 19.4h55.2v-6.5l-55.2-12.9v19.4zm-21.8 48.5l24.3-24.3 24.3 24.3 15.8-15.8 15.8 15.8 10.3-10.3 10.3 10.3m-180.4-7.4l79.6-16.8v24.3h-66.4m0-.1h-13.1v-7.4m103.7 7.4L418.1 297l-24.3 24.3-15.8-15.8-15.8 15.8L352 311l-10.3 10.3m100.6 0h79.6v-7.4L442.3 297v24.3z" stroke-dasharray="2567.07px,2567.07px" stroke-dashoffset="8"/><path fill="none" stroke="#DEB026" stroke-miterlimit="10" d="M341.7 330.6l-32.6 32.6m53.1-32.6l-32.6 32.6m40-81.4l-39.9 39.9m59.4-39.9l-39.6 39.9m202.6 41.5l-32.6-32.6m12 32.6l-32.6-32.6m32.6-8.9l-39.9-39.9m20.4 39.9l-39.9-39.9m-368.9 39.9l-3.1-3.1m17.7 3.1l-3.1-3.1m12.6 44.6l-7.1-7.1m22.5 7.1l-7.1-7.1m-33.4-34.6l247.2.2M126.7 363h203.2m181.3-41.5h247.5m-228 41.5h204" stroke-dasharray="1340.66px,1340.66px" stroke-dashoffset="4"/><path fill="none" stroke="#392C70" stroke-linejoin="bevel" stroke-miterlimit="10" d="M760.3 490.9h64.1m-55.6 0v-1.7l.6-5.4m46.5 7.1v-1.7l-.6-5.4m-68.4-171.4v4.8m14.6-4.8v4.8m61.7-4.8v4.8m-97.3 31.6v4.8m15.5-4.8v4.8m101.9-4.8v4.8m15.4-4.8v4.8m-20.9-41.2v4.8m-36.4 31.6L783.2 367l20.6 20.6-26.2 26.2 33.2 33.2-42.1 42.2L783.2 367h18.2l14.5 122.2-42.1-42.2 33.2-33.2-26.2-26.2 20.6-20.6-18.2-18.2m18.2 18.2v-18.2h-18.2V367m16.4-69.2l-7.3-25.6-7.3 25.6h14.6zm-16.4 32.8l16.4-18.2m1.8 18.2L785 312.4m16.4 18.2l-1.8-18.2h-14.5l-1.8 18.2h18.1zm-54.5-18.2l7.3-7.3 7.3 7.3 11.8-11.8 11.8 11.8 14.5-14.5m-14.5 14.5h-41.4v-4.8l41.4-9.7v14.5zm52.7 0l-7.3-7.3-7.3 7.3-11.8-11.8-11.8 11.8-14.5-14.5m14.5 14.5H841v-4.8l-41.4-9.7v14.5zm-16.4 36.4l18.2-18.2 18.2 18.2 11.8-11.8 11.8 11.8 7.7-7.7 7.7 7.7m-75.4 0h-59.7v-5.6l59.7-12.6v18.2zm18.2 0l-18.2-18.2-18.2 18.2-11.8-11.8-11.8 11.8-7.7-7.7-7.7 7.7m75.4 0h59.7v-5.6l-59.7-12.6v18.2z" stroke-dasharray="1876.46px,1876.46px" stroke-dashoffset="6"/><path fill="none" stroke="#DEB026" stroke-miterlimit="10" d="M826.3 321.7l-3.1-3.1m17.7 3.1l-3.1-3.1m12.6 44.6l-7.1-7.1m22.5 7.1l-7.1-7.1m-97.2-37.5l-3.1 3.1m-11.5-3.1l-3.1 3.1m-2.4 34.4l-7.1 7.1m-8.4-7.1l-7.1 7.1m106.5-41.7H971M849.8 363h112.5" stroke-dasharray="315.9px,315.9px" stroke-dashoffset="1"/><clipPath id="a"><path d="M1086.8 272.6h-176l1.3 217.3 166.7 1.3z" overflow="visible" stroke-dasharray="778.755px,778.755px" stroke-dashoffset="2"/></clipPath><path fill="none" stroke="#392C70" stroke-linejoin="bevel" stroke-miterlimit="10" d="M1003.4 217.8s-.4 155.2-44.2 257.6V491m64.1-273.2s-.2 155.2-17 257.6V491m36.9-273.2s.1 155.2 10.2 257.6V491m9.7-273.2s.3 155.2 37.4 257.6V491" clip-path="url(#a)" stroke-dasharray="1102.78px,1102.78px" stroke-dashoffset="3"/><path fill="none" stroke="#DEB026" stroke-miterlimit="10" d="M1090.2 169.4h46.4m-47.5 17h49.8m-155 51.7h102.7m-105.2 17h105.2" stroke-dasharray="304.1px,304.1px" stroke-dashoffset="1"/><g fill="none" stroke="#392C70" stroke-linejoin="bevel" stroke-miterlimit="10"><path stroke-width="2" d="M1088.6 217.1h-104s-.6 155.2-71.4 257.6v15.6m453.3.1V285.7h-45.9v-36.6l-61.8 36.6v-36.6l-61.8 36.6v-36.6l-55 37.4m-63.5 203.9l12.1-340.8h46.1l9.7 256.4" stroke-dasharray="1604.57px,1604.57px" stroke-dashoffset="5"/><path d="M1111.6 406.1h207.7v45.5h-207.7v-45.5zm51.1 0v45.5m52.5-45.5v45.5m52.5-45.5v45.5" stroke-dasharray="642.9px,642.9px" stroke-dashoffset="2"/><path stroke-width="2" d="M863.7 490.5h541.5" stroke-dasharray="541.5px,541.5px" stroke-dashoffset="1"/></g><path fill="none" stroke="#DEB026" stroke-miterlimit="10" d="M1162.4 326.6h156.3m-156.3 17.3h156.3m-156.3 17.4h156.3m-156.3 17.3h156.3" stroke-dasharray="625.2px,625.2px" stroke-dashoffset="2"/><path fill="none" stroke="#392C70" stroke-linejoin="bevel" stroke-miterlimit="10" d="M1111.8 428.9h207.7m-159.9-143l17-11.3m40 11.3l17-11.3m45.4 11.3l17-11.3m-125.1 11.3l17-11.3m42.9 11.3l17-11.3m45.3 11.3l17-11.3" stroke-dasharray="330.178px,330.178px" stroke-dashoffset="1"/><path fill="none" stroke="#392C70" stroke-width="2" stroke-linejoin="bevel" stroke-miterlimit="10" d="M913.4 474.6h453M984.8 221.9h104m-108.5 50.5H1087m3.8-117.7h46.7M390.3 579.2l40.4-40.3M400 508.3l30.6 30.6" stroke-dasharray="810.738px,810.738px" stroke-dashoffset="2"/><path fill="#392C70" d="M484.6 484.5l18.1 18.2L516 516l30 32.5h-13.2l-2 2v41.8h-92.6v-41.8l-2-2h-13.1l61.5-64m0-2.8l-66.1 68.8h17.8v43.8h96.6v-43.8h17.7l-33.2-35.8-13.3-13.3-19.5-19.7z" stroke-dasharray="796.084px,796.084px" stroke-dashoffset="2"/><path fill="none" stroke="#392C70" stroke-width="2" stroke-linejoin="bevel" stroke-miterlimit="10" d="M513 561.8h10m-76.9 0h10m-4.9 5v-10" stroke-dasharray="30px,30px"/><path fill="#392C70" d="M464.9 548.6v26.3h39.3v-26.3h-39.3zm22.1 14.1v6.2l-15.6-10.6 10.9 3.1v-6.7l15.4 11.1-10.7-3.1z" stroke-dasharray="204.416px,204.416px"/><path fill="none" stroke="#DEB026" stroke-miterlimit="10" d="M1216.4 4.9l-63.5 63.6h-52.7v62.3" stroke-dasharray="204.873px,204.873px"/><path fill="none" stroke="#DEB026" stroke-miterlimit="10" d="M1304.5 0l-52.3 52.3h-47.4l-28.2 28.2h-62.1v49.9" stroke-dasharray="273.244px,273.244px"/><path fill="none" stroke="#DEB026" stroke-miterlimit="10" d="M1367.2 21.4l-61.7 61.7h-89.2" stroke-dasharray="176.457px,176.457px"/><path fill="none" stroke="#DEB026" stroke-miterlimit="10" d="M1403.1 75.5h-34.6l-42.4 42.4h-50" stroke-dasharray="144.563px,144.563px"/><path fill="none" stroke="#DEB026" stroke-miterlimit="10" d="M1301.8 142.7H1260l-36.5-36.5h-46.3l-13-13.1h-35.5v37.7" stroke-dasharray="231.375px,231.375px"/></svg>