<svg xmlns="http://www.w3.org/2000/svg" height="0" width="0" clip-rule="evenodd" viewBox="0 0 22222 11111"><style/><defs><style>.fil0,.fil1,.fil3{fill:#205ca2;fill-rule:nonzero}.fil1,.fil3{fill:#fff}.fil1{fill-opacity:.011765}.fil2,.fil6{fill:#0026ff;animation-name:blue-black;animation-duration:2s;animation-iteration-count:infinite}@keyframes blue-black{0%,to{fill:#205ca2}50%{fill:#000}}.fil6{animation-name:red-black}@keyframes red-black{0%{fill:#000}to{fill:red}}.fil4{fill:none;fill-rule:nonzero}.fnt1,.fnt2,.fnt5,.fnt6{font-family:arial;fill:#fff;fill-opacity:1}.fnt2{font-size:310px}.fnt1{font-size:360px}.fnt5{font-size:270px}.fnt6{font-size:180px}.fnt7{font-size:250px}.fil5{fill:#fff}.str4{stroke:#fff;stroke-width:27.7795;stroke-linejoin:round}.str5,.str6{stroke:#fff;stroke-width:13.5157}.str6{stroke-width:55.1772}</style><marker id="Arrow1Lend" overflow="visible"><path d="M2.6 8.12L5.12 2.6h-1.6V0H1.6v2.6H0z"/></marker><marker id="arrow2"><path transform="scale(2)" d="M3137.004 7305.745c28.585 53.424 57.207 106.82 85.792 160.259-18.26.028-36.531-.014-54.79.014-.038 53.877-.014 107.755-.014 161.633-20.676.043-41.34.028-62.015.014-.025-53.878 0-107.77-.012-161.647-18.272-.014-36.544.014-54.816-.014 28.622-53.41 57.195-106.877 85.855-160.26z"/></marker><symbol id="arrow"><path d="M256 512l256-256H352V0H160v256H0z"/></symbol><symbol id="toilet"><path d="M5535 5083c0 35-28 64-64 64-35 0-64-28-64-64 0-35 28-64 64-64 35 0 64 28 64 64M5417 5560l16 16h76l16-16v-178l38-39 8-142-36-36h-41l-13 21 12 95-22 21-21-21 11-95-12-21h-42l-36 36 8 142 38 39zM5284 5083c0 35-28 64-64 64-35 0-64-28-64-64 0-35 28-64 64-64 35 0 64 28 64 64M5250 5576l19-101h58l-44-136 31-48-41-126h-30l-23 40-22-40h-31l-41 126 31 48-44 136h59l19 101z" stroke="#fff" stroke-width="20.835" class="fil4 str0" fill="none"/></symbol><symbol id="elevator"><g stroke="#fff" fill="none"><g stroke-width="13.89"><path d="M8002 5221c0 20-16 36-36 36s-36-16-36-36 16-36 36-36 36 16 36 36M7996 5493v-102l22-22 5-81-21-21h-73l-21 21 5 81 22 22v102l9 9h43zM8166 5221c0 20-16 36-36 36s-36-16-36-36 16-36 36-36 36 16 36 36M8160 5493v-102l22-22 4-81-20-21h-73l-21 21 5 81 22 22v102l9 9h43z"/></g><path stroke-linejoin="bevel" stroke-width="27.779" d="M7818 5114h458v458h-458z"/></g><path fill="#fff" class="fil3" d="M7916 5030l-21-20 70-70 70 70-20 20-32-32v-11l-3-3-3 3v15l3 3v69h-29v-69l3-3v-15l-3-3-3 3v11zM8179 4984l20 20-70 70-70-70 21-20 32 32v11l3 3 3-3v-15l-3-3v-69h29v69l-3 3v15l3 3 3-3v-11z"/></symbol><symbol id="lab"><path class="fil4" d="M19771 4526l-91-154-2-5v-145h-52v145l-2 5-91 154z"/><path class="fil4 str1" d="M19771 4526l-91-154-2-5v-145h-52v145l-2 5-91 154z"/><path class="fil3" d="M19699 4364v-153l-10-10h-73l-10 10v153l-112 188 9 16h300l9-16-112-188zm-75 8l1-5v-145h52v145l1 5 91 154h-238l91-154zM19652 4189h-7l-16-16v-7l16-16h7l16 16v7l-16 16zm-13-20l9 9 9-9-9-9-9 9zM19683 4159l-7-3-13-31 3-7 31-13 7 3 13 31-3 7-31 13zm-8-33l9 21 21-9-9-21-21 9zM19634 4143l-28-18-1-7 18-28 7-1 28 18 2 7-18 28-7 1zm-18-24l19 13 13-19-19-13-13 19z"/></symbol><symbol id="reception"><path class="fil4 str4" d="M5843 5262h334"/><path class="fil3" d="M6012 5117c52 0 95 35 108 83h-215c12-48 56-83 108-83zm0-28c-77 0-139 62-139 139h278c0-77-62-139-139-139z"/><path class="fil4 str4" d="M6010 5107v-52M5968 5051h84"/></symbol><symbol id="storage"><path class="fil4 str4" d="M18996 2193h-85M18838 1885v239"/><path class="fil3" d="M18924 1964h-42v-39h42zM18924 2094h-42v-38h42z"/><path class="fil4 str4" d="M18876 2193c0 21-17 38-38 38s-38-17-38-38 17-38 38-38 38 17 38 38M18968 2066h-130v-130h130z"/><path class="fil3" d="M18827 2056v68h21v-48h109v110h-46v21h67v-151z"/></symbol><symbol id="food"><path class="fil4 str4" transform="matrix(.3746 0 0 -.40267 5011.157 4491.973)" d="M328.747 1500.31V999.16q0-47.766-27.038-86.919-27.038-39.152-70.45-54.813V247.432q0-40.718-28.943-70.474-28.941-29.756-68.546-29.756H36.28q-39.605 0-68.547 29.756t-28.942 70.474v609.995q-43.413 15.661-70.45 54.813-27.038 39.153-27.038 86.919v501.151q0 20.36 14.47 35.237 14.472 14.878 34.274 14.878t34.273-14.878q14.471-14.878 14.471-35.237v-325.748q0-20.36 14.471-35.237 14.471-14.878 34.274-14.878 19.802 0 34.273 14.878 14.471 14.878 14.471 35.237v325.748q0 20.36 14.471 35.237 14.471 14.878 34.273 14.878 19.803 0 34.274-14.878 14.47-14.878 14.47-35.237v-325.748q0-20.36 14.472-35.237 14.47-14.878 34.273-14.878 19.802 0 34.273 14.878 14.471 14.878 14.471 35.237v325.748q0 20.36 14.471 35.237 14.471 14.878 34.274 14.878 19.802 0 34.273-14.878 14.471-14.878 14.471-35.237zm584.932 0V247.432q0-40.718-28.941-70.474-28.942-29.756-68.547-29.756h-97.489q-39.605 0-68.547 29.756t-28.942 70.474v400.921H450.608q-9.901 0-17.137 7.439-7.235 7.439-7.235 17.619v626.439q0 103.362 71.593 176.969 71.593 73.606 172.129 73.606h194.977q19.803 0 34.274-14.878 14.47-14.878 14.47-35.237z" stroke-width="60"/>/&gt;</symbol><symbol id="shower"><g class="fil3"><path d="M6.8 201.8c.8-43.9-1.9-88.2 2.3-131.9C20.4 28 64.4-2.5 107.4 5.2c17.1 2 33 9.8 46 21 21.1 8.8 48.8-8.9 65.6 12.3 13.6-3.3 33.1-9.2 35.1 12.3-7.9 19.1-28.7 30-41.1 46.4-22.7 23.2-45.6 46.2-69.3 68.4-16.8-2.7-21.3-22.2-13.7-33.1-10.1-18-16.6-40-7.8-59.9 10.6-26-29.9-28.6-45.5-21-24.4 8.4-29.1 36.4-26.2 59-1 69.7-.3 139.5-.5 209.2H6.9V201.9z"/><ellipse ry="9.8" rx="9.3" cy="150.1" cx="196.4"/><ellipse ry="9.8" rx="9.3" cy="125.5" cx="220.3"/><ellipse ry="9.8" rx="9.3" cy="104.8" cx="247.6"/><ellipse ry="9.8" rx="9.3" cy="192.4" cx="193"/><ellipse ry="9.8" rx="9.3" cy="169.8" cx="219.3"/><ellipse ry="9.8" rx="9.3" cy="145.2" cx="240.8"/><ellipse ry="9.8" rx="9.3" cy="123.5" cx="266.1"/><ellipse ry="9.8" rx="9.3" cy="98.9" cx="288.6"/><ellipse ry="9.8" rx="9.3" cy="99.9" cx="331.5"/><ellipse ry="9.8" rx="9.3" cy="125.5" cx="304.2"/><ellipse ry="9.8" rx="9.3" cy="152" cx="284.7"/><ellipse ry="9.8" rx="9.3" cy="169.8" cx="259.3"/><ellipse ry="9.8" rx="9.3" cy="195.3" cx="240.8"/><ellipse ry="9.8" rx="9.3" cy="216" cx="217.4"/><ellipse ry="9.8" rx="9.3" cy="239.6" cx="193"/></g></symbol><symbol id="stairs15"><rect class="fil2" width="2548.829" height="2483.808" x="9662.144" y="3542.538" ry="52.533"/><path d="M10597.186 3540.8v2255.704h324.749V3540.801h-324.749zm52.39 52.965h219.971V5743.54h-219.971V3593.765zm-1031.54 130.606v263.895h1.023v181.195h-1.022V4622.71h-1.327v263.894h1.017V5067.8h-1.017V5567.3h947.185v-898.338h1.429V3724.371h-947.288zm53.922 54.513h385.921v154.972h-385.92v-154.972zm453.525 0h385.92v154.972h-385.92v-154.972zm0 222.494h385.92v154.971h-385.92v-154.97zm-452.503.204h385.919v154.971h-385.92v-154.97zm-1.017 222.287h385.92v154.971h-385.92V4223.87zm453.525 0h385.92v154.971h-385.92V4223.87zm1719.129 100.045v1132.29h324.748v-1132.29h-324.748zm37.887 38.303h248.973v1055.684h-248.973V4362.217zm-948.105 57.095V5363.8h895.307V4419.31h-895.307zm-1262.436 40.163h385.92v154.971h-385.92v-154.971zm453.525 0h385.92v154.971h-385.92v-154.971zm861.3 12.802h362.534v156.727h-362.534v-156.727zm427.892 0h362.637v156.727h-362.637v-156.727zM9670.635 4677.22h385.819v154.971h-385.819v-154.97zm453.526 0h385.92v154.971h-385.92v-154.97zm862.627 17.862h362.534v156.829h-362.534v-156.83zm427.892 0h362.637v156.829h-362.637v-156.83zm-1290.519 204.632h385.92v154.971h-385.92v-154.971zm-452.504.203h385.92v154.972h-385.92v-154.972zm1315.131 18.068h362.534v156.83h-362.534v-156.83zm427.892 0h362.637v156.83h-362.637v-156.83zm-1744.045 204.22h385.819v154.971h-385.819v-154.972zm453.526 0h385.92v154.971h-385.92v-154.972zm862.627 31.8h362.534v156.829h-362.534v-156.83zm427.892 0h362.637v156.829h-362.637v-156.83zm-1744.045 203.805h385.819v154.972h-385.819v-154.972zm453.526 0h385.92v154.972h-385.92v-154.972z"/></symbol></defs></svg>