<?xml version="1.0" encoding="UTF-8" standalone="no"?>
<svg
   xmlns:dc="http://purl.org/dc/elements/1.1/"
   xmlns:cc="http://creativecommons.org/ns#"
   xmlns:rdf="http://www.w3.org/1999/02/22-rdf-syntax-ns#"
   xmlns:svg="http://www.w3.org/2000/svg"
   xmlns="http://www.w3.org/2000/svg"
   xmlns:xlink="http://www.w3.org/1999/xlink"
   id="svg3336"
   viewBox="0 0 22222 11111"
   clip-rule="evenodd"
   version="1.1">

  
  <polygon id="background" points="22222 11111 0 11111 0 0 22222 0" class="fil0" />
  <g class="fil2">
    <rect ng-if="selectedRoom.name=='Elevator'" y="6786.8853" x="10398.467" height="1252.6204" width="1081.0287"/>
    <path ng-if="selectedRoom.name=='Miłosz'" d="m 13339.571,6540.9504 0,-150 -528.571,0 -528.571,0 0,-789.2857 0,-789.2857 1746.428,0 1746.429,0 0,939.2857 0,939.2857 -1217.857,0 -1217.858,0 0,-150 z"></path>
	<path ng-if="selectedRoom.name=='Matejko'" d="m 13339.571,7744.5218 0,-989.2857 1217.858,0 1217.857,0 0,989.2857 0,989.2857 -1217.857,0 -1217.858,0 0,-989.2857 z"/>
	<path ng-if="selectedRoom.name=='Wyspiański'" d="m 12768.143,10458.808 0,-217.858 255.357,-0.04 c 212.562,-0.04 258.786,-1.833 275.816,-10.715 11.253,-5.87 24.914,-10.671 30.358,-10.671 8.368,0 9.897,-109.787 9.897,-710.7145 l 0,-710.7143 1217.858,0 1217.857,0 0,939.2858 0,939.286 -1503.572,0 -1503.571,0 0,-217.857 z"/>
	<path ng-if="selectedRoom.name=='Showers'" d="m 6061,7080.226 0,-582.1429 1278.5714,0 1278.5715,0 0,582.1429 0,582.1428 -1278.5715,0 -1278.5714,0 0,-582.1428 z"/>	
	<path ng-if="selectedRoom.name=='Showers'" d="m 6061,8298.0831 0,-571.4286 1278.5714,0 1278.5715,0 0,571.4286 0,571.4286 -1278.5715,0 -1278.5714,0 0,-571.4286 z"/>
	<rect ng-if="selectedRoom.name=='Modrzejewska'" width="2221.4285" height="1750" x="7521.4287" y="8932.4287"/>
      <path ng-if="selectedRoom.name=='Kopernik'" d="m 6065.3583,5331.8272 0,-1092.3554 -136.5444,0 -136.5444,0 0,-929.8025 0,-929.8025 656.7137,0 656.7136,0 0,995.6874 0,995.6874 35.7617,-4.1148 35.7616,-4.1148 3.3323,-991.5726 3.3322,-991.5726 1196.3081,0 1196.308,0 0,2022.1579 0,2022.1579 -1755.5712,0 -1755.5712,0 0,-1092.3554 z"/>
	<text x="14000" y="6000" class="fil5 fnt5">MIŁOSZ</text>
	 <text x="14000" y="7800" class="fil5 fnt5">MATEJKO</text>
	 <text x="13750" y="9800" class="fil5 fnt5">WYSPIAŃSKI</text>
	 <text x="7700" y="10000" class="fil5 fnt7">MODRZEJEWSKA</text>
       <text x="7000" y="5000" class="fil5 fnt5">KOPERNIK</text>
  </g>
  <g transform="translate(2907.0724,2179.5774)">
        <use xlink:href="#elevator" />
  </g>
  <g transform="translate(7400,6900)">
        <use xlink:href="#shower" />
  </g>
  <g transform="translate(7400,8100)">
        <use xlink:href="#shower" />
  </g>
    <g transform="translate(-12100,8100)">
        <use xlink:href="#storage" />
  </g>
  <g class="fil3">
    <path d="m 10353.973,6746.957 0,14.9453 0,1337.8887 1174.138,0 0,-1352.834 -1174.138,0 z m 29.89,29.8907 1114.358,0 0,1293.0527 -1114.358,0 0,-1293.0527 z"/>
  <path d="m 9601.6992,6579.5078 0,30 0,1657.7324 2662.4378,0 0,-1687.7324 -2662.4378,0 z m 60,60 2542.4378,0 0,1567.7324 -2542.4378,0 0,-1567.7324 z"/>
  <path d="m 5972.83,10815.151 c 0,-9.783 -5.8567,-17.789 -12.9814,-17.789 -49.5706,0 -47.6384,131.452 -47.6384,-3236.7615 l 0,-3202.8758 -139.4438,0 -139.4135,0 0,-1043.6225 c 0,-919.7625 2.1132,-1043.6254 18.1739,-1043.6254 10.0228,0 18.204,-8.0055 18.204,-17.7887 0,-15.7394 222.2828,-17.7888 1927.7297,-17.7888 l 1927.759,0 0,-189.7498 0,-189.7498 1406.3925,0 1406.392,0 0,1399.4037 0,1399.4066 1782.248,0 1782.277,0 0,29.648 c 0,16.3063 5.434,29.6479 12.106,29.6479 8.06,0 12.136,1016.2365 12.136,3024.9852 0,3180.4009 1.811,3058.8709 -47.639,3058.8709 -7.154,0 -12.981,8.006 -12.981,17.789 0,15.784 -557.714,17.789 -4946.675,17.789 -4388.9315,0 -4946.646,-2.008 -4946.646,-17.789 z m 1479.149,-634.475 0,-498.0947 30.3099,0 30.3099,0 0,498.0947 0,498.091 1115.4291,0 1115.3989,0 0,-498.091 c 0,-324.1581 4.2566,-498.0947 12.136,-498.0947 6.6718,0 12.136,5.336 12.136,11.8591 0,6.5232 8.1813,11.8592 18.1739,11.8592 15.8795,0 18.2041,61.9329 18.2041,486.2354 l 0,486.232 1448.8082,0 1448.838,0 0,-219.397 0,-219.399 -272.789,0 -272.789,0 0,-266.834 0,-266.8374 30.31,0 30.31,0 0,219.3978 0,219.4006 527.404,0 527.405,0 0,-231.2598 0,-231.2569 30.31,0 30.31,0 0,260.9048 c 0,166.0319 -4.408,260.9079 -12.136,260.9079 -6.642,0 -12.106,8.005 -12.106,17.789 0,15.284 -38.401,17.788 -272.789,17.788 l -272.82,0 0,219.399 0,219.397 1509.458,0 1509.458,0 0,-942.8194 0,-942.8195 -1224.532,0 -1224.533,0 0,160.1019 0,160.1019 -30.31,0 -30.31,0 0,-278.6966 0,-278.6937 30.31,0 c 29.646,0 30.31,1.9785 30.31,88.9439 l 0,88.9468 1224.533,0 1224.532,0 0,-990.2562 0,-990.2591 -1224.532,0 -1224.533,0 0,604.827 0,604.8299 -30.31,0 -30.31,0 0,-735.2809 c 0,-482.2811 -4.166,-735.2808 -12.136,-735.2808 -6.672,0 -12.106,-8.0056 -12.106,-17.7888 0,-14.6261 -21.555,-17.7888 -121.24,-17.7888 -121.239,0 -121.239,0 -121.239,-29.6509 l 0,-29.6479 151.549,0 c 126.614,0 151.55,2.9234 151.55,17.7887 0,9.7862 5.464,17.7888 12.106,17.7888 7.366,0 12.136,51.3908 12.136,130.4539 l 0,130.4539 1224.533,0 1224.532,0 0,-942.8194 0,-942.8194 -1751.937,0 -1751.937,0 0,985.174 c 0,838.0063 -2.416,987.7048 -17.299,1002.1154 -21.676,21.1758 -28.589,21.1758 -50.235,0 -14.762,-14.4283 -17.328,-174.2555 -17.328,-1078.2137 0,-837.4216 3.2,-1062.7312 15.155,-1068.1913 12.136,-5.5339 12.136,-8.3008 0,-13.8347 -17.902,-8.1768 -20.71,-99.8167 -3.019,-99.8167 7.94,0 12.106,-252.9998 12.106,-735.2809 0,-482.2811 -4.166,-735.2808 -12.106,-735.2808 -6.672,0 -12.136,-13.3416 -12.136,-29.648 0,-16.3063 5.464,-29.6479 12.136,-29.6479 7.879,0 12.106,-175.9151 12.106,-504.0239 l 0,-504.024 -1285.153,0 -1285.1528,0 0,148.2427 c 0,90.9223 4.6793,148.2427 12.1058,148.2427 6.6718,0 12.1361,8.0055 12.1361,17.7887 0,9.7833 -5.4643,17.7888 -12.1361,17.7888 -7.7888,0 -12.1058,120.5703 -12.1058,337.9925 0,217.4222 4.317,337.9925 12.1058,337.9925 6.6718,0 12.1361,13.3416 12.1361,29.6479 0,16.3064 -5.4643,29.648 -12.1361,29.648 -7.9397,0 -12.1058,268.8129 -12.1058,782.7175 0,513.9076 4.1661,782.7206 12.1058,782.7206 6.6718,0 12.1361,18.6776 12.1361,41.5071 0,22.8295 -5.4643,41.5071 -12.1361,41.5071 -6.6718,0 -12.1058,21.3471 -12.1058,47.4367 0,26.0926 5.434,47.4397 12.1058,47.4397 6.6718,0 12.1361,18.6776 12.1361,41.5071 0,22.8295 -5.4643,41.5071 -12.1361,41.5071 -6.6718,0 -12.1058,21.3471 -12.1058,47.4367 0,26.0926 5.434,47.4397 12.1058,47.4397 6.6718,0 12.1361,18.6776 12.1361,41.5071 0,22.8295 -5.4643,41.5072 -12.1361,41.5072 -6.6718,0 -12.1058,21.3471 -12.1058,47.4367 0,26.0925 5.434,47.4396 12.1058,47.4396 6.6718,0 12.1361,18.6776 12.1361,41.5072 0,22.8295 -5.4643,41.5071 -12.1361,41.5071 -6.6718,0 -12.1058,18.6776 -12.1058,41.5071 0,22.8295 5.434,41.5101 12.1058,41.5101 6.6718,0 12.1361,21.3441 12.1361,47.4367 0,26.0896 -5.4643,47.4367 -12.1361,47.4367 -7.9397,0 -12.1058,239.165 -12.1058,693.7737 0,454.6088 -4.1963,693.7738 -12.1361,693.7738 -6.6718,0 -12.136,-5.339 -12.136,-11.8622 0,-6.5201 -8.1813,-11.8591 -18.1739,-11.8591 -16.0908,0 -18.1739,-252.9998 -18.1739,-2205.8426 l 0,-2205.8396 -1206.3588,0 -1206.3597,0 0,990.2561 0,990.2562 -30.3099,0 -30.3099,0 0,-990.2562 0,-990.2561 -660.7804,0 -660.7501,0 0,930.9602 0,930.9603 133.3455,0 133.3757,0 0,1096.9917 0,1096.9887 1448.8391,0 1448.8381,0 0,29.6509 0,29.648 -1448.8381,0 -1448.8391,0 0,587.0381 0,587.0382 1285.1525,0 1285.1837,0 0,-278.6936 c 0,-177.8907 4.3774,-278.6966 12.1058,-278.6966 6.6718,0 12.1361,5.336 12.1361,11.8592 0,6.5231 8.1812,11.8591 18.1738,11.8591 15.9399,0 18.2041,73.7921 18.2041,592.9678 l 0,592.9707 -30.3099,0 -30.3099,0 0,-296.4853 0,-296.4854 -1285.1837,0 -1285.1525,0 0,575.1819 0,575.179 1448.8391,0 1448.8381,0 0,29.648 0,29.6479 -1448.8381,0 -1448.8391,0 0,871.6644 0,871.6614 697.1583,0 697.129,0 0,-498.091 z" />
       <use xlink:href="#stairs15" />
    </g>
</svg>
