<?xml version="1.0" encoding="UTF-8" standalone="no"?>
<svg
   xmlns:dc="http://purl.org/dc/elements/1.1/"
   xmlns:cc="http://creativecommons.org/ns#"
   xmlns:rdf="http://www.w3.org/1999/02/22-rdf-syntax-ns#"
   xmlns:svg="http://www.w3.org/2000/svg"
   xmlns="http://www.w3.org/2000/svg"
   xmlns:xlink="http://www.w3.org/1999/xlink"
   id="svg3336"
   viewBox="0 0 22222 11111"
   clip-rule="evenodd"
   version="1.1">

  <polygon id="background" points="22222 11111 0 11111 0 0 22222 0" class="fil0" />
  <g class="fil2">
  <!--<path d="m 5709.0211,3678.4584 0,-2168.1867 434.8981,-5.7009 c 239.1939,-3.1355 566.3093,-3.1476 726.9231,-0.027 l 292.025,5.674 0.4192,523.9828 c 0.3916,488.8475 6.3656,737.1781 18.0147,748.8272 2.6945,2.6946 9.1483,0.65 14.3419,-4.5436 6.351,-6.351 10.3702,-47.4721 12.2756,-125.5922 l 2.8328,-116.1496 331.827,4.7528 c 192.2029,2.7529 346.3922,8.2336 366.4423,13.0252 76.5909,18.304 211.1397,22.3561 917.3077,27.6261 l 736.5385,5.4966 0,1289.9862 0,1289.9862 -49.9981,4.0134 c -27.4989,2.2073 -58.6597,9.6886 -69.2461,16.6251 -17.3791,11.3873 -60.8833,12.3609 -448.0788,10.0284 -300.9183,-1.8129 -440.3033,-5.3587 -467.2924,-11.8877 -21.1539,-5.1173 -74.6077,-10.0967 -118.7863,-11.0654 l -80.3244,-1.7613 -6.1586,26.9231 c -3.3872,14.8076 -8.4667,166.25 -11.2876,336.5384 l -5.129,309.6154 -1298.7723,0 -1298.7723,0 0,-2168.1866 z"/>-->
  <rect ng-if="selectedRoom.name=='Skłodowska-Curie'" width="4109.5054" height="4850.7461" x="12236.897" y="3347.3896"/>
  <path ng-if="selectedRoom.name=='Restrooms'" d="m 5730,6980.6514 c -3.8481,-40.8588 -7.0343,-295.8752 -7.077,-566.7031 l -0.1017,-492.4143 1291.7919,-2.8434 1291.7914,-2.8434 -7.1212,534.5242 c -3.9142,293.9889 -10.2653,550.2836 -14.1083,569.5444 l -6.9866,35.0197 -1270.6065,0 -1270.6062,0 -6.9992,-74.2882 z"/>
  <path ng-if="selectedRoom.name=='Restrooms'" d="m 5730,7687.7666 0,-544.7815 1284.086,0 1284.0867,0 6.1269,211.8597 c 3.3703,116.5227 8.6564,361.6744 11.7487,544.7817 l 5.6216,332.9219 -1295.8347,0 -1295.8352,0 0,-544.7818 z"/>
  <!--<path d="m 12262.064,3334.2526 4018.321,0 0,5150.662 -4018.321,0 z m -6532.519,4974.5709 10550.838,0 0,2333.2055 -10550.8378,0 z" />-->
  <rect ng-if="selectedRoom.name=='Elevator'" y="6786.8853" x="10398.467" height="1252.6204" width="1081.0287"/>
  <text x="6150" y="1100" class="fil5 fnt5">Balcony</text>
  <text x="13000" y="5900" class="fil5 fnt5">SKŁODOWSKA-CURIE</text>
  </g>
  <g transform="translate(2907.0724,2179.5774)">
        <use xlink:href="#elevator" />
  </g>
  <g transform="translate(1740.2477,2385.4876)">
        <use xlink:href="#toilet" />
  </g>
  <g transform="translate(1740.2477,1185.4876)">
        <use xlink:href="#toilet" />
  </g>
  <g class="fil3">
    <path d="m 10353.973,6746.957 0,14.9453 0,1337.8887 1174.138,0 0,-1352.834 -1174.138,0 z m 29.89,29.8907 1114.358,0 0,1293.0527 -1114.358,0 0,-1293.0527 z"/>
  <path d="m 9601.6992,6579.5078 0,30 0,1657.7324 2662.4378,0 0,-1687.7324 -2662.4378,0 z m 60,60 2542.4378,0 0,1567.7324 -2542.4378,0 0,-1567.7324 z"/>
  <path d="m 5605.6535,10730.216 c -14.4869,-27.136 -21.2545,-1661.7312 -21.2545,-5133.755 0,-4603.41532 3.1059,-5097.05862 32.2651,-5126.28715 28.5751,-28.64436 165.7687,-32.34343 1199.6669,-32.34343 1033.8976,0 1171.0912,3.69948 1199.6665,32.34343 28.4243,28.49373 32.265,148.52948 32.265,1008.52125 l 0,976.1776 729.7514,0 729.7516,0 57.8953,-128.6379 c 31.8425,-70.7507 78.671,-172.6321 104.0634,-226.4024 l 46.168,-97.7651 1034.9258,0 1034.925,0 107.484,62.542 c 59.115,34.3986 172.159,106.1787 251.208,159.5113 l 143.724,96.9686 5.541,437.369 5.543,437.3687 2038.437,0 c 1558.076,0 2044.246,5.8203 2063.077,24.6989 35.844,35.9302 35.844,7488.8722 0,7524.8022 -19.036,19.084 -1246.371,24.698 -5399.243,24.698 -5292.7013,0 -5374.9297,-0.606 -5395.8605,-39.81 z m 10691.4745,-3752.4345 -5.191,-3648.1711 -2021.148,-5.2471 c -1603.346,-4.1632 -2024.527,0.1019 -2037.504,20.5821 -8.998,14.2062 -16.501,593.1223 -16.674,1286.4806 -0.203,826.5026 -7.385,1260.6512 -20.846,1260.6512 -21.954,0 -22.469,-54.5545 -20.929,-2215.2473 0.875,-1223.045 -1.199,-1300.092 -35.269,-1312.0604 -19.909,-6.9933 -114.286,-63.6763 -209.73,-125.9627 l -173.533,-113.2472 -980.191,0 c -761.825,0 -983.7998,5.7316 -996.3898,25.7276 -8.9101,14.1503 -48.723,95.1923 -88.4738,180.0932 l -72.2745,154.3651 7.3973,751.2455 c 9.3137,945.9573 -16.6073,2613.9221 -40.6221,2613.9221 -10.0813,0 -18.1055,-296.4591 -18.1055,-668.9166 l 4.7062,62.8436 -74.3016,-2.439 c -90.5224,-2.9715 -89.8388,-58.2988 -0.2552,-66.9571 l 66.7296,-6.4495 -1.805,-1649.0001 5.3405,-941.6294 -810.0171,0 c -517.8636,0 -814.5942,-7.4234 -822.7068,-20.582 -7.6748,-12.4484 -154.2043,-20.5821 -370.791,-20.5821 l -358.1017,0 0,123.4922 c 0,68.6071 -9.1252,123.4929 -20.5323,123.4929 -13.2468,0 -20.532,-226.403 -20.532,-638.0445 l 0,-638.0438 -174.524,0 c -102.6607,0 -174.5231,-8.4746 -174.5231,-20.582 0,-12.2745 78.5872,-20.5821 194.6971,-20.5821 l 194.697,0 5.4916,509.4059 5.4921,509.406 343.9142,5.6436 343.914,5.643 0,-957.5637 0,-957.56357 -1098.4724,0 -1098.4724,0 0,442.51467 0,442.5141 256.6524,0 c 157.4135,0 256.6524,7.9584 256.6524,20.5821 0,12.6241 -99.284,20.582 -256.7883,20.582 l -256.788,0 0.2715,4342.8154 1303.7941,0 1303.7942,0 0,-339.6039 c 0,-212.6813 7.6809,-340.0287 20.5322,-339.604 341.6537,11.2903 345.3304,73.0445 20.5321,71.2839 l 0,669.6703 -1324.3264,0 -1324.3264,0 0,576.2976 0,576.2983 1303.7943,0 1303.7942,0 0,-216.1117 c 0,-130.3532 8.1482,-216.1118 20.5322,-216.1118 13.0799,0 20.5321,168.0868 20.5321,463.0963 0,284.1992 -7.663,463.0971 -19.8373,463.0971 -11.1705,0 -22.384,-96.6702 -25.6652,-221.2574 l -5.8276,-221.2576 -1293.5284,0 -1293.528,0 -5.4626,560.727 -5.463,560.7267 1492.3374,5.2797 c 1171.8482,4.1479 1494.1739,10.8053 1500.8906,31.0078 6.7908,20.4256 -300.6844,25.7277 -1492.0075,25.7277 l -1500.5612,0 0,1162.8868 0,1162.8861 5297.3619,0 5297.363,0 z" />
       <use xlink:href="#stairs15" />
  <path style="fill:none;fill-opacity:1;fill-rule:evenodd;stroke:#ffffff;stroke-width:40;stroke-linecap:butt;stroke-linejoin:miter;stroke-miterlimit:4;stroke-dasharray:none;stroke-opacity:1" d="m 12184.965,8243.0649 1885.472,-5.9106 520.205,-1.6307 1742.672,-5.4629"/>
    </g>
</svg>
