<?xml version="1.0" encoding="UTF-8" standalone="no"?>
<svg
   xmlns:dc="http://purl.org/dc/elements/1.1/"
   xmlns:cc="http://creativecommons.org/ns#"
   xmlns:rdf="http://www.w3.org/1999/02/22-rdf-syntax-ns#"
   xmlns:svg="http://www.w3.org/2000/svg"
   xmlns="http://www.w3.org/2000/svg"
   xmlns:xlink="http://www.w3.org/1999/xlink"
   id="svg3336"
   viewBox="0 0 22222 11111"
   clip-rule="evenodd"
   version="1.1">

  <polygon id="background" points="22222 11111 0 11111 0 0 22222 0" class="fil0" />
  <g class="fil2">
    <rect ng-if="selectedRoom.name=='Elevator'" y="6786.8853" x="10398.467" height="1252.6204" width="1081.0287"/>
    <path ng-if="selectedRoom.name=='Kitchen'" d="m 8780.0895,4600.6331 c -4.1361,-12.4086 -329.2956,-18.1081 -1460.8086,-25.606 -800.5185,-5.3044 -1491.5078,-13.1579 -1535.5319,-17.4522 l -80.0438,-7.8077 6.9909,-548.5256 c 3.8451,-301.6892 7.9066,-549.7284 9.0256,-551.1981 1.119,-1.4699 86.5934,-7.3218 189.9431,-13.0043 163.7848,-9.0054 188.4674,-13.2535 192.261,-33.0892 3.8864,-20.3215 -8.2778,-22.7574 -113.6393,-22.7574 l -117.9916,0 0,-873.3635 0,-873.3635 314.2073,8.5821 c 172.814,4.7202 386.4085,8.5821 474.6544,8.5821 l 160.4471,0 0,338.2933 0,338.2934 39.7698,35.5783 39.7698,35.5783 10.4115,556.6961 c 6.7653,361.7366 15.2471,561.5318 24.2193,570.5039 22.2986,22.2986 27.1292,-62.0342 35.0999,-612.7704 4.0827,-282.0976 10.6895,-516.1738 14.6816,-520.1693 3.9923,-3.9955 591.0735,-9.1049 1304.6249,-11.3543 l 1297.3662,-4.0897 8.4813,100.3324 c 4.6647,55.1829 8.4812,148.7031 8.4812,207.8228 0,68.1386 5.3623,109.2776 14.6472,112.3726 10.7973,3.5991 12.0943,243.1435 4.9347,911.3798 l -9.7123,906.4975 -413.4844,0 c -315.1678,0 -414.7495,-3.7953 -418.8049,-15.9614 z"/>
    <rect ng-if="selectedRoom.name=='Restrooms'" y="4660.9014" x="5903.9209" height="2288.7446" width="2860.9309"/>
  </g>
  <g transform="translate(2907.0724,2179.5774)">
        <use xlink:href="#elevator" />
  </g>
  <g transform="translate(1740.2477,0)">
        <use xlink:href="#toilet" />
  </g>

  <g transform="translate(1740.2477,1185.4876)">
        <use xlink:href="#toilet" />
  </g>
  <g transform="translate(1879.5212,-200)">
        <use xlink:href="#food" />
  </g>
  <g class="fil3">
    <path d="m 10353.973,6746.957 0,14.9453 0,1337.8887 1174.138,0 0,-1352.834 -1174.138,0 z m 29.89,29.8907 1114.358,0 0,1293.0527 -1114.358,0 0,-1293.0527 z"/>
  <path d="m 9601.6992,6579.5078 0,30 0,1657.7324 2662.4378,0 0,-1687.7324 -2662.4378,0 z m 60,60 2542.4378,0 0,1567.7324 -2542.4378,0 0,-1567.7324 z"/>
  <path d="m 6092.3177,10844.264 c -9.8475,-11.871 -17.41,-115.07 -19.869,-271.202 l -3.9805,-252.042 -141.585,-7.23 c -104.197,-5.344 -145.1945,-12.961 -155.2545,-28.926 -8.4565,-13.429 -13.751,-1081.4702 -13.8875,-2802.1812 l 0,-2780.486 -76.6565,0 c -42.159,0 -84.4595,-7.808 -94.0065,-17.3555 -25.6925,-25.692 -24.94,-1375.709 0.763,-1397.05 9.973,-8.2825 40.8885,-17.214 68.6965,-19.853 l 50.566,-4.798 3.6535,-860.541 c 3.326,-788.5785 5.676,-862.051 28.0695,-878.6155 18.604,-13.762 163.5095,-18.0805 606.394,-18.0805 509.76,0 584.7645,2.835 604.6715,22.726 19.373,19.367 22.7315,72.818 22.7315,361.5715 l 0,338.8455 1298.0385,-0.763 1298.044,-0.7635 121.1055,-158.346 121.1055,-158.346 1115.4668,0.545 c 854.718,0.5455 1120.56,4.58 1137.244,18.0805 54.193,43.86 297.396,334.331 305.88,365.3395 5.18,19.029 9.733,185.4505 10.055,369.8155 0.545,184.371 6.123,340.754 12.889,347.526 6.772,6.772 838.562,13.9585 1848.425,15.9815 l 1836.119,3.653 7.23,730.3735 7.23,730.373 259.266,3.9805 c 161.307,2.4535 266.496,9.9615 278.41,19.8525 15.66,12.9935 19.144,287.6905 19.144,1508.5815 l 0,1492.687 -32.541,16.6685 c -31.221,15.9975 -117.872,37.126 -336.261,82 -55.681,11.445 -125.647,28.6095 -155.472,38.1405 l -54.236,17.339 0,1291.081 c 0,1154.4192 -2.399,1293.4802 -22.732,1313.8012 -17.502,17.508 -54.89,22.765 -162.702,22.885 l -139.982,0 -40.943,111.934 c -89.481,244.643 -118.374,318.262 -160.298,408.419 l -16.81,36.156 -4708.938,3.653 c -3894.3223,2.999 -4711.6848,0.545 -4724.8308,-15.518 z m 9334.8813,-122.12 c 8.643,-5.845 22.814,-30.152 31.494,-54.018 8.68,-23.86 28.337,-75.926 43.68,-115.702 15.338,-39.771 52.453,-137.294 82.469,-216.721 30.016,-79.421 65.119,-152.43 78.009,-162.244 14.067,-10.709 71.144,-18.026 142.752,-18.304 l 119.322,-0.545 0,-1277.7502 c 0,-1469.394 -16.357,-1323.556 151.858,-1353.943 55.681,-10.0545 114.257,-23.4675 130.168,-29.798 15.91,-6.33 83.494,-21.799 150.189,-34.3615 66.695,-12.568 130.151,-30.2285 141.012,-39.2415 27.241,-22.606 29.569,-1747.254 2.399,-1774.4235 -13.053,-13.059 -204.73,-17.3555 -773.764,-17.3555 -662.719,0 -756.403,-2.6715 -756.403,-21.6955 0,-19.013 94.78,-21.6955 766.256,-21.6955 l 766.256,0 7.939,-32.5405 c 4.362,-17.9005 6.117,-227.789 3.871,-466.4285 l -4.035,-433.883 -253.099,-3.653 c -237.386,-3.435 -254.67,-5.5615 -278.411,-34.149 -23.336,-28.0965 -25.31,-84.999 -25.31,-729.141 0,-384.265 -3.926,-708.956 -8.779,-721.54 -7.857,-20.4745 -91.002,-22.8515 -791.839,-22.6555 -430.687,0 -791.163,5.3435 -801.059,11.652 -14.079,8.937 -18.806,278.4375 -21.696,1236.3545 -2.399,801.474 -8.697,1226.1745 -18.162,1228.541 -9.537,2.399 -15.725,-412.3725 -18.162,-1217.118 -2.618,-872.667 -8.305,-1226.278 -19.848,-1240.1875 -13.249,-15.965 -195.205,-19.4655 -1011.809,-19.4655 -969.575,0 -996.052,-0.763 -1010.632,-27.971 -9.22,-17.23 -15.027,-174.164 -15.114,-408.578 l 0,-380.6005 -87.011,-94.0065 c -47.857,-51.7065 -103.887,-115.1625 -124.508,-141.013 l -37.497,-47.006 -1053.019,0 -1053.0253,0 -29.6615,39.7705 c -16.3085,21.8755 -38.5055,49.536 -49.3235,61.4665 -10.8125,11.9355 -48.38,60.746 -83.478,108.472 l -63.8105,86.7765 -7.23,223.007 c -5.18,160.2325 -12.3225,224.692 -25.3105,228.994 -13.8055,4.5805 -18.124,-36.199 -18.2765,-172.3805 0,-98.107 -4.144,-193.057 -8.937,-210.9955 l -8.74,-32.617 -1310.803,3.708 -1310.7975,3.7075 -3.762,576.046 c -2.9445,450.202 -7.6935,574.748 -21.6955,570.086 -13.664,-4.5255 -19.6235,-139.9275 -25.1415,-571.133 l -7.23,-565.168 -39.5145,-31.0685 -39.514,-31.0735 -3.8715,-342.646 -3.871,-342.6515 -480.889,-3.817 -480.8885,-3.8165 0,875.2025 0,875.197 122.932,0 c 98.5865,0 122.9375,4.1985 122.9375,21.2865 0,17.5135 -35.256,21.9955 -198.869,25.3105 l -198.8635,4.035 -3.7625,559.0885 -3.762,559.083 83.3305,10.1905 c 45.834,5.6055 730.9075,12.721 1522.387,15.8125 791.4795,3.108 1447.9225,8.953 1458.762,13.026 15.7685,5.9215 16.1395,11.701 1.854,28.9255 -15.5945,18.789 -198.624,21.521 -1440.6815,21.521 l -1422.8245,0 0,593.03 0,593.036 1862.094,-3.6535 1862.0945,-3.653 3.7075,-1131.721 c 3.2715,-992.6275 6.3575,-1131.721 25.3105,-1131.721 18.3805,0 21.603,39.531 21.603,264.6755 0,159.8675 5.8175,270.482 14.689,279.3535 14.7655,14.765 9.727,1379.128 -7.661,2073.035 -5.774,230.608 -3.2715,336.4575 8.6695,365.2685 l 16.805,40.572 1238.4048,-3.708 1238.404,-3.7075 7.23,-1113.646 c 6.347,-977.0445 9.891,-1113.6405 28.926,-1113.6405 18.827,0 22.649,81.155 28.925,614.677 l 7.23,614.671 656.863,7.23 c 504.52,5.556 658.242,11.3905 662.833,25.1635 4.689,14.0565 -137.25,18.7455 -656.863,21.6955 l -662.833,3.762 -3.817,509.8145 c -3.653,487.9985 -4.961,509.814 -30.992,509.814 -14.956,0 -30.937,-9.76 -35.517,-21.6955 -7.312,-19.0455 -158.919,-21.69 -1243.585,-21.69 -1080.3633,0 -1237.5153,2.7265 -1253.2623,21.69 -9.9015,11.9355 -26.8645,21.6955 -37.693,21.6955 -16.0195,0 -20.4035,-72.044 -23.5385,-386.882 l -3.8715,-386.882 -1858.479,0 -1858.4735,0 -3.817,531.515 -3.8165,531.5095 1337.989,0 c 1179.6865,0 1337.994,2.563 1337.994,21.69 0,18.3535 -34.5525,21.6955 -224.174,21.6955 l -224.174,0 0,1316.1245 c 0,866.3205 -4.962,1316.8605 -14.4655,1318.289 -7.9495,1.2 -22.595,2.8355 -32.5405,3.599 -14.291,1.145 -19.591,-274.19 -25.3105,-1314.674 l -7.23,-1316.1245 -1070.2495,0 -1070.255,0 0,1590.9195 0,1590.9137 129.4155,4.199 c 71.1765,2.344 137.8825,11.254 148.2425,19.847 14.138,11.734 18.833,77.965 18.833,265.755 0,186.568 4.58,251.976 18.075,257.418 29.029,11.712 9185.9193,10.228 9203.2473,-1.473 z" />
       <use xlink:href="#stairs15" />
    </g>
</svg>
