<?xml version="1.0" encoding="UTF-8" standalone="no"?>
<svg
   xmlns:dc="http://purl.org/dc/elements/1.1/"
   xmlns:cc="http://creativecommons.org/ns#"
   xmlns:rdf="http://www.w3.org/1999/02/22-rdf-syntax-ns#"
   xmlns:svg="http://www.w3.org/2000/svg"
   xmlns="http://www.w3.org/2000/svg"
   xmlns:xlink="http://www.w3.org/1999/xlink"
   id="svg3336"
   viewBox="0 0 22222 11111"
   clip-rule="evenodd"
   version="1.1">
  
  <polygon id="background" points="22222 11111 0 11111 0 0 22222 0" class="fil0" />
  <g class="fil2">
  <!--<path d="m 7305.2551,4446.9671 c -852.9501,-4.2804 -1553.2315,-10.1955 -1556.1798,-13.1514 -2.9484,-2.9555 -8.6895,-657.156 -12.7572,-1453.7785 l -7.3963,-1448.4039 251.5833,-6.922 c 311.7397,-8.5771 778.908,-8.5761 1000.553,0 l 167.0817,6.4664 3.0908,620.7303 c 3.2533,652.6669 4.2801,665.768 50.0558,636.9167 14.5953,-9.1993 20.7197,-35.2353 26.8344,-114.0835 4.3564,-56.1899 9.9863,-104.2316 12.5071,-106.7586 2.5212,-2.5275 152.9093,-5.5568 334.1954,-6.7318 328.0827,-2.125 329.7337,-2.023 355.9979,22.6259 l 26.3856,24.763 798.0164,0 798.0159,0 0,432.9185 c 0,238.1058 -3.2686,648.7999 -7.2657,912.6543 -7.1711,473.5094 -7.563,479.8356 -30.1921,487.4726 -36.6047,12.354 -553.6356,13.5886 -2210.5287,5.2796 z"/>
  <path d="m 12262.064,3334.2526 4018.321,0 0,5150.662 -4018.321,0 z m -6532.519,4974.5709 10550.838,0 0,2333.2055 -10550.8378,0 z" />-->
  <path ng-if="selectedRoom.name=='Restrooms'" d="m 5731.168,6838.3628 1698.7594,0 0,1389.8941 -1698.7594,0 z"/>
  <rect ng-if="selectedRoom.name=='Elevator'" y="6786.8853" x="10398.467" height="1252.6204" width="1081.0287"/>
    <text x="6150" y="1100" class="fil5 fnt5">Balcony</text>
  </g>
  <g transform="translate(2907.0724,2179.5774)">
        <use xlink:href="#elevator" />
  </g>
  <g transform="translate(1300,2300)">
        <use xlink:href="#toilet" />
  </g>
  <g transform="translate(1300,2300)">
        <use xlink:href="#server" />
  </g>
  <g class="fil3">
    <path d="m 10353.973,6746.957 0,14.9453 0,1337.8887 1174.138,0 0,-1352.834 -1174.138,0 z m 29.89,29.8907 1114.358,0 0,1293.0527 -1114.358,0 0,-1293.0527 z"/>
  <path d="m 9601.6992,6579.5078 0,30 0,1657.7324 2662.4378,0 0,-1687.7324 -2662.4378,0 z m 60,60 2542.4378,0 0,1567.7324 -2542.4378,0 0,-1567.7324 z"/>

  <path d="M 6816.3301 437.83008 C 5782.4319 437.83008 5645.2392 441.52947 5616.6641 470.17383 C 5587.5049 499.40236 5584.3984 993.04562 5584.3984 5596.4609 C 5584.3984 9068.4847 5591.1674 10703.081 5605.6543 10730.217 C 5626.5851 10769.421 5708.8124 10770.025 11001.514 10770.025 C 15154.386 10770.025 16381.722 10764.412 16400.758 10745.328 C 16436.602 10709.398 16436.602 3256.4556 16400.758 3220.5254 C 16381.927 3201.6468 15895.756 3195.8262 14337.68 3195.8262 L 12299.242 3195.8262 L 12293.699 2758.459 L 12288.158 2321.0898 L 12144.436 2224.1211 C 12065.387 2170.7885 11952.342 2099.008 11893.227 2064.6094 L 11785.742 2002.0664 L 10750.818 2002.0664 L 9715.8926 2002.0664 L 9669.7246 2099.832 C 9644.3322 2153.6023 9597.5027 2255.4837 9565.6602 2326.2344 L 9507.7656 2454.873 L 8778.0137 2454.873 L 8048.2617 2454.873 L 8048.2617 1478.6953 C 8048.2617 618.70354 8044.4223 498.66756 8015.998 470.17383 C 7987.4227 441.52988 7850.2277 437.83008 6816.3301 437.83008 z M 5707.5918 581.9043 L 6806.0645 581.9043 L 7904.5371 581.9043 L 7904.5371 1539.4688 L 7904.5371 2497.0312 L 7560.623 2491.3887 L 7216.709 2485.7461 L 7211.2168 1976.3398 L 7205.7246 1466.9336 L 7011.0273 1466.9336 C 6894.9174 1466.9336 6816.332 1475.2411 6816.332 1487.5156 C 6816.332 1499.623 6888.1928 1508.0977 6990.8535 1508.0977 L 7165.3789 1508.0977 L 7165.3789 2146.1406 C 7165.3789 2557.7821 7172.6634 2784.1855 7185.9102 2784.1855 C 7197.3173 2784.1855 7206.4434 2729.3005 7206.4434 2660.6934 L 7206.4434 2537.2012 L 7564.5449 2537.2012 C 7781.1316 2537.2012 7927.6611 2545.3348 7935.3359 2557.7832 C 7943.4485 2570.9418 8240.1794 2578.3652 8758.043 2578.3652 L 9568.0586 2578.3652 L 9562.7188 3519.9941 L 9557.3789 4461.623 L 9490.6484 4468.0742 C 9401.0649 4476.7328 9405.2102 4513.0801 9495.7812 4513.0801 L 9567.6445 4513.0801 L 9567.6445 5181.9961 C 9567.6445 5554.4536 9575.6687 5850.9141 9585.75 5850.9141 C 9609.7648 5850.9141 9635.6867 4182.9475 9626.373 3236.9902 L 9618.9746 2485.7461 L 9691.25 2331.3809 C 9731.0008 2246.48 9770.8126 2165.4374 9779.7227 2151.2871 C 9792.3127 2131.2911 10014.288 2125.5605 10776.113 2125.5605 L 11756.305 2125.5605 L 11929.838 2238.8066 C 12025.282 2301.093 12119.657 2357.7762 12139.566 2364.7695 C 12173.636 2376.7379 12175.711 2453.7851 12174.836 3676.8301 C 12173.296 5837.5229 12173.812 5892.0781 12195.766 5892.0781 C 12209.227 5892.0781 12216.408 5457.9284 12216.611 4631.4258 C 12216.784 3938.0675 12224.287 3359.1515 12233.285 3344.9453 C 12246.262 3324.4651 12667.443 3320.2001 14270.789 3324.3633 L 16291.938 3329.6113 L 16297.129 6977.7812 L 16302.316 10625.951 L 11004.953 10625.951 L 5707.5918 10625.951 L 5707.5918 9463.0664 L 5707.5918 8300.1797 L 7208.1523 8300.1797 C 8399.4754 8300.1797 8706.951 8294.8768 8700.1602 8274.4512 C 8693.4435 8254.2487 8371.1177 8247.5913 7199.2695 8243.4434 L 5706.9336 8238.1641 L 5707.1816 6832.3828 L 6560.0215 6832.3828 L 7448.707 6832.3828 L 7448.707 7160.6875 L 7448.707 7488.9902 L 7482.6699 7488.9902 L 7516.6328 7488.9902 L 7516.6328 7160.6875 L 7516.6328 6832.3828 L 7884.5605 6832.3828 L 8252.4883 6832.3828 L 8252.4883 6124.8301 L 8252.4883 5417.2773 L 8224.1855 5417.2773 L 8195.8828 5417.2773 L 8195.8828 6090.8672 L 8195.8828 6764.457 L 6933.6094 6764.457 L 5707.1934 6764.457 L 5707.5918 4513.0801 L 7268.0391 4513.0801 C 8288.0683 4513.0801 8828.4863 4505.9961 8828.4863 4492.627 C 8828.4863 4479.3044 8286.27 4470.3329 7273.1719 4466.8984 L 5717.8594 4461.623 L 5712.5898 2984.8613 L 5707.3203 1508.0977 L 5964.1094 1508.0977 C 6121.6137 1508.0977 6220.8965 1500.1397 6220.8965 1487.5156 C 6220.8965 1474.8919 6121.6576 1466.9336 5964.2441 1466.9336 L 5707.5918 1466.9336 L 5707.5918 1024.4199 L 5707.5918 581.9043 z "/>
       <use xlink:href="#stairs15" />
    </g>
	
	
</svg>
