<?xml version="1.0" encoding="UTF-8" standalone="no"?>
<svg
   xmlns:dc="http://purl.org/dc/elements/1.1/"
   xmlns:cc="http://creativecommons.org/ns#"
   xmlns:rdf="http://www.w3.org/1999/02/22-rdf-syntax-ns#"
   xmlns:svg="http://www.w3.org/2000/svg"
   xmlns="http://www.w3.org/2000/svg"
   xmlns:xlink="http://www.w3.org/1999/xlink"
   id="svg3336"
   viewBox="0 0 22222 11111"
   clip-rule="evenodd"
   version="1.1">
  
      <polygon id="background" points="22222 11111 0 11111 0 0 22222 0" class="fil0" />
  <g class="fil2">
  <path ng-if="selectedRoom.name=='Kitchen'" d="m 7305.2551,4446.9671 c -852.9501,-4.2804 -1553.2315,-10.1955 -1556.1798,-13.1514 -2.9484,-2.9555 -8.6895,-657.156 -12.7572,-1453.7785 l -7.3963,-1448.4039 251.5833,-6.922 c 311.7397,-8.5771 778.908,-8.5761 1000.553,0 l 167.0817,6.4664 3.0908,620.7303 c 3.2533,652.6669 4.2801,665.768 50.0558,636.9167 14.5953,-9.1993 20.7197,-35.2353 26.8344,-114.0835 4.3564,-56.1899 9.9863,-104.2316 12.5071,-106.7586 2.5212,-2.5275 152.9093,-5.5568 334.1954,-6.7318 328.0827,-2.125 329.7337,-2.023 355.9979,22.6259 l 26.3856,24.763 798.0164,0 798.0159,0 0,432.9185 c 0,238.1058 -3.2686,648.7999 -7.2657,912.6543 -7.1711,473.5094 -7.563,479.8356 -30.1921,487.4726 -36.6047,12.354 -553.6356,13.5886 -2210.5287,5.2796 z"/>
  <!--<path d="m 5730,5187.6105 c 4.026,-361.1869 8.5406,-657.7903 10.0331,-659.1183 1.4945,-1.33 577.0542,-6.0527 1279.025,-10.4985 l 1276.3111,-8.0839 0,667.2019 0,667.2025 -1286.3446,0 -1286.344,0 7.3194,-656.7037 z" />-->
  <path ng-if="selectedRoom.name=='Restrooms'" d="m 5730,6980.6514 c -3.8481,-40.8588 -7.0343,-295.8752 -7.077,-566.7031 l -0.1017,-492.4143 1291.7919,-2.8434 1291.7914,-2.8434 -7.1212,534.5242 c -3.9142,293.9889 -10.2653,550.2836 -14.1083,569.5444 l -6.9866,35.0197 -1270.6065,0 -1270.6062,0 -6.9992,-74.2882 z"/>
  <path ng-if="selectedRoom.name=='Restrooms'" d="m 5730,7687.7666 0,-544.7815 1284.086,0 1284.0867,0 6.1269,211.8597 c 3.3703,116.5227 8.6564,361.6744 11.7487,544.7817 l 5.6216,332.9219 -1295.8347,0 -1295.8352,0 0,-544.7818 z"/>
  <!--<path d="m 12262.064,3334.2526 4018.321,0 0,5150.662 -4018.321,0 z m -6532.519,4974.5709 10550.838,0 0,2333.2055 -10550.8378,0 z" />-->
  <rect ng-if="selectedRoom.name=='Elevator'" y="6786.8853" x="10398.467" height="1252.6204" width="1081.0287"/>
  <text x="6150" y="1100" class="fil5 fnt5">Balcony</text>
  </g>
  <g transform="translate(2907.0724,2179.5774)">
        <use xlink:href="#elevator" />
  </g>
  <g transform="translate(1740.2477,2385.4876)">
        <use xlink:href="#toilet" />
  </g>
    <g transform="translate(1879.5212,-579.25562)">
        <use xlink:href="#food" />
  </g>
  <g transform="translate(1740.2477,1185.4876)">
        <use xlink:href="#toilet" />
  </g>
    <g transform="translate(-11800.2477,3100)">
        <use xlink:href="#storage" />
  </g>
  <g class="fil3">
    <path d="m 10353.973,6746.957 0,14.9453 0,1337.8887 1174.138,0 0,-1352.834 -1174.138,0 z m 29.89,29.8907 1114.358,0 0,1293.0527 -1114.358,0 0,-1293.0527 z"/>
  <path d="m 9601.6992,6579.5078 0,30 0,1657.7324 2662.4378,0 0,-1687.7324 -2662.4378,0 z m 60,60 2542.4378,0 0,1567.7324 -2542.4378,0 0,-1567.7324 z"/>
  <path d="m 5605.6535,10730.216 c -14.4869,-27.136 -21.2545,-1661.7312 -21.2545,-5133.755 0,-4603.41532 3.1059,-5097.05862 32.2651,-5126.28715 28.5751,-28.64436 165.7687,-32.34343 1199.6669,-32.34343 1033.8976,0 1171.0912,3.69948 1199.6665,32.34343 28.4243,28.49373 32.265,148.52948 32.265,1008.52125 l 0,976.1776 729.7514,0 729.7516,0 57.8953,-128.6379 c 31.8425,-70.7507 78.671,-172.6321 104.0634,-226.4024 l 46.168,-97.7651 1034.9258,0 1034.925,0 107.484,62.542 c 59.115,34.3986 172.159,106.1787 251.208,159.5113 l 143.724,96.9686 5.541,437.369 5.543,437.3687 2038.437,0 c 1558.076,0 2044.246,5.8203 2063.077,24.6989 35.844,35.9302 35.844,7488.8722 0,7524.8022 -19.036,19.084 -1246.371,24.698 -5399.243,24.698 -5292.7013,0 -5374.9297,-0.606 -5395.8605,-39.81 z m 10691.4745,-3752.4345 -5.191,-3648.1711 -2021.148,-5.2471 c -1603.346,-4.1632 -2024.527,0.1019 -2037.504,20.5821 -8.998,14.2062 -16.501,593.1223 -16.674,1286.4806 -0.203,826.5026 -7.385,1260.6512 -20.846,1260.6512 -21.954,0 -22.469,-54.5545 -20.929,-2215.2473 0.875,-1223.045 -1.199,-1300.092 -35.269,-1312.0604 -19.909,-6.9933 -114.286,-63.6763 -209.73,-125.9627 l -173.533,-113.2472 -980.191,0 c -761.825,0 -983.7998,5.7316 -996.3898,25.7276 -8.9101,14.1503 -48.723,95.1923 -88.4738,180.0932 l -72.2745,154.3651 7.3973,751.2455 c 9.3137,945.9573 -16.6073,2613.9221 -40.6221,2613.9221 -10.0813,0 -18.1055,-296.4591 -18.1055,-668.9166 l 0,-668.9171 -71.8626,0 c -90.5711,0 -94.7167,-36.3473 -5.1332,-45.0059 l 66.7296,-6.4495 5.3402,-941.6296 5.3405,-941.6294 -810.0171,0 c -517.8636,0 -814.5942,-7.4234 -822.7068,-20.582 -7.6748,-12.4484 -154.2043,-20.5821 -370.791,-20.5821 l -358.1017,0 0,123.4922 c 0,68.6071 -9.1252,123.4929 -20.5323,123.4929 -13.2468,0 -20.532,-226.403 -20.532,-638.0445 l 0,-638.0438 -174.524,0 c -102.6607,0 -174.5231,-8.4746 -174.5231,-20.582 0,-12.2745 78.5872,-20.5821 194.6971,-20.5821 l 194.697,0 5.4916,509.4059 5.4921,509.406 343.9142,5.6436 343.914,5.643 0,-957.5637 0,-957.56357 -1098.4724,0 -1098.4724,0 0,442.51467 0,442.5141 256.6524,0 c 157.4135,0 256.6524,7.9584 256.6524,20.5821 0,12.6241 -99.284,20.582 -256.7883,20.582 l -256.788,0 5.2688,1476.7631 5.269,1476.7632 1555.3134,5.2751 c 1013.0981,3.4345 1555.3134,12.4049 1555.3134,25.7275 0,13.3691 -540.4174,20.4528 -1560.4466,20.4528 l -1560.4465,0 0,668.9171 0,668.9166 1303.7941,0 1303.7942,0 0,-339.6039 c 0,-212.6813 7.6739,-339.604 20.5322,-339.604 12.928,0 20.5321,137.2139 20.5321,370.4774 l 0,370.4768 -1324.3264,0 -1324.3264,0 0,576.2976 0,576.2983 1303.7943,0 1303.7942,0 0,-216.1117 c 0,-130.3532 8.1482,-216.1118 20.5322,-216.1118 13.0799,0 20.5321,168.0868 20.5321,463.0963 0,284.1992 -7.663,463.0971 -19.8373,463.0971 -11.1705,0 -22.384,-96.6702 -25.6652,-221.2574 l -5.8276,-221.2576 -1293.5284,0 -1293.528,0 -5.4626,560.727 -5.463,560.7267 1492.3374,5.2797 c 1171.8482,4.1479 1494.1739,10.8053 1500.8906,31.0078 6.7908,20.4256 -300.6844,25.7277 -1492.0075,25.7277 l -1500.5612,0 0,1162.8868 0,1162.8861 5297.3619,0 5297.363,0 -5.189,-3648.1705 z" />
       <use xlink:href="#stairs15" />
    </g>
</svg>
