<svg xmlns:rdf="http://www.w3.org/1999/02/22-rdf-syntax-ns#" xmlns="http://www.w3.org/2000/svg" height="200mm" width="200mm" version="1.1" xmlns:cc="http://creativecommons.org/ns#" xmlns:dc="http://purl.org/dc/elements/1.1/" viewBox="0 0 708.6614 708.6614">
 <g transform="translate(0 -343.7)">
  <g style="image-rendering:optimizeQuality;shape-rendering:geometricPrecision" clip-rule="evenodd" transform="matrix(.49988 0 0 .50189 -1738.7 -589.35)">
   <path d="m4867 2568c0 370-300 670-670 670s-670-300-670-670 300-670 670-670 670 300 670 670z" class="fil1" fill="#086ebc"/>
   <path d="m4197 1898c370 0 670 300 670 670s-300 670-670 670-670-300-670-670 300-670 670-670zm0-41c-392 0-711 319-711 711s319 711 711 711 711-319 711-711-319-711-711-711z" class="fil2" fill="#f5f6f6"/>
   <g fill="#f5f6f6">
    <path d="m4665 2467c-2-8-6-16-9-21-1-2-2-4-4-7-5-7-12-14-25-20-27-12-51-21-51-21s-10-3-5-19c4-16 29-100 29-100s9-27-8-54c-17-26-107-198-389-198s-372 172-389 198-8 54-8 54 25 84 29 100-5 19-5 19-24 9-51 21c-13 6-21 14-25 20-2 3-3 5-4 7-3 5-7 13-9 21-8 23-18 72-12 160 6 78 19 123 28 146 0 0 8 20 21 41 14 23 34 43 71 49 47 8 126 6 126 6 2-291-54-468-57-481-2-13-13-13-13-13h-7s-7-68-7-91c0-24 9-41 9-41 63-104 180-129 248-135 0 0 55-6 100-1 67 4 191 27 257 136 0 0 9 17 9 41s-7 91-7 91h-7s-10 0-13 13c-2 13-59 190-57 481 0 0 79 2 126-6 37-6 58-26 71-49 13-21 21-41 21-41 9-23 23-68 28-146 7-88-4-137-12-160z" class="fil2"/>
    <path d="m4418 2365c6 20 39 76 39 76s1 2 3 3l9-36c-8-15-22-40-22-40s-11-25-11-48v-89s-79 108-214 101l7-15s-67-5-129-1-152 39-171 51l1 6c2 3 3 7 4 11 0 1 1 5 2 10 6 22 11 44 16 66h5v-78s101-49 203-41c0 0-7 9-13 11 0 0 83 5 117 1s108-17 151-62c0 0 0 53 5 73z" class="fil2"/>
    <path d="m4449 2883h-19-2c-5 9-10 18-16 27-26 36-50 66-85 101-29 30-75 29-95 28h-5-7-38-7-5c-20 0-66 1-95-28-35-35-59-64-85-101-6-9-11-18-16-27h-16-14c7 15 15 29 24 42 27 38 52 68 88 104 33 33 80 37 106 37h9 5 7 38 7 5 9c26 0 73-3 106-37 36-36 61-66 88-104 9-13 17-27 24-42h-10z" class="fil2"/>
   </g>
  </g>
 </g>
</svg>
