<svg xmlns:rdf="http://www.w3.org/1999/02/22-rdf-syntax-ns#" style="shape-rendering:geometricPrecision;text-rendering:geometricPrecision;image-rendering:optimizeQuality" xmlns="http://www.w3.org/2000/svg" fill-rule="evenodd" xml:space="preserve" height="9.8333in" width="9.8333in" version="1.1" clip-rule="evenodd" xmlns:cc="http://creativecommons.org/ns#" xmlns:dc="http://purl.org/dc/elements/1.1/" viewBox="0 0 9833 9833"><defs><style type="text/css"><![CDATA[
    .str0 {stroke:black;stroke-width:9.83465;stroke-linejoin:round}
    .fil0 {fill:none;fill-rule:nonzero}
    .fil1 {fill:black}
    .fil2 {fill:#E80008}
   ]]></style></defs><polygon points="2167 4611 5194 7639 4778 8056 1750 5028" class="fil1"/><path class="fil1" d="m3303 4190c-89 88-89 232 1 321l323 321c89 89 234 89 322 0l2764-2752c88-88 88-231-1-319l-322-320c-89-88-233-89-321-1l-2767 2750z"/><path class="fil1" d="m5096 3819c-78 77-77 203 1 281l283 281c78 78 204 78 282 1l1717-1713c77-77 77-202-1-280l-282-280c-78-77-204-78-281-1l-1718 1711z"/><path class="fil1" d="m5734 4453c-78 77-77 203 1 281l283 281c78 78 204 78 282 0l1715-1714c77-77 77-202-1-280l-282-280c-78-77-203-78-281-1l-1717 1713z"/><path class="fil1" d="m6372 5088c-78 78-77 203 1 281l283 281c78 78 204 78 282 0l1713-1716c77-77 76-202-2-280l-282-280c-78-77-203-78-281-1l-1715 1714z"/><path class="fil1" d="m5181 2483l2285 2239 1187-1178s-694-1336-1042-1378c-764-764-1410-819-1410-819l-1020 1136z"/><path class="fil2" d="m7271 7924c-806 611-1569 819-2361 819-1389 0-2958-750-3639-2625-28-83-181-708-181-903v-597c56-667 278-1403 806-2056l5375 5361zm1472-3014c0 806-222 1583-819 2389l-5375-5375c778-653 1583-833 2361-833 2139 0 3833 1722 3833 3819zm1083 0c0 2778-2222 4917-4917 4917-1778 0-3833-958-4681-3403-83-250-222-861-222-1194v-625c319-3167 2778-4597 4903-4597 2778 0 4917 2208 4917 4903z"/></svg>
