<svg xmlns="http://www.w3.org/2000/svg" width="681.7" height="674.3" viewBox="0 0 681.7 674.3"><style>.s0{fill:#00a652;image-rendering:optimizeQuality;shape-rendering:geometricPrecision;text-rendering:geometricPrecision}</style><g transform="matrix(1.25 0 0 -1.25 0 674.337)"><image y="-538.2" x="18.2" preserveAspectRatio="none" height="520" width="520" transform="scale(1 -1)" class="s0"/><path d="M34 280.3l1.4 241.5 241.5 1.4 241.5 1.4V38.8H32.6L34 280.3zM318.7 83.7c7.7 9.8 15.4 13.2 29.6 13.2 18.9 0 19.1-.1 7.5-8.2-17.2-12.1-14.4-18.2 8.4-18.2 15.2 0 23.6 3.7 34.3 14.8l14.2 14.8v181.6h-67.6l-9.5 26.4c-5.2 14.5-11.2 26.4-13.2 26.4-4.6 0-52.2-73.7-52.2-80.8 0-4.5 11.8-23.2 74.8-118.7 8.2-12.5 15-23.8 15-25.1 0-1.3-6.8-2.4-15.2-2.4-13.6 0-19.8 7-59.4 66.4l-44.2 66.4-1.5-40-1.5-40h-60.5c-57 0-60.5.6-60.5 10.6 0 9.7 3.5 10.6 44.9 10.6H207v82.4l31.5 49.9c17.3 27.4 31.6 53 31.7 56.7.1 5-7.8 6.4-29.6 5.3-26.9-1.4-30.6-3.1-38.3-17.4-16.5-30.7-25.2-39.9-34.2-36.5-12.3 4.7-11.1 9.9 10.6 44.9l19.2 31.1h43.5c40.4 0 44.1-.9 52-13 5.1-7.8 15.8-14.3 27-16.4 16.4-3.1 20.1-7 32.4-34.6 13.9-31.1 14-31.1 37-31.1h23v184.8H138.4V197.2h-37.6l1.6-25.1c1.5-24 2.3-25.1 18.8-26.7 16-1.5 17.2-3 17.2-21.5 0-14.4-3.7-23.3-13.2-32.3-7.3-6.8-13.2-14.4-13.2-16.8 0-2.4 44.2-4.4 98.2-4.4h98.2l10.4 13.2z" class="s0"/><path d="M319.6 385.6c-.5 1-2 2-3.3 2.4-2.5.6-6.2 3.4-9.3 7-1.1 1.2-2.7 3-3.6 4-.9 1-1.6 2.4-1.6 3.2 0 1.7-1.7 5-3.4 6.8-.8.8-1.3 3.8-1.3 9 0 6.4.3 8.2 1.9 10.2 1.1 1.3 2.2 3.9 2.4 5.7.3 2.1 1.1 3.4 2.3 3.7 1 .3 1.8 1.1 1.8 1.8s1.1 1.8 2.3 2.4c1.3.6 2.3 1.7 2.3 2.5s.6 1.4 1.4 1.4c.7 0 1.9.8 2.6 1.8.9 1.2 2.9 2 6.4 2.5 2.8.4 6.6 1.4 8.4 2.2 2.9 1.4 3.6 1.4 5.3.3 1.1-.7 4.8-1.7 8.3-2.3 4.4-.7 6.8-1.5 7.6-2.8.7-1 1.8-1.8 2.5-1.8s1.5-.8 1.9-1.8c.3-1 1.4-2.1 2.4-2.4 1-.3 1.8-1.2 1.8-1.9s.8-1.9 1.9-2.6c1.2-.8 2.2-3.2 2.8-6.4.5-2.8 1.6-5.5 2.3-6.1 2.2-1.6 1.9-10.2-.5-13.2-1.1-1.4-1.9-3.8-1.9-5.7 0-2.3-.7-3.9-2.3-5.4-1.3-1.2-2.3-3-2.3-4.1 0-1.3-1.2-2.5-3.7-3.8-2.1-1.1-3.7-2.3-3.7-2.8s-.8-.9-1.8-.9-3.1-1.1-4.6-2.3c-2.6-2.2-3.4-2.3-13.6-2.3-9.7 0-10.9.2-11.8 1.8z" fill="#00a652"/></g></svg>