<svg xmlns:rdf="http://www.w3.org/1999/02/22-rdf-syntax-ns#" style="shape-rendering:geometricPrecision;text-rendering:geometricPrecision;image-rendering:optimizeQuality" xmlns="http://www.w3.org/2000/svg" fill-rule="evenodd" xml:space="preserve" height="9.8333in" width="9.8333in" version="1.1" clip-rule="evenodd" xmlns:cc="http://creativecommons.org/ns#" xmlns:dc="http://purl.org/dc/elements/1.1/" viewBox="0 0 9833 9833"><defs><style type="text/css"><![CDATA[
    .str0 {stroke:black;stroke-width:9.83465;stroke-linejoin:round}
    .fil0 {fill:none;fill-rule:nonzero}
    .fil1 {fill:black}
    .fil2 {fill:#E80008}
   ]]></style></defs><path class="fil1" d="m5726 4882c0 418-494 836-837 836-419 0-824-494-824-836 0-380 443-823 824-823 419 0 837 481 837 823zm331 13c0 659-533 1153-1167 1153-381 0-812-177-1053-672-51-101-89-279-89-304v-367c165-697 660-963 1142-963 672 0 1167 519 1167 1153zm-413-2188l469 697h911c51 13 89 13 127 38s101 101 101 139v2787c0 76-152 190-228 190h-4256c-51-13-114-38-152-76-38-25-63-76-63-101v-2800c38-139 152-177 241-177h926l482-697h1442zm184-359c63 101 406 684 495 684h647c51 13 101 13 152 13 279 25 558 405 558 596v2737c-63 380-406 608-698 608h-4187c-330 25-685-355-685-608v-2737c102-456 406-608 723-608h647l482-684h1865z"/><path fill="#e80008" class="fil2" d="m7351.6 7924c-806 611-1569 819-2361 819-1389 0-2958-750-3639-2625-28-83-181-708-181-903v-597c56-667 278-1403 806-2056l5375 5361zm1472-3014c0 806-222 1583-819 2389l-5375-5375c778-653 1583-833 2361-833 2139 0 3833 1722 3833 3819zm1083 0c0 2778-2222 4917-4917 4917-1778 0-3833-958-4681-3403-83-250-222-861-222-1194v-625c318.95-3167 2778-4597 4903-4597 2778 0 4917 2208 4917 4903z"/></svg>
