<svg xmlns:rdf="http://www.w3.org/1999/02/22-rdf-syntax-ns#" style="shape-rendering:geometricPrecision;text-rendering:geometricPrecision;image-rendering:optimizeQuality" xmlns="http://www.w3.org/2000/svg" fill-rule="evenodd" xml:space="preserve" height="9.8333in" width="9.8333in" version="1.1" clip-rule="evenodd" xmlns:cc="http://creativecommons.org/ns#" xmlns:dc="http://purl.org/dc/elements/1.1/" viewBox="0 0 9833 9833"><defs><style type="text/css"><![CDATA[
    .str0 {stroke:black;stroke-width:9.83465;stroke-linejoin:round}
    .fil0 {fill:none;fill-rule:nonzero}
    .fil1 {fill:black}
    .fil2 {fill:#E80008}
   ]]></style></defs><g style="image-rendering:optimizeQuality;shape-rendering:geometricPrecision" fill-rule="nonzero" clip-rule="evenodd" transform="matrix(7.0116 0 0 6.9521 -58974 -23914)"><path d="m9580 4e3c-15-78-83-99-117-99h-7l-470 565c31-123-62-143-62-143s-5-42 40-72c46-31 76-92 147-150 95-76 81-281-122-271-203 11-272 234-272 234s278-172 280-64-99 107-158 188c-59 80 29 139 29 139s11 64 56 83c35 15 48 52 52 68l-28 33s-61 74 11 131c67 53 126-7 126-7l496-630-1-6zm-703 289s-37-40-3-105c34-64 124-46 155-200 0 0 1-95-244 7 0 0 70-156 257-134 0 0 85 15 95 94 9 79-21 97-44 123s-111 126-150 154-60 46-66 60zm71 109c-33-24-26-41-26-41 29 9 26 41 26 41zm225 82s-20-68-96-79l393-472c18 2 68 12 82 70l-379 481z" class="fil3" fill="#2f2f2f"/><path d="m9112 3447c-387 0-700 314-700 700 0 387 314 700 700 700 387 0 700-314 700-700 0-387-314-700-700-700zm-547 700c0-128 44-246 118-339l768 768c-93 74-211 118-339 118-302 0-547-246-547-547zm975 341-769-769c94-75 212-119 341-119 302 0 547 246 547 547 0 129-45 247-119 341z" class="fil5" fill="#db1628"/></g></svg>
