<svg xmlns="http://www.w3.org/2000/svg" width="510.666" height="4in" viewBox="0 0 5319 3999.5128" clip-rule="evenodd" fill-rule="evenodd" image-rendering="optimizeQuality" shape-rendering="geometricPrecision" text-rendering="geometricPrecision"><defs><style>.fil0{fill:#00a652}</style></defs><path class="fil0" d="M3504.368 1970.551l284.29 346.592-284.29 327.182H3339.61c60.303-58.227 119.53-134.477 179.834-212.114 0 0 0-38.818-45.228-38.818H2038.771v-153.887h1465.597l30.152-38.818c-60.304-58.228-134.607-153.887-194.91-231.523h164.758zm-2333.54-442.25c0 115.068 149.682 212.113 254.137 231.522v366.001h358.592v173.296h-508.275c0-58.228 0-134.478 15.076-192.705l-30.151-38.818c-60.304 115.068-119.531 250.932-179.835 385.41 104.455 95.659 223.986 192.704 343.516 268.955v712.592h-134.606v-578.115c-104.455-77.636-223.986-173.296-343.517-250.932-15.075 38.818 0 77.636 0 481.069h-598.73V2913.28h418.896v-539.296l314.441-634.956c-30.152-58.228-134.607-38.818-149.682-38.818-223.986 0-104.455 19.409-299.366 385.41-30.151-38.819-74.302-58.228-104.454-77.637 60.303-153.887 134.606-327.183 208.91-481.07h433.97zm418.896-115.07c0 173.297-104.455 250.933-179.835 250.933-119.53 0-179.834-134.477-179.834-250.932 0-134.478 89.378-212.114 179.834-212.114 134.607 0 179.835 115.068 179.835 212.114zm3335.013-231.522v2272.254h-881.942V1181.709h881.942zm388.744-481.07v3253.802H3.52V700.64h5309.962z" fill="#00a652"/></svg>