<svg xmlns="http://www.w3.org/2000/svg" fill-rule="evenodd" height="4in" width="510.662" clip-rule="evenodd" viewBox="0 0 5319 3999.5128" image-rendering="optimizeQuality" text-rendering="geometricPrecision" shape-rendering="geometricPrecision"><defs><style>.fil0{fill:#00a652}</style></defs><path fill="#00a652" d="M26.147 2299.584V667.652h5337.331V3931.515H26.147V2299.584zM5160.698 3608.04V3387.52l-314.907-8.137-314.907-8.137v-380.678h-595.827l-6.313-198.477-6.313-198.477-303.136-8.149-303.137-8.15-6.433-153.57-6.433-153.572h-661.841l-6.507 139.666-6.507 139.666h469.786l6.454 154.361 6.453 154.362 304.224 8.159 304.224 8.158v380.622h619.132v382.258h619.131v209.047l101.41-8.962 101.41-8.962v-220.52zM1280.95 2826.513l5.85-472.79-128.604-193.306c-70.734-106.316-128.603-202.206-128.603-213.103 0-10.893 38.429-93.716 85.398-184.045l85.398-164.247V1932.035H1691.434V1726.21H1349.84v-221.255c0-205.686-3.557-223.113-50.582-247.736-27.82-14.567-73.934-67.581-102.476-117.81l-51.893-91.321-271.724 8.273-271.723 8.273-105.466 308.738c-58.006 169.806-105.782 318.664-106.168 330.795-.385 12.128 37.807 22.052 84.872 22.052 85.215 0 85.904-.923 164.798-220.521l79.23-220.52h102.065c56.136 0 102.065 5.188 102.065 11.53s-43.233 117.41-96.072 246.82c-75.439 184.752-96.072 264.526-96.072 371.445 0 97.058-21.436 194.79-74.64 340.292l-74.638 204.12-240.267 8.314-240.267 8.316-6.508 139.665-6.507 139.666h597.249l110.77-252.56 110.77-252.56 93.487 126.363 93.488 126.363v814.427l90.735-9.041 90.735-9.042 5.849-472.79zm3764.412 191.101l76.828-26.92-20.325-169.142c-11.922-99.205-37.9-193.444-62.83-227.938-42.456-58.743-42.487-58.637-27.76 96.072l14.742 154.875-299.745-267.908c-277.204-247.763-345.47-286.291-344.468-194.484.199 19.26 132.308 153.1 293.553 297.438l293.175 262.418-90.734 26.002c-89.904 25.762-115.509 62.385-64.05 91.591 28.357 16.092 106.033 2.007 231.61-41.998zm-1102.638-943.32l123.52-34.164-13.658-160.046c-14.81-173.55-43.662-271.485-79.981-271.485-15.266 0-18.053 45.635-8.274 135.456 11.815 108.508 9.112 130.743-13.587 111.767-15.585-13.029-151.434-133.79-301.887-268.365-150.454-134.568-282.557-237.005-293.552-227.647-52.12 44.363 1.702 114.472 272.53 354.988l292.53 259.797-84.378 26.719c-99.72 31.578-103.559 34.99-85.254 75.778 17.77 39.598 39.862 39.275 192-2.804zm-2495.823-978.937c68.81-94.77 67.337-201.416-3.85-278.542-72.12-78.13-131.242-77.215-193.228 2.992-67.443 87.262-64.529 209.457 6.84 286.776 73.873 80.03 126.213 76.94 190.235-11.23z"/></svg>