<svg xmlns="http://www.w3.org/2000/svg" width="80.375" height="94.136" viewBox="0 0 80.375 94.136"><g fill="none" stroke-linecap="round" stroke-linejoin="round" stroke-miterlimit="10"><g stroke="#4D662E" stroke-width="4"><path d="M40.188 68.892c4.98 0 16.603-6.64 16.603-16.603 4.982 0 4.982-9.963 0-9.963l-1.66-4.857H25.246l-1.66 4.857c-4.982 0-4.982 9.962 0 9.962 0 9.96 11.62 16.602 16.603 16.602zm-8.448-3.276l-21.122 5.782C5.435 73.342 2 78.698 2 84.236v7.9h76.375v-7.9c0-5.537-3.435-10.894-8.62-12.838L48.7 65.57M30.225 45.652c0-1.834 1.488-1.66 3.32-1.66 1.834 0 3.322-.174 3.322 1.66m6.641 0c0-1.834 1.487-1.66 3.32-1.66 1.835 0 3.322-.174 3.322 1.66"/><path d="M40.188 77.194l-9.963 14.942H50.15zm-3.951-9.19v4.38c0 2.75 1.2 4.81 3.95 4.81s3.95-2.06 3.95-4.81v-4.38m14.486 13.598h10.534"/></g><path d="M61.073 22.25c0-7.864-5.383-14.747-13.364-17.175-1.243-.378-3.848 5.64-3.848 5.64V3.248c0-1.247-.977-2.25-2.098-2.25h-3.15c-1.123 0-2.1 1.003-2.1 2.25v7.464s-2.62-6.01-3.87-5.628c-7.966 2.432-13.338 9.307-13.338 17.163 0 2.01-4.84-.84-4.84 7.932H65.91c0-8.85-4.837-5.923-4.837-7.933z" stroke="#DFB126" stroke-width="2"/></g></svg>