<svg xmlns="http://www.w3.org/2000/svg" height="200mm" width="200mm" viewBox="0 0 708.6614 708.6614"><g clip-rule="evenodd" image-rendering="optimizeQuality" shape-rendering="geometricPrecision"><path d="M694.216 355.804c0 185.699-149.964 336.266-334.92 336.266S24.376 541.503 24.376 355.804 174.342 19.537 359.297 19.537s334.92 150.567 334.92 336.267z" class="fil1" fill="#086ebc"/><path d="M359.296 19.537c184.956 0 334.92 150.567 334.92 336.267S544.252 692.07 359.296 692.07 24.376 541.503 24.376 355.804 174.342 19.537 359.297 19.537zm0-20.577C163.343-1.04 3.882 159.063 3.882 355.804s159.461 356.843 355.414 356.843 355.415-160.103 355.415-356.843S555.249-1.04 359.296-1.04z" class="fil2" fill="#f5f6f6"/><g fill="#f5f6f6"><path d="M593.24 305.113c-1-4.015-3-8.03-4.499-10.54-.5-1.004-1-2.008-2-3.513-2.499-3.514-5.998-7.027-12.496-10.038-13.497-6.023-25.494-10.54-25.494-10.54s-4.999-1.505-2.5-9.536c2-8.03 14.497-50.189 14.497-50.189s4.499-13.55-3.999-27.102c-8.498-13.049-53.487-99.374-194.453-99.374s-185.956 86.325-194.454 99.374-3.999 27.102-3.999 27.102 12.497 42.16 14.497 50.19-2.5 9.535-2.5 9.535-11.997 4.517-25.493 10.54c-6.499 3.011-10.498 7.026-12.497 10.038-1 1.505-1.5 2.51-2 3.513-1.5 2.51-3.5 6.525-4.499 10.54-3.999 11.543-8.998 36.136-5.998 80.302 2.999 39.147 9.497 61.732 13.996 73.276 0 0 4 10.038 10.498 20.577 6.998 11.544 16.996 21.582 35.491 24.593 23.494 4.015 62.985 3.011 62.985 3.011 1-146.05-26.994-234.884-28.493-241.409-1-6.524-6.499-6.524-6.499-6.524h-3.499s-3.499-34.129-3.499-45.672c0-12.046 4.499-20.578 4.499-20.578 31.492-52.196 89.978-64.744 123.97-67.755 0 0 27.494-3.011 49.988-.502 33.492 2.008 95.477 13.551 128.47 68.257 0 0 4.498 8.532 4.498 20.578s-3.499 45.672-3.499 45.672h-3.499s-4.999 0-6.498 6.524c-1 6.525-29.493 95.36-28.494 241.41 0 0 39.49 1.003 62.985-3.012 18.496-3.011 28.993-13.05 35.492-24.593 6.498-10.54 10.497-20.577 10.497-20.577 4.5-11.544 11.497-34.129 13.997-73.276 3.499-44.166-2-68.759-5.999-80.302z" class="fil2"/><path d="M469.77 253.92c3 10.038 19.495 38.143 19.495 38.143s.5 1.004 1.5 1.506l4.499-18.068c-4-7.528-10.998-20.075-10.998-20.075s-5.498-12.548-5.498-24.091v-44.668s-39.49 54.204-106.975 50.69l3.5-7.528s-33.492-2.51-64.485-.502-75.982 19.574-85.48 25.597l.5 3.011c1 1.506 1.5 3.513 2 5.52 0 .503.5 2.51 1 5.02 2.999 11.041 5.498 22.083 7.998 33.124h2.5v-39.147s50.487-24.593 101.475-20.578c0 0-3.5 4.517-6.499 5.521 0 0 41.49 2.51 58.486.502s53.987-8.532 75.482-31.117c0 0 0 26.6 2.5 36.638zM485.266 513.899h-10.498c-2.499 4.517-4.998 9.034-7.997 13.55-12.997 18.069-24.994 33.126-42.49 50.692-14.497 15.056-37.491 14.555-47.489 14.053H345.8c-9.997 0-32.991.502-47.488-14.053-17.496-17.566-29.493-32.121-42.49-50.691-3-4.517-5.498-9.034-7.998-13.551h-14.996c3.499 7.528 7.498 14.555 11.997 21.08 13.497 19.071 25.994 34.128 43.99 52.196 16.495 16.562 39.99 18.57 52.987 18.57H381.79c12.997 0 36.491-1.506 52.987-18.57 17.996-18.068 30.493-33.125 43.99-52.197 4.499-6.524 8.498-13.55 11.997-21.08h-4.999z" class="fil2"/></g></g></svg>