<svg xmlns="http://www.w3.org/2000/svg" fill-rule="evenodd" height="943.997" width="943.997" clip-rule="evenodd" viewBox="0 0 9833 9833" shape-rendering="geometricPrecision" text-rendering="geometricPrecision" image-rendering="optimizeQuality"><defs><style>.str0{stroke:#000;stroke-width:9.83465;stroke-linejoin:round}.fil0{fill:none;fill-rule:nonzero}.fil1{fill:#000}.fil2{fill:#e80008}</style></defs><path class="fil1" d="M2167 4611l3027 3028-416 417-3028-3028zM3303 4190c-89 88-89 232 1 321l323 321c89 89 234 89 322 0l2764-2752c88-88 88-231-1-319l-322-320c-89-88-233-89-321-1L3302 4190zM5096 3819c-78 77-77 203 1 281l283 281c78 78 204 78 282 1l1717-1713c77-77 77-202-1-280l-282-280c-78-77-204-78-281-1L5097 3819zM5734 4453c-78 77-77 203 1 281l283 281c78 78 204 78 282 0l1715-1714c77-77 77-202-1-280l-282-280c-78-77-203-78-281-1L5734 4453zM6372 5088c-78 78-77 203 1 281l283 281c78 78 204 78 282 0l1713-1716c77-77 76-202-2-280l-282-280c-78-77-203-78-281-1L6371 5087z"/><path class="fil1" d="M5181 2483l2285 2239 1187-1178s-694-1336-1042-1378c-764-764-1410-819-1410-819L5181 2483z"/><path class="fil2" d="M7271 7924c-806 611-1569 819-2361 819-1389 0-2958-750-3639-2625-28-83-181-708-181-903v-597c56-667 278-1403 806-2056l5375 5361zm1472-3014c0 806-222 1583-819 2389L2549 1924c778-653 1583-833 2361-833 2139 0 3833 1722 3833 3819zm1083 0c0 2778-2222 4917-4917 4917-1778 0-3833-958-4681-3403C145 6174 6 5563 6 5230v-625C325 1438 2784 8 4909 8c2778 0 4917 2208 4917 4903z"/></svg>