<svg xmlns="http://www.w3.org/2000/svg" height="200mm" width="200mm" viewBox="0 0 708.6614 708.6614"><g clip-rule="evenodd" image-rendering="optimizeQuality" text-rendering="geometricPrecision" shape-rendering="geometricPrecision"><path class="fil3" d="M208.28 439.69c9.62 0 17.215-10.461 17.215-22.915 0-12.455-7.595-22.916-17.215-22.916s-17.215 10.461-17.215 22.916c0 12.454 7.594 22.915 17.215 22.915zm0-40.351c6.582 0 12.151 7.97 12.151 17.436 0 9.465-5.57 17.435-12.151 17.435-6.583 0-12.152-7.97-12.152-17.435 0-9.466 5.57-17.436 12.152-17.436z" fill="#2f2f2f"/><path class="fil3" d="M565.75 284.76c0-8.967-7.595-16.44-16.708-16.44-6.583 0-12.658 3.986-15.19 9.964v.498l-27.342 69.244v.498c-.506 1.495-2.531 2.491-4.05 2.491-2.532 0-4.557-1.992-4.557-4.483v-.498l18.228-134.01v-1.494c0-9.465-8.608-17.436-19.24-17.436-9.62 0-17.722 6.476-19.241 14.447v.996l-14.683 117.57c-.507 2.99-3.038 5.48-6.076 5.48-3.545 0-6.076-2.49-6.076-5.978v-.498l10.633-140.48v-1.993c0-10.461-8.608-18.93-19.24-18.93-10.127 0-18.228 7.472-19.241 16.937l-9.62 131.02c-.507 3.487-3.038 6.476-7.089 6.476-4.05 0-7.088-2.99-7.088-6.975v-.498l5.063-102.62c0-10.462-8.608-18.931-19.24-18.931-10.127 0-18.734 7.97-19.24 17.934l-10.63 187.31c0 11.956-4.051 11.458-4.051 11.458-5.063 0-7.595-3.985-7.595-3.985-13.67-23.414-21.266-29.89-37.468-44.337-16.202-14.446-34.936-6.476-41.518 0-6.583 6.476 1.012 15.942 1.012 15.942 15.19 18.93 25.823 33.376 33.418 46.328h-52.658c2.025-6.476 3.038-13.948 3.544-22.417v-43.838h10.127c1.012 0 2.531-.996 2.531-1.993.507-.996 0-2.49-1.519-2.989-6.582-3.487-7.595-11.955-7.595-11.955 0-.499-4.05-48.82-53.67-48.82-18.734 0-33.417 4.981-43.544 15.443-15.696 15.443-15.696 36.366-15.696 37.362v12.952c-9.114 1.495-11.645 11.458-11.645 17.436v14.945c0 5.48 1.519 9.465 5.063 12.952 3.038 2.989 7.595 3.985 10.126 4.483.507 6.974 2.026 15.941 3.545 20.425h-37.468v5.48h41.012c1.013 0 1.519-.499 2.025-.997.507-.498.507-1.494.507-2.49 0 0-4.051-15.942-4.051-25.407 0-.498-.506-1.494-1.013-1.992-.506-.499-1.519-.997-2.025-.997 0 0-5.57 0-8.608-2.989-2.025-1.992-3.037-4.981-3.037-8.967v-15.45c0-.498 0-11.955 9.113-11.955 1.52 0 2.532-.997 2.532-2.491v-15.44s0-19.927 14.177-33.377c9.114-8.967 22.785-13.949 39.493-13.949 44.05 0 48.101 41.846 48.101 43.839 0 .498 1.013 5.978 4.557 10.96h-86.57v5.479h77.467v43.838c-1.012 56.79-49.113 57.289-51.645 57.289-.506 0-1.519.498-2.025.996s-1.013.996-1.013 1.993v2.49h2.532c1.012 0 37.468-.498 51.645-34.373h57.72c11.646 19.429 18.735 36.366 32.406 62.768.506.997 1.012 1.495 1.519 2.491-18.734-.996-31.393-2.989-41.519-3.985-5.063-.498-9.62-1.494-13.67-1.494-13.672-.997-20.254 4.981-20.76 4.981l-68.86 60.776 3.544 3.985 68.86-60.776s5.57-4.483 16.709-3.487c4.05.498 8.607.997 13.67 1.495 10.633 1.494 24.304 3.487 45.57 4.483 25.822 36.864 75.442 34.871 75.442 34.871 86.075 3.986 98.733-94.152 111.39-137.99 11.14-40.351 34.43-91.662 38.481-100.13 0-.499.506-.499.506-.997.507-1.992 1.013-3.985 1.013-5.978z" fill="#2f2f2f"/><path class="fil5" d="M357.14 2.806c-195.94 0-354.42 156.42-354.42 348.71 0 192.79 158.99 348.71 354.43 348.71 195.95 0 354.43-156.42 354.43-348.71 0-192.79-158.99-348.71-354.43-348.71zM80.18 351.516c0-63.764 22.279-122.55 59.747-168.88l388.86 382.59c-47.088 36.864-106.84 58.783-171.64 58.783-152.91 0-276.96-122.55-276.96-272.49zm493.67 169.87l-389.36-383.08c47.595-37.362 107.34-59.282 172.66-59.282 152.91 0 276.96 122.55 276.96 272.49 0 64.263-22.785 123.05-60.253 169.87z" fill="#db1628"/></g></svg>