<svg xmlns="http://www.w3.org/2000/svg" fill-rule="evenodd" height="943.997" width="943.997" clip-rule="evenodd" viewBox="0 0 9833 9833" shape-rendering="geometricPrecision" text-rendering="geometricPrecision" image-rendering="optimizeQuality"><defs><style>.str0{stroke:#000;stroke-width:9.83465;stroke-linejoin:round}.fil0{fill:none;fill-rule:nonzero}.fil1{fill:#000}.fil2{fill:#e80008}</style></defs><g fill-rule="nonzero"><path d="M8197.128 3894.4c-105.174-542.264-581.963-688.258-820.357-688.258h-49.081L4032.238 7134.08c217.36-855.109-434.72-994.15-434.72-994.15s-35.058-291.989 280.464-500.552c322.534-215.515 532.882-639.593 1030.706-1042.815 666.102-528.36 567.94-1953.54-855.416-1884.019-1423.354 76.473-1907.155 1626.791-1907.155 1626.791s1949.225-1195.76 1963.248-444.934-694.148 743.875-1107.833 1306.995c-413.684 556.168 203.337 966.342 203.337 966.342s77.127 444.934 392.65 577.024c245.405 104.281 336.556 361.51 364.603 472.743l-196.325 229.42s-427.708 514.454 77.127 910.724c469.778 368.461 883.462-48.665 883.462-48.665L8204.14 3929.16l-7.012-41.712zM3267.973 5903.557s-259.429-278.084-21.035-729.97c238.395-444.935 869.439-319.797 1086.798-1390.42 0 0 7.012-660.45-1710.83 48.664 0 0 490.812-1084.528 1801.981-931.581 0 0 595.986 104.281 666.102 653.497 63.105 549.216-147.243 674.354-308.51 855.108S4004.19 5284.82 3730.739 5479.48s-420.696 319.796-462.766 417.126zm497.824 757.779c-231.383-166.85-182.302-285.036-182.302-285.036 203.337 62.569 182.302 285.036 182.302 285.036zm1577.61 570.072s-140.232-472.743-673.114-549.216l2755.559-3281.391c126.209 13.904 476.789 83.425 574.951 486.647l-2657.396 3343.96z" class="fil3" fill="#2f2f2f"/><path d="M4915.7 49.889c-2713.49 0-4908.12 2182.96-4908.12 4866.47 0 2690.462 2201.642 4866.47 4908.12 4866.47 2713.488 0 4908.12-2182.96 4908.12-4866.47 0-2690.463-2201.643-4866.47-4908.12-4866.47zm-3835.346 4866.47c0-889.87 308.51-1710.217 827.369-2356.762L7292.632 7898.81c-652.08 514.455-1479.448 820.347-2376.933 820.347-2117.503 0-3835.345-1710.216-3835.345-3802.798zm6836.31 2370.666L2524.744 1940.86c659.09-521.408 1486.459-827.3 2390.955-827.3 2117.503 0 3835.345 1710.217 3835.345 3802.799 0 896.82-315.522 1717.168-834.38 2370.666z" class="fil5" fill="#db1628"/></g></svg>