<svg xmlns:rdf="http://www.w3.org/1999/02/22-rdf-syntax-ns#" xmlns="http://www.w3.org/2000/svg" xml:space="preserve" height="674.3" width="681.7" version="1.1" xmlns:cc="http://creativecommons.org/ns#" xmlns:xlink="http://www.w3.org/1999/xlink" viewBox="0 0 681.7 674.3" xmlns:dc="http://purl.org/dc/elements/1.1/"><defs><symbol id="a" fill="#ffffff"><path d="m139.82 93.213c-22.8 1-44.6 2-66.8 3.1 0.8-2.6 2.5-3.8 3.9-5.2 19.9-20.3 39.7-40.6 59.7-60.7 2.7-2.7 3.3-4.3 0.2-7.2-7.1-6.8-14-13.8-20.5-21.1-3.3-3.7-5-2.9-7.9 0.2-19.5 20.4-39.2 40.6-58.8 60.9-1.4 1.5-2.6 3.1-3.9 4.7-0.5-0.2-1.1-0.4-1.6-0.6 0.8-22.6 1.5-45.2 2.3-68-2.5 0.3-3.4 2.2-4.6 3.4-11.1 11.1-22 22.3-33.1 33.3-2 2-2.9 4-2.9 6.8-1.1 30.6-2.2 61.2-3.4 91.8-0.1 3.6 0.7 4.7 4.5 4.5 30.1-1.7 60.1-3.2 90.2-4.8 2.1-0.1 4-0.3 5.6-2 11.7-12.4 23.6-24.5 35.5-36.7 0.4-0.5 0.7-1.1 1.6-2.4" fill="#fff"/></symbol><symbol id="b" fill="#ffffff"><path d="m0.26481 79.349c0.3 0 0.6 0.1 0.9 0.3 1.7 0.4 3.2 1.2 4.3 2.7 10.8 6.2 16.3 16 18.5 27.7 0.7 3.9 2.2 4.5 5.7 4.5 24.8-0.1 49.5 0 74.3-0.1 11.1 0 19.8-8.1 19.9-19.4 0.2-30.1 0.1-60.2 0.1-90.2 0-2.9-0.9-3.9-3.8-3.9-8.1 0.2-16.2 0.3-24.2 0-4.6-0.2-6.2 1-6.1 5.9 0.3 16.8 0.1 33.7 0.1 50.5 0 1.8 0.5 3.8-0.8 5.5-0.8 2.8-3.1 2.6-5 2-2.1-0.6-2.2-2.8-2.2-4.8v-55.6c0-2 0.1-3.7-2.8-3.7-9.9 0.1-19.9 0-29.8 0.1-0.6 0-1.1 0.6-1.7 0.9 0.1 19.5 0.1 39 0.2 58.5 0 0.8-0.5 1.6-0.7 2.4-0.5 5.1-3.4 8.7-7.4 11.5-0.4 0.3-0.8 0.5-1.2 0.8l-0.2 0.1c-2 1.9-4.3 2.6-7 2.1-10.2 0.1-20.2 0.2-30.1 0.2-0.7 0.5-1.2 1.1-1 2" fill="#fff"/></symbol><symbol id="c" fill="#ffffff"><path d="m0.79443 95.502c3.5 10.998 8 14.198 19.5 14.198h85c10.6 0 16-4.6 17.8-15.2v-55.7c-0.5-12.4-0.5-24.8 0-37.3-0.1-0.3-0.2-0.6-0.2-0.9-8.2 0-16.4 0-24.7-0.1-0.1 0.3-0.2 0.6-0.3 1 0.1 20.8 0.2 41.6 0.3 62.3 0 1-0.2 2.1-1.1 2.8-1.7 2.3-3.4 2.3-5.1 0-1.4-1.2-1.1-2.8-1.1-4.3v-61.7l-0.1-0.1c-17.4 0-34.8 0.1-52.1-0.1-4.4-0.1-5.9 0.8-5.8 5.6 0.3 18.2 0.1 36.5 0.1 54.7 0 1.5 0.1 3.1-0.3 4.6-0.4 1.7-1.5 3.3-3.6 3.1-2-0.1-3.1-1.5-3.3-3.4-0.2-1.5-0.1-3.1-0.1-4.6 0-18.4-0.1-36.8 0.1-55.2 0-3.5-0.8-5-4.6-4.7-4.6 0.3-9.3 0.4-13.9 0-5.1-0.5-6.7 1-6.6 6.4 0.3 29.4 0.1 59 0.1 88.6" fill="#fff"/></symbol></defs><rect height="614.3" width="665.73" y="10" x="10" fill="#00a652"/><use xlink:href="#a" transform="matrix(1.0176,0,0,-1.0139,516.68,603.24)" height="100%" width="100%" y="0" x="0"/><use xlink:href="#a" transform="matrix(-1.0176,0,0,-1.0139,170.85,602.5)" height="100%" width="100%" y="0" x="0"/><use xlink:href="#a" transform="matrix(-1.0176,0,0,1.0139,168.71,28.475)" height="100%" width="100%" y="0" x="0" fill="#ffffff"/><use xlink:href="#a" transform="matrix(1.0176,0,0,1.0139,513.18,29.359)" height="100%" width="100%" y="0" x="0"/><g transform="matrix(1.1881 0 0 -1.1949 -59.252 679.03)"><use xlink:href="#b" transform="matrix(.89553 0 0 1 363.4 214.93)" height="100%" width="100%" y="0" x="0"/><use xlink:href="#b" transform="matrix(-.89141 0 0 1.013 303.99 211.16)" height="100%" width="100%" y="0" x="0"/><g transform="translate(61.43 24.286)" fill="#fff"><ellipse rx="32.73" ry="32.326" transform="scale(1,-1)" cy="-347.58" cx="202.32"/><ellipse rx="32.73" transform="scale(1,-1)" ry="32.326" cy="-346" cx="344.41"/><ellipse rx="32.73" transform="scale(1,-1)" ry="32.326" cy="-304.72" cx="272.34"/><ellipse rx="32.73" transform="scale(1,-1)" ry="32.326" cy="-380.76" cx="272.34"/></g><use xlink:href="#c" transform="translate(270.92 171.57)" height="100%" width="100%" y="0" x="0" fill="#ffffff"/></g></svg>
