<svg xmlns:svg="http://www.w3.org/2000/svg" xmlns="http://www.w3.org/2000/svg" version="1.1" xml:space="preserve" width="681.7" height="674.3" viewBox="0 0 681.7 674.3"><style>.s0{fill:#00a652;image-rendering:optimizeQuality;shape-rendering:geometricPrecision;text-rendering:geometricPrecision;}</style><defs><clipPath clipPathUnits="userSpaceOnUse"><path d="m0 539.5 545.3 0L545.3 0 0 0 0 539.5Z" /></clipPath></defs><g transform="matrix(1.25,0,0,-1.25,0,674.3375)"><image y="-538.2" x="18.2" preserveAspectRatio="none" height="520" width="520" transform="scale(1,-1)" class="s0" /><path d="m34 280.3 1.4 241.5 241.5 1.4 241.5 1.4 0-242.9 0-242.9-242.9 0-242.9 0 1.4 241.5zM318.7 83.7c7.7 9.8 15.4 13.2 29.6 13.2 18.9 0 19.1-0.1 7.5-8.2-17.2-12.1-14.4-18.2 8.4-18.2 15.2 0 23.6 3.7 34.3 14.8l14.2 14.8 0 90.8 0 90.8-33.8 0-33.8 0-9.5 26.4c-5.2 14.5-11.2 26.4-13.2 26.4-4.6 0-52.2-73.7-52.2-80.8 0-4.5 11.8-23.2 74.8-118.7 8.2-12.5 15-23.8 15-25.1 0-1.3-6.8-2.4-15.2-2.4-13.6 0-19.8 7-59.4 66.4l-44.2 66.4-1.5-40-1.5-40-60.5 0c-57 0-60.5 0.6-60.5 10.6 0 9.7 3.5 10.6 44.9 10.6l44.9 0 0 41.2 0 41.2 31.5 49.9c17.3 27.4 31.6 53 31.7 56.7 0.1 5-7.8 6.4-29.6 5.3-26.9-1.4-30.6-3.1-38.3-17.4-16.5-30.7-25.2-39.9-34.2-36.5-12.3 4.7-11.1 9.9 10.6 44.9l19.2 31.1 43.5 0c40.4 0 44.1-0.9 52-13 5.1-7.8 15.8-14.3 27-16.4 16.4-3.1 20.1-7 32.4-34.6 13.9-31.1 14-31.1 37-31.1l23 0 0 92.4 0 92.4-137.2 0-137.2 0 0-145.2 0-145.2-18.8 0-18.8 0 1.6-25.1c1.5-24 2.3-25.1 18.8-26.7 16-1.5 17.2-3 17.2-21.5 0-14.4-3.7-23.3-13.2-32.3-7.3-6.8-13.2-14.4-13.2-16.8 0-2.4 44.2-4.4 98.2-4.4l98.2 0 10.4 13.2z" class="s0" /><path d="m319.6 385.6c-0.5 1-2 2-3.3 2.4-2.5 0.6-6.2 3.4-9.3 7-1.1 1.2-2.7 3-3.6 4-0.9 1-1.6 2.4-1.6 3.2 0 1.7-1.7 5-3.4 6.8-0.8 0.8-1.3 3.8-1.3 9 0 6.4 0.3 8.2 1.9 10.2 1.1 1.3 2.2 3.9 2.4 5.7 0.3 2.1 1.1 3.4 2.3 3.7 1 0.3 1.8 1.1 1.8 1.8 0 0.7 1.1 1.8 2.3 2.4 1.3 0.6 2.3 1.7 2.3 2.5 0 0.8 0.6 1.4 1.4 1.4 0.7 0 1.9 0.8 2.6 1.8 0.9 1.2 2.9 2 6.4 2.5 2.8 0.4 6.6 1.4 8.4 2.2 2.9 1.4 3.6 1.4 5.3 0.3 1.1-0.7 4.8-1.7 8.3-2.3 4.4-0.7 6.8-1.5 7.6-2.8 0.7-1 1.8-1.8 2.5-1.8 0.7 0 1.5-0.8 1.9-1.8 0.3-1 1.4-2.1 2.4-2.4 1-0.3 1.8-1.2 1.8-1.9 0-0.7 0.8-1.9 1.9-2.6 1.2-0.8 2.2-3.2 2.8-6.4 0.5-2.8 1.6-5.5 2.3-6.1 2.2-1.6 1.9-10.2-0.5-13.2-1.1-1.4-1.9-3.8-1.9-5.7 0-2.3-0.7-3.9-2.3-5.4-1.3-1.2-2.3-3-2.3-4.1 0-1.3-1.2-2.5-3.7-3.8-2.1-1.1-3.7-2.3-3.7-2.8 0-0.5-0.8-0.9-1.8-0.9-1 0-3.1-1.1-4.6-2.3-2.6-2.2-3.4-2.3-13.6-2.3-9.7 0-10.9 0.2-11.8 1.8z" fill="#00a652" /></g></svg>