<svg xmlns:svg="http://www.w3.org/2000/svg" xmlns="http://www.w3.org/2000/svg" xml:space="preserve" width="5.3194399in" height="4in" version="1.1" viewBox="0 0 5319 3999.5128" style="clip-rule:evenodd;fill-rule:evenodd;image-rendering:optimizeQuality;shape-rendering:geometricPrecision;text-rendering:geometricPrecision"><defs><style type="text/css">
    .fil0 {fill:#00A652}
   </style></defs><g transform="matrix(1.076853,0,0,1.3863663,-204.31353,469.11632)"><path class="fil0" d="m3444 1083 264 250-264 236-153 0c56-42 111-97 167-153 0 0 0-28-42-28l-1333 0 0-111 1361 0 28-28c-56-42-125-111-181-167l153 0zm-2167-319 0 0c0 83 139 153 236 167l0 264 333 0 0 125-472 0c0-42 0-97 14-139l-28-28c-56 83-111 181-167 278 97 69 208 139 319 194l0 514-125 0 0-417c-97-56-208-125-319-181-14 28 0 56 0 347l-556 0 0-125 389 0 0-389 292-458c-28-42-125-28-139-28-208 0-97 14-278 278-28-28-69-42-97-56 56-111 125-236 194-347l403 0zm389-83 0 0c0 125-97 181-167 181-111 0-167-97-167-181 0-97 83-153 167-153 125 0 167 83 167 153zm3097-167 0 0 0 1639-819 0 0-1639 819 0zm361-347 0 0 0 2347-4931 0 0-2347 4931 0z" fill="#00a652" /></g></svg>