<svg xmlns:rdf="http://www.w3.org/1999/02/22-rdf-syntax-ns#" style="image-rendering:optimizeQuality;text-rendering:geometricPrecision;shape-rendering:geometricPrecision" xmlns="http://www.w3.org/2000/svg" fill-rule="evenodd" xml:space="preserve" height="4in" width="5.3194in" version="1.1" clip-rule="evenodd" xmlns:cc="http://creativecommons.org/ns#" xmlns:dc="http://purl.org/dc/elements/1.1/" viewBox="0 0 5319 3999.5128"><defs><style type="text/css">
    .fil0 {fill:#00A652}
   </style></defs><g transform="matrix(1.0769 0 0 1.3864 -204.31 469.12)"><path fill="#00a652" d="m214 1320.3v-1177.1h2478.1 2478.1v1177.1 1177.1h-2478.1-2478.1v-1177.1zm4767.9 943.78v-159.06l-292.42-5.8692-292.42-5.8691v-137.29-137.29h-276.64-276.64l-5.8617-143.16-5.8622-143.16-281.49-5.8777-281.49-5.878-5.9737-110.77-5.9736-110.77h-307.29-307.29l-6.0426 100.74-6.0423 100.74h218.12 218.12l5.9924 111.34 5.9923 111.34 282.5 5.8845 282.5 5.8843v137.27 137.27h287.46 287.46v137.86 137.86h287.46 287.46v75.392 75.392l94.168-6.4644 94.169-6.4641v-159.06zm-3602.7-563.71 5.4312-341.02-119.42-139.43c-65.683-76.685-119.42-145.85-119.42-153.71 0-7.8566 35.685-67.596 79.3-132.75l79.3-118.47v120.1 120.1h227.99 227.99v-74.23-74.23h-158.6-158.6v-159.59c0-148.36-3.3035-160.93-46.97-178.69-25.834-10.507-68.655-48.746-95.158-84.975l-48.188-65.87-252.32 5.9675-252.32 5.9674-97.935 222.69c-53.864 122.48-98.228 229.85-98.586 238.6-0.3579 8.7485 35.107 15.906 78.811 15.906 79.13 0 79.77-0.6654 153.03-159.06l73.572-159.06h94.777c52.127 0 94.777 3.7427 94.777 8.317s-40.146 84.687-89.212 178.03c-70.052 133.26-89.212 190.8-89.212 267.92 0 70.007-19.905 140.5-69.309 245.45l-69.309 147.23-223.11 5.9976-223.11 5.9976-6.0426 100.74-6.0423 100.74h277.3 277.3l102.86-182.17 102.86-182.17 86.811 91.145 86.812 91.145v293.72 293.72l84.256-6.5215 84.256-6.5218 5.431-341.02zm3495.6 137.84 71.342-19.418-18.874-122c-11.071-71.556-35.194-139.53-58.343-164.41-39.425-42.371-39.453-42.295-25.778 69.296l13.689 111.71-278.34-193.24c-257.41-178.71-320.8-206.5-319.87-140.28 0.1845 13.892 122.86 110.43 272.59 214.54l272.24 189.28-84.255 18.755c-83.484 18.582-107.26 44.998-59.475 66.064 26.331 11.607 98.46 1.4478 215.07-30.293zm-1023.9-680.41 114.7-24.642-12.683-115.44c-13.753-125.18-40.544-195.82-74.27-195.82-14.176 0-16.764 32.916-7.6828 97.703 10.971 78.266 8.4607 94.304-12.617 80.617-14.472-9.3978-140.62-96.502-280.33-193.57-139.71-97.063-262.38-170.95-272.59-164.2-48.398 31.999 1.5805 82.568 253.07 256.05l271.64 187.39-78.352 19.272c-92.599 22.777-96.164 25.238-79.167 54.658 16.501 28.562 37.016 28.329 178.29-2.0221zm-2317.6-706.1c63.897-68.357 62.529-145.28-3.5747-200.91-66.97-56.355-121.87-55.695-179.43 2.1576-62.627 62.942-59.921 151.08 6.3521 206.85 68.597 57.725 117.2 55.496 176.65-8.1009z"/></g></svg>
